<svg width="43" height="27" viewBox="0 0 43 27" fill="none" xmlns="http://www.w3.org/2000/svg">
<rect x="0.906738" width="41.9689" height="26.8601" rx="2.51813" fill="#1C1C1C"/>
<mask id="mask0_1064_2134" style="mask-type:alpha" maskUnits="userSpaceOnUse" x="0" y="0" width="43" height="27">
<rect x="0.906738" width="41.9689" height="26.8601" rx="2.51813" fill="url(#paint0_linear_1064_2134)"/>
</mask>
<g mask="url(#mask0_1064_2134)">
<path d="M19.0704 19.6709V15.7607L17.2627 17.6865L19.0704 19.6709Z" fill="#306FC8"/>
<path d="M11.4941 16.251V17.1312L14.079 17.1258V18.134H11.4941V19.0996H14.3919L15.741 17.6699L14.4459 16.251H11.4941Z" fill="#306FC8"/>
<path d="M22.4757 8.84234C22.6268 8.75699 22.7186 8.58629 22.7186 8.37825C22.7186 8.1702 22.6214 8.02084 22.4757 7.94082C22.3354 7.8608 22.125 7.85547 21.9145 7.85547H20.4575V8.9437H21.8983C22.125 8.9437 22.3138 8.93303 22.4757 8.84234Z" fill="#306FC8"/>
<path d="M3.07617 9.60971H4.68966L3.88022 7.66797L3.07617 9.60971Z" fill="#306FC8"/>
<path d="M21.7904 16.251H20.2524V17.4779H21.7796C22.2275 17.4779 22.5081 17.2645 22.5081 16.8431C22.5027 16.4217 22.2113 16.251 21.7904 16.251Z" fill="#306FC8"/>
<path d="M3.37823 11.5892H4.39273L4.85141 12.6828H8.81767V11.8506L9.17382 12.6828H11.2244L11.5806 11.8399V12.6828H21.4341V10.901H21.6284C21.7687 10.901 21.8065 10.917 21.8065 11.1358V12.6828H26.9006V12.2613C27.3053 12.48 27.942 12.6828 28.7947 12.6828H30.937L31.401 11.5892H32.4156L32.8742 12.6828H36.9916V11.6479L37.6229 12.6828H40.9309V5.87598H37.6607V6.67615L37.1912 5.87598H33.8294V6.67615L33.4193 5.87598H28.8756C28.1093 5.87598 27.4348 5.97733 26.9006 6.26539V5.87598H23.7707V6.26539C23.4038 5.972 22.9451 5.87598 22.4271 5.87598H10.9708L10.1937 7.63102L9.41665 5.87598H5.81195V6.67615L5.40183 5.87598H2.32596L0.906738 9.10333V12.6828H2.91955L3.37823 11.5892ZM27.1218 7.40697C27.4995 7.01755 28.1039 6.83618 28.9188 6.83618H30.0466V7.88174H28.9404C28.5033 7.88174 28.2604 7.94575 28.0284 8.17513C27.8233 8.37784 27.683 8.76726 27.683 9.27937C27.683 9.80214 27.7855 10.1702 28.0176 10.4263C28.1903 10.6183 28.5194 10.677 28.8378 10.677H29.3667L31.0287 6.83618H32.7879L34.7899 11.4558V6.83618H36.5923L38.6644 10.2342V6.83618H39.8786V11.7226H38.195L35.9663 8.06311V11.7226H33.565L33.1117 10.629H30.6564L30.2031 11.7226H28.8324C28.255 11.7226 27.5265 11.5892 27.1164 11.1784C26.7009 10.7623 26.4904 10.2022 26.4904 9.31671C26.4904 8.59122 26.62 7.92975 27.1218 7.40697ZM24.7043 6.83618H25.913V11.7226H24.7043V6.83618ZM19.281 6.83618H22.0007C22.5997 6.83618 23.0422 6.85752 23.42 7.0709C23.7977 7.28961 24.0297 7.60968 24.0297 8.15379C24.0297 8.92729 23.5009 9.32738 23.1879 9.45007C23.447 9.54609 23.6682 9.72213 23.7707 9.86616C23.938 10.1009 23.965 10.3249 23.965 10.7517V11.7226H22.7778V11.1038C22.7778 10.8157 22.8048 10.3889 22.5835 10.1596C22.4163 9.98352 22.1572 9.94617 21.7255 9.94617H20.4574V11.7226H19.2756V6.83618H19.281ZM14.5215 6.83618H18.4608V7.85506H15.6979V8.73525H18.3906V9.73813H15.6979V10.7037L18.4608 10.6983V11.7172H14.5215V6.83618ZM2.20184 11.7226H0.917531L3.02747 6.83618H4.78666L6.78867 11.4558V6.83618H8.72053L10.2585 10.1489L11.6777 6.83618H13.6419V11.7226H12.4332V7.89774L10.7225 11.7226H9.68647L7.97045 7.89241V11.7226H5.56372L5.11043 10.629H2.65513L2.20184 11.7226Z" fill="#306FC8"/>
<path d="M31.8812 7.66797L31.0771 9.60971H32.6852L31.8812 7.66797Z" fill="#306FC8"/>
<path d="M40.2621 16.3637C40.1379 16.4437 40.084 16.561 40.084 16.7157C40.084 16.8971 40.1919 17.0251 40.343 17.0785C40.4617 17.1212 40.5966 17.1318 40.7963 17.1318L41.4277 17.1478C42.0806 17.1638 42.5123 17.2705 42.7767 17.5426C42.8145 17.5799 42.8469 17.6173 42.8739 17.6546V16.2783H40.7315C40.5211 16.2783 40.3754 16.289 40.2621 16.3637Z" fill="#306FC8"/>
<path d="M41.2817 20.1137H39.0045V19.0681H41.2709C41.4922 19.0681 41.6487 19.0361 41.7458 18.9508C41.8268 18.8761 41.8861 18.7694 41.8861 18.6307C41.8861 18.4867 41.8268 18.3747 41.7404 18.3053C41.6541 18.2306 41.53 18.1986 41.3303 18.1986C40.2295 18.1666 38.8426 18.236 38.8426 16.6836C38.8426 15.9848 39.2905 15.2327 40.5316 15.2327H42.879V14.2725H40.6935C40.0406 14.2725 39.5495 14.4218 39.215 14.6619V14.2725H35.9934C35.4807 14.2725 34.8656 14.3952 34.5796 14.6619V14.2725H28.811V14.6619C28.3523 14.3418 27.5806 14.2725 27.2137 14.2725H23.4093V14.6619C23.0477 14.3151 22.2491 14.2725 21.758 14.2725H17.495L16.5183 15.318L15.6117 14.2725H9.25488V21.0792H15.4984L16.4967 20.0177L17.4464 21.0739L21.2886 21.0792V19.4736H21.6717C22.1789 19.4736 22.7833 19.4629 23.3068 19.2388V21.0792H26.4906V19.2975H26.6471C26.8413 19.2975 26.8575 19.3135 26.8575 19.4949V21.0792H36.4898C37.0942 21.0792 37.7472 20.9245 38.1033 20.6471V21.0792H41.1576C41.789 21.0792 42.4149 20.9886 42.8898 20.7645V19.5002C42.5822 19.9163 42.0426 20.1137 41.2817 20.1137ZM21.7149 18.4814H20.2471V20.1137H17.9483L16.5021 18.508L14.9911 20.119H10.3126V15.2327H15.0613L16.5075 16.8383L18.013 15.2327H21.7904C22.7186 15.2327 23.7708 15.4994 23.7708 16.849C23.7654 18.1986 22.7456 18.4814 21.7149 18.4814ZM28.8164 18.2626C28.9836 18.4974 29.0106 18.7214 29.016 19.1482V20.1137H27.8288V19.4949C27.8288 19.2068 27.8558 18.7801 27.6346 18.5507C27.4619 18.3747 27.2083 18.3373 26.7766 18.3373H25.5084V20.1137H24.3267V15.2273H27.0464C27.6454 15.2273 28.0825 15.2487 28.4656 15.4674C28.8433 15.6861 29.0754 16.0062 29.0754 16.5503C29.0754 17.3238 28.5465 17.7239 28.239 17.8466C28.498 17.9426 28.7192 18.1186 28.8164 18.2626ZM33.6676 16.2515H30.9101V17.1317H33.6082V18.1399H30.9101V19.1055H33.673V20.119H29.7337V15.2327H33.673V16.2515H33.6676ZM36.6679 20.1137H34.3691V19.0681H36.6571C36.8784 19.0681 37.0349 19.0361 37.132 18.9508C37.2129 18.8761 37.2723 18.7694 37.2723 18.6307C37.2723 18.4867 37.2129 18.3747 37.1266 18.3053C37.0403 18.2306 36.9161 18.1986 36.7165 18.1986C35.6156 18.1666 34.2288 18.236 34.2288 16.6836C34.2288 15.9795 34.6767 15.2327 35.9178 15.2327H38.2814V16.2782H36.1175C35.9017 16.2782 35.7614 16.2836 35.6426 16.3582C35.5185 16.4383 35.47 16.5556 35.47 16.7103C35.47 16.8917 35.5779 17.0197 35.729 17.0731C35.8531 17.1157 35.9826 17.1264 36.1823 17.1264L36.8136 17.1424C37.4666 17.1584 37.8983 17.2651 38.1627 17.5372C38.3947 17.7825 38.5188 18.0653 38.5188 18.572C38.5242 19.6176 37.8659 20.1137 36.6679 20.1137Z" fill="#306FC8"/>
<path d="M27.5265 16.331C27.3862 16.2563 27.1704 16.251 26.9653 16.251H25.5083V17.3392H26.9491C27.1757 17.3392 27.37 17.3339 27.5265 17.2432C27.6776 17.1578 27.7693 16.9871 27.7693 16.7791C27.7639 16.5657 27.6722 16.4163 27.5265 16.331Z" fill="#306FC8"/>
</g>
<defs>
<linearGradient id="paint0_linear_1064_2134" x1="21.8912" y1="0" x2="21.8912" y2="26.8601" gradientUnits="userSpaceOnUse">
<stop stop-color="#F9F9F9"/>
<stop offset="1" stop-color="#005D9C"/>
</linearGradient>
</defs>
</svg>
