<svg width="43" height="27" viewBox="0 0 43 27" fill="none" xmlns="http://www.w3.org/2000/svg">
<rect x="0.875488" width="41.9689" height="26.8601" rx="2.51813" fill="#1C1C1C"/>
<path d="M7.35681 10.8887H5.91162V15.936H7.34915C8.11354 15.936 8.66551 15.7556 9.15001 15.3533C9.72576 14.8769 10.0663 14.1587 10.0663 13.4158C10.0664 11.9264 8.95347 10.8887 7.35681 10.8887ZM8.50694 14.6803C8.19754 14.9596 7.79584 15.0815 7.1597 15.0815H6.89553V11.7439H7.1597C7.79584 11.7439 8.18182 11.8577 8.50694 12.1521C8.84746 12.4552 9.05222 12.9251 9.05222 13.4085C9.05222 13.8931 8.84746 14.3773 8.50694 14.6803Z" fill="white"/>
<path d="M11.5036 10.8887H10.519V15.936H11.5036V10.8887Z" fill="white"/>
<path d="M13.9114 12.826C13.3207 12.6074 13.1472 12.4632 13.1472 12.1905C13.1472 11.8725 13.4563 11.6311 13.8805 11.6311C14.1756 11.6311 14.4179 11.7522 14.6744 12.0398L15.1896 11.3653C14.7663 10.9949 14.2598 10.8057 13.7064 10.8057C12.8134 10.8057 12.1322 11.4258 12.1322 12.2519C12.1322 12.9473 12.4493 13.3033 13.374 13.636C13.7595 13.7719 13.9556 13.8624 14.0546 13.9234C14.2513 14.0518 14.3498 14.2337 14.3498 14.4456C14.3498 14.8546 14.0247 15.1575 13.5854 15.1575C13.1158 15.1575 12.7376 14.9227 12.511 14.4844L11.875 15.0969C12.3286 15.7627 12.8733 16.0578 13.6225 16.0578C14.6456 16.0578 15.3633 15.3776 15.3633 14.4005C15.3631 13.5986 15.0314 13.2355 13.9114 12.826Z" fill="white"/>
<path d="M15.6738 13.4158C15.6738 14.8994 16.8389 16.0498 18.338 16.0498C18.7619 16.0498 19.1248 15.9664 19.5724 15.7557V14.5968C19.1787 14.9907 18.8301 15.1496 18.3839 15.1496C17.3923 15.1496 16.6886 14.4306 16.6886 13.4085C16.6886 12.4395 17.4146 11.675 18.3382 11.675C18.8077 11.675 19.1632 11.8426 19.5725 12.2429V11.0845C19.1404 10.8652 18.7851 10.7744 18.3614 10.7744C16.8695 10.7747 15.6738 11.9484 15.6738 13.4158Z" fill="white"/>
<path d="M27.3781 14.2789L26.0321 10.8887H24.9565L27.0986 16.0655H27.6284L29.8088 10.8887H28.7416L27.3781 14.2789Z" fill="white"/>
<path d="M30.2539 15.936H33.046V15.0816H31.2377V13.7192H32.9793V12.8642H31.2377V11.7439H33.046V10.8887H30.2539V15.936Z" fill="white"/>
<path d="M36.9443 12.3788C36.9443 11.4338 36.2934 10.8887 35.158 10.8887H33.6982V15.936H34.6816V13.9084H34.81L36.1726 15.9361H37.3834L35.7946 13.8096C36.536 13.6588 36.9443 13.1516 36.9443 12.3788ZM34.9692 13.2124H34.6817V11.6837H34.9848C35.5979 11.6837 35.9313 11.9406 35.9313 12.4318C35.9313 12.9393 35.598 13.2124 34.9692 13.2124Z" fill="white"/>
<path d="M22.5786 16.1152C24.0615 16.1152 25.2636 14.9131 25.2636 13.4302C25.2636 11.9473 24.0615 10.7451 22.5786 10.7451C21.0957 10.7451 19.8936 11.9473 19.8936 13.4302C19.8936 14.9131 21.0957 16.1152 22.5786 16.1152Z" fill="url(#paint0_linear_1064_2152)"/>
<path opacity="0.65" d="M22.5786 16.1152C24.0615 16.1152 25.2636 14.9131 25.2636 13.4302C25.2636 11.9473 24.0615 10.7451 22.5786 10.7451C21.0957 10.7451 19.8936 11.9473 19.8936 13.4302C19.8936 14.9131 21.0957 16.1152 22.5786 16.1152Z" fill="url(#paint1_linear_1064_2152)"/>
<path d="M37.5731 11.0793C37.5731 10.9908 37.5122 10.9424 37.4051 10.9424H37.2627V11.386H37.3685V11.2139L37.4927 11.386H37.6219L37.476 11.2031C37.5387 11.1863 37.5731 11.1409 37.5731 11.0793ZM37.3865 11.1399H37.3686V11.0239H37.3876C37.44 11.0239 37.4673 11.0427 37.4673 11.081C37.4673 11.1201 37.4396 11.1399 37.3865 11.1399Z" fill="white"/>
<path d="M37.4264 10.7764C37.211 10.7764 37.04 10.9482 37.04 11.1631C37.04 11.3778 37.213 11.5499 37.4264 11.5499C37.6363 11.5499 37.8082 11.3759 37.8082 11.1631C37.8082 10.9511 37.6362 10.7764 37.4264 10.7764ZM37.4247 11.4808C37.2552 11.4808 37.1165 11.3397 37.1165 11.1636C37.1165 10.987 37.2534 10.846 37.4247 10.846C37.5935 10.846 37.731 10.9902 37.731 11.1636C37.731 11.3382 37.5936 11.4808 37.4247 11.4808Z" fill="white"/>
<defs>
<linearGradient id="paint0_linear_1064_2152" x1="23.953" y1="15.582" x2="22.0939" y2="12.6712" gradientUnits="userSpaceOnUse">
<stop stop-color="#F89F21"/>
<stop offset="0.2502" stop-color="#F79A23"/>
<stop offset="0.5331" stop-color="#F78E22"/>
<stop offset="0.6196" stop-color="#F68721"/>
<stop offset="0.7232" stop-color="#F48220"/>
<stop offset="1" stop-color="#F27623"/>
</linearGradient>
<linearGradient id="paint1_linear_1064_2152" x1="23.6593" y1="15.5425" x2="20.9422" y2="10.2317" gradientUnits="userSpaceOnUse">
<stop stop-color="#F68721" stop-opacity="0"/>
<stop offset="0.3587" stop-color="#E27027" stop-opacity="0.2704"/>
<stop offset="0.703" stop-color="#D4612C" stop-opacity="0.5299"/>
<stop offset="0.9816" stop-color="#D15D2D" stop-opacity="0.74"/>
</linearGradient>
</defs>
</svg>
