<svg width="43" height="27" viewBox="0 0 43 27" fill="none" xmlns="http://www.w3.org/2000/svg">
<rect x="0.813477" width="41.9689" height="26.8601" rx="2.51813" fill="#1C1C1C"/>
<path fill-rule="evenodd" clip-rule="evenodd" d="M32.6933 18.4343C32.6933 20.306 31.1764 21.8237 29.3039 21.8237H10.9028V8.42605C10.9028 6.55385 12.42 5.03615 14.2925 5.03615L32.6933 5.03613V18.4343H32.6933Z" fill="white"/>
<path fill-rule="evenodd" clip-rule="evenodd" d="M26.6941 13.7242H26.7062H26.7296H26.7529H26.7763H26.7997H26.823H26.8464H26.8698H26.8931H26.9165H26.9399H26.9632H26.9866H27.01H27.0333H27.0567H27.0801H27.1034H27.1268H27.1502H27.1735H27.1969H27.2203H27.2436H27.267H27.2904H27.3137H27.3371H27.3605H27.3838H27.4072H27.4306H27.4539H27.4773H27.5007H27.524H27.5474H27.5708H27.5941H27.6175H27.6409H27.6642H27.6876H27.711H27.7343H27.7577H27.7811H27.8044H27.8278H27.8512H27.8745H27.8979H27.9213H27.9446H27.968H27.9914H28.0147H28.0381H28.0615H28.0848H28.1043L28.1082 13.7243C28.1154 13.7245 28.1233 13.7248 28.1316 13.7253C28.1391 13.7257 28.1469 13.7262 28.1549 13.7268C28.1626 13.7273 28.1705 13.728 28.1783 13.7287C28.1862 13.7294 28.194 13.7302 28.2017 13.7311C28.2097 13.732 28.2176 13.7329 28.225 13.7339C28.2334 13.7351 28.2413 13.7362 28.2484 13.7374C28.2535 13.7383 28.2583 13.7392 28.2625 13.7401L28.2718 13.7422C28.2796 13.744 28.2874 13.746 28.2951 13.7481C28.303 13.7503 28.3108 13.7526 28.3185 13.7551C28.3263 13.7576 28.3341 13.7602 28.3419 13.763C28.3497 13.7659 28.3575 13.7689 28.3652 13.772C28.3731 13.7753 28.3809 13.7787 28.3886 13.7822C28.3965 13.7858 28.4042 13.7895 28.412 13.7935C28.4198 13.7974 28.4276 13.8016 28.4353 13.806C28.4432 13.8104 28.451 13.8151 28.4587 13.8198C28.4666 13.8248 28.4744 13.8298 28.4821 13.8351C28.49 13.8405 28.4978 13.8461 28.5054 13.8519C28.5133 13.8578 28.5211 13.864 28.5288 13.8704C28.5367 13.877 28.5445 13.8839 28.5522 13.8909C28.5601 13.8982 28.5679 13.9057 28.5755 13.9134C28.5836 13.9216 28.5913 13.93 28.5989 13.9386C28.6069 13.9478 28.6147 13.9572 28.6223 13.9669C28.6304 13.9773 28.6382 13.988 28.6456 13.9989C28.6538 14.0109 28.6616 14.0233 28.669 14.0359C28.6773 14.0502 28.6851 14.0648 28.6924 14.0799C28.701 14.0978 28.7088 14.1162 28.7157 14.1351C28.7251 14.1605 28.7329 14.1869 28.7391 14.2141C28.7498 14.2613 28.7555 14.311 28.7555 14.3628C28.7555 14.415 28.7498 14.4648 28.7391 14.5122C28.7329 14.5395 28.7251 14.5659 28.7157 14.5914C28.7088 14.6104 28.701 14.6288 28.6924 14.6467C28.6851 14.6618 28.6773 14.6765 28.669 14.6907C28.6616 14.7034 28.6538 14.7157 28.6456 14.7277C28.6382 14.7387 28.6304 14.7494 28.6223 14.7598C28.6147 14.7695 28.6069 14.7789 28.5989 14.788C28.5913 14.7966 28.5835 14.805 28.5755 14.8132C28.5679 14.8209 28.5601 14.8284 28.5522 14.8358C28.5445 14.8428 28.5367 14.8495 28.5288 14.8561C28.5211 14.8625 28.5134 14.8687 28.5054 14.8746C28.4978 14.8804 28.49 14.8859 28.4821 14.8913C28.4744 14.8966 28.4666 14.9017 28.4587 14.9065C28.451 14.9113 28.4432 14.9159 28.4353 14.9203C28.4276 14.9246 28.4198 14.9288 28.412 14.9328C28.4042 14.9367 28.3965 14.9404 28.3886 14.944C28.3809 14.9475 28.3731 14.9508 28.3652 14.954C28.3575 14.9571 28.3497 14.9601 28.3419 14.9629C28.3341 14.9657 28.3263 14.9683 28.3185 14.9708C28.3108 14.9732 28.303 14.9755 28.2951 14.9776C28.2874 14.9797 28.2796 14.9817 28.2718 14.9835L28.2625 14.9855C28.2583 14.9865 28.2535 14.9875 28.2484 14.9884C28.2413 14.9896 28.2334 14.9908 28.225 14.992C28.2176 14.993 28.2097 14.994 28.2017 14.9948C28.194 14.9957 28.1862 14.9965 28.1783 14.9972C28.1705 14.9979 28.1626 14.9985 28.1549 14.9991C28.1469 14.9996 28.1391 15.0001 28.1316 15.0005C28.1233 15.001 28.1154 15.0013 28.1082 15.0014L28.0957 15.0016H28.0848H28.0615H28.0381H28.0147H27.9914H27.968H27.9446H27.9213H27.8979H27.8745H27.8512H27.8278H27.8044H27.7811H27.7577H27.7343H27.711H27.6876H27.6642H27.6409H27.6175H27.5941H27.5708H27.5474H27.524H27.5007H27.4773H27.4539H27.4306H27.4072H27.3838H27.3605H27.3371H27.3137H27.2904H27.267H27.2436H27.2203H27.1969H27.1735H27.1502H27.1268H27.1034H27.0801H27.0567H27.0333H27.01H26.9866H26.9632H26.9399H26.9165H26.8931H26.8698H26.8464H26.823H26.7997H26.7763H26.7529H26.7296H26.7062H26.6941V13.7242ZM28.5756 12.2785C28.585 12.3214 28.59 12.3668 28.59 12.4146C28.59 12.4623 28.585 12.5077 28.5756 12.5506C28.5696 12.5781 28.5617 12.6045 28.5522 12.6299C28.5453 12.6484 28.5375 12.6663 28.5289 12.6836C28.5216 12.6982 28.5138 12.7122 28.5055 12.7259C28.4981 12.7379 28.4903 12.7496 28.4821 12.7609C28.4747 12.7713 28.4669 12.7813 28.4588 12.7911C28.4512 12.8001 28.4435 12.8089 28.4354 12.8175C28.4278 12.8255 28.4201 12.8333 28.4121 12.8408C28.4044 12.848 28.3967 12.8549 28.3887 12.8616C28.381 12.8681 28.3733 12.8743 28.3653 12.8803C28.3577 12.8861 28.3499 12.8917 28.342 12.8971C28.3343 12.9024 28.3265 12.9074 28.3186 12.9123C28.3109 12.917 28.3031 12.9215 28.2952 12.9259C28.2875 12.9302 28.2797 12.9343 28.2719 12.9382C28.2641 12.942 28.2563 12.9457 28.2485 12.9492C28.2408 12.9526 28.233 12.9559 28.2251 12.959C28.2174 12.962 28.2096 12.9649 28.2018 12.9676C28.194 12.9703 28.1862 12.9729 28.1784 12.9752C28.1707 12.9776 28.1629 12.9798 28.155 12.9818C28.1473 12.9838 28.1395 12.9857 28.1317 12.9874C28.1239 12.9891 28.1161 12.9906 28.1083 12.992L28.1026 12.993C28.0981 12.9938 28.092 12.9947 28.0849 12.9956C28.078 12.9965 28.0701 12.9974 28.0616 12.9982C28.0542 12.999 28.0463 12.9997 28.0382 13.0004C28.0305 13.001 28.0227 13.0016 28.0148 13.0021C28.007 13.0026 27.9991 13.003 27.9915 13.0033C27.9834 13.0037 27.9755 13.0039 27.9681 13.0039L27.9644 13.0039H27.9447H27.9214H27.898H27.8746H27.8513H27.8279H27.8045H27.7812H27.7578H27.7344H27.7111H27.6877H27.6643H27.641H27.6176H27.5942H27.5709H27.5475H27.5241H27.5008H27.4774H27.454H27.4307H27.4073H27.3839H27.3606H27.3372H27.3139H27.2905H27.2671H27.2438H27.2204H27.197H27.1737H27.1503H27.1269H27.1036H27.0802H27.0568H27.0335H27.0101H26.9867H26.9634H26.94H26.9167H26.8933H26.8699H26.8466H26.8232H26.7998H26.7765H26.7531H26.7297H26.7064H26.6941V11.8252H26.7064H26.7297H26.7531H26.7765H26.7998H26.8232H26.8466H26.8699H26.8933H26.9167H26.94H26.9634H26.9867H27.0101H27.0335H27.0568H27.0802H27.1036H27.1269H27.1503H27.1737H27.197H27.2204H27.2438H27.2671H27.2905H27.3139H27.3372H27.3606H27.3839H27.4073H27.4307H27.454H27.4774H27.5008H27.5241H27.5475H27.5709H27.5942H27.6176H27.641H27.6643H27.6877H27.7111H27.7344H27.7578H27.7812H27.8045H27.8279H27.8513H27.8746H27.898H27.9214H27.9447H27.9681H27.9779L27.9915 11.8256C27.9991 11.8259 28.007 11.8264 28.0148 11.8269C28.0227 11.8274 28.0305 11.828 28.0382 11.8286C28.0463 11.8292 28.0542 11.83 28.0616 11.8307C28.0701 11.8315 28.078 11.8324 28.0849 11.8332C28.092 11.834 28.0981 11.8347 28.1026 11.8354L28.1083 11.8364C28.1161 11.8378 28.1239 11.8394 28.1317 11.8411C28.1395 11.8428 28.1473 11.8447 28.155 11.8468C28.1629 11.8488 28.1707 11.851 28.1784 11.8534C28.1862 11.8558 28.194 11.8583 28.2018 11.861C28.2096 11.8638 28.2174 11.8667 28.2251 11.8697C28.233 11.8729 28.2408 11.8762 28.2485 11.8796C28.2563 11.8831 28.2641 11.8868 28.2719 11.8906C28.2797 11.8945 28.2875 11.8986 28.2952 11.9029C28.3031 11.9073 28.3109 11.9118 28.3186 11.9166C28.3265 11.9214 28.3343 11.9265 28.342 11.9317C28.3499 11.9371 28.3577 11.9428 28.3653 11.9486C28.3733 11.9546 28.381 11.9608 28.3887 11.9673C28.3967 11.974 28.4044 11.9809 28.4121 11.9881C28.4201 11.9957 28.4278 12.0034 28.4354 12.0114C28.4435 12.02 28.4512 12.0288 28.4588 12.0378C28.4669 12.0476 28.4747 12.0576 28.4821 12.068C28.4903 12.0793 28.4981 12.091 28.5055 12.1031C28.5138 12.1167 28.5216 12.1308 28.5289 12.1453C28.5375 12.1626 28.5453 12.1805 28.5522 12.1991C28.5617 12.2244 28.5696 12.2509 28.5756 12.2785ZM31.4734 6.16602H31.483L31.483 18.2725C31.483 18.3448 31.4796 18.4164 31.4734 18.4871C31.4679 18.5493 31.4601 18.6109 31.45 18.6717C31.4432 18.7125 31.4354 18.753 31.4266 18.7931C31.4195 18.8258 31.4117 18.8582 31.4033 18.8903C31.396 18.9181 31.3882 18.9456 31.3799 18.9729C31.3724 18.9976 31.3647 19.0222 31.3565 19.0466C31.3491 19.0687 31.3412 19.0907 31.3332 19.1125C31.3257 19.1328 31.3178 19.153 31.3098 19.1731C31.3022 19.1919 31.2944 19.2106 31.2864 19.2292C31.2788 19.2469 31.271 19.2644 31.263 19.2818C31.2554 19.2984 31.2477 19.3149 31.2397 19.3312C31.232 19.3469 31.2243 19.3626 31.2163 19.3781C31.2087 19.3929 31.2009 19.4077 31.1929 19.4224C31.1853 19.4365 31.1775 19.4505 31.1696 19.4644C31.1619 19.4779 31.1541 19.4913 31.1462 19.5046C31.1385 19.5176 31.1307 19.5305 31.1228 19.5433C31.1151 19.5558 31.1074 19.5683 31.0995 19.5806C31.0918 19.5925 31.0839 19.6044 31.0761 19.6162C31.0684 19.6276 31.0606 19.639 31.0527 19.6503C31.045 19.6615 31.0372 19.6726 31.0293 19.6836C31.0216 19.6943 31.0139 19.705 31.006 19.7156C30.9983 19.726 30.9904 19.7362 30.9826 19.7464C30.9749 19.7564 30.9671 19.7665 30.9592 19.7764C30.9515 19.7861 30.9437 19.7958 30.9359 19.8054C30.9281 19.8148 30.9203 19.8241 30.9125 19.8334C30.9047 19.8426 30.897 19.8518 30.8891 19.8609C30.8814 19.8697 30.8736 19.8784 30.8658 19.8872C30.858 19.8958 30.8502 19.9044 30.8424 19.9129C30.8346 19.9213 30.8269 19.9297 30.819 19.938C30.8113 19.9461 30.8035 19.9541 30.7956 19.9622C30.7879 19.9702 30.7801 19.9782 30.7723 19.986C30.7645 19.9937 30.7567 20.0013 30.7489 20.0089C30.7411 20.0164 30.7334 20.0239 30.7255 20.0314C30.7178 20.0387 30.71 20.0459 30.7022 20.0531C30.6944 20.0603 30.6866 20.0674 30.6788 20.0744C30.671 20.0814 30.6633 20.0883 30.6554 20.0951C30.6477 20.1019 30.6399 20.1086 30.632 20.1153C30.6243 20.1219 30.6165 20.1285 30.6087 20.135C30.601 20.1415 30.5931 20.1478 30.5853 20.1541C30.5775 20.1604 30.5698 20.1667 30.5619 20.173C30.5542 20.1791 30.5464 20.1851 30.5386 20.1911C30.5308 20.1971 30.523 20.2031 30.5152 20.209C30.5075 20.2148 30.4996 20.2205 30.4918 20.2262C30.484 20.2319 30.4763 20.2377 30.4684 20.2433C30.4607 20.2488 30.4529 20.2542 30.4451 20.2597C30.4373 20.2651 30.4295 20.2705 30.4217 20.2759C30.414 20.2811 30.4062 20.2863 30.3983 20.2915C30.3906 20.2966 30.3828 20.3018 30.375 20.3069C30.3672 20.3119 30.3594 20.3168 30.3516 20.3217C30.3438 20.3266 30.3361 20.3315 30.3282 20.3363C30.3205 20.3411 30.3127 20.3458 30.3049 20.3505L30.2815 20.3643C30.2737 20.3688 30.266 20.3734 30.2581 20.3778C30.2504 20.3822 30.2426 20.3866 30.2347 20.3909C30.227 20.3952 30.2192 20.3996 30.2114 20.4038C30.2036 20.408 30.1958 20.412 30.188 20.4161C30.1802 20.4202 30.1725 20.4245 30.1646 20.4285C30.1569 20.4325 30.1491 20.4362 30.1413 20.4401C30.1335 20.444 30.1257 20.4479 30.1179 20.4517C30.1101 20.4555 30.1023 20.4592 30.0945 20.4628L30.0712 20.4738L30.0478 20.4844C30.04 20.4878 30.0322 20.4912 30.0244 20.4946C30.0166 20.498 30.0089 20.5014 30.0011 20.5047C29.9933 20.508 29.9855 20.5111 29.9777 20.5143C29.9699 20.5174 29.9621 20.5207 29.9543 20.5238C29.9465 20.5269 29.9387 20.5298 29.9309 20.5328C29.9232 20.5358 29.9154 20.5388 29.9076 20.5417L29.8842 20.5503C29.8764 20.5531 29.8686 20.5558 29.8608 20.5585C29.853 20.5613 29.8453 20.5641 29.8375 20.5668C29.8297 20.5694 29.8219 20.5718 29.8141 20.5744L29.7907 20.5819C29.7829 20.5844 29.7751 20.5868 29.7673 20.5891L29.744 20.5961C29.7362 20.5984 29.7284 20.6007 29.7206 20.6029C29.7128 20.6051 29.705 20.6071 29.6972 20.6093C29.6895 20.6114 29.6817 20.6135 29.6739 20.6156L29.6505 20.6215L29.6271 20.6272L29.6038 20.6327C29.596 20.6345 29.5882 20.6361 29.5804 20.6378C29.5726 20.6395 29.5648 20.6413 29.557 20.6429L29.5336 20.6476L29.5103 20.6521C29.5025 20.6535 29.4947 20.6551 29.4869 20.6565C29.4791 20.6578 29.4713 20.659 29.4635 20.6603L29.4402 20.6642L29.4168 20.6677L29.3934 20.671C29.3856 20.6721 29.3779 20.6733 29.37 20.6743C29.3623 20.6753 29.3545 20.676 29.3467 20.6769C29.3389 20.6778 29.3311 20.6788 29.3233 20.6796C29.3155 20.6804 29.3078 20.6813 29.2999 20.6821C29.2922 20.6828 29.2844 20.6834 29.2766 20.6841C29.2688 20.6848 29.261 20.6856 29.2532 20.6862C29.2454 20.6868 29.2376 20.6873 29.2298 20.6878L29.2064 20.6893C29.1987 20.6898 29.1909 20.6903 29.1831 20.6907C29.1753 20.6911 29.1675 20.6913 29.1597 20.6916L29.1363 20.6925L29.113 20.6931C29.1052 20.6933 29.0974 20.6933 29.0896 20.6934L29.0662 20.6937L29.0614 20.6938H29.0429H29.0195H28.9961H28.9728H28.9494H28.926H28.9026H28.8793H28.8559H28.8325H28.8092H28.7858H28.7624H28.7391H28.7157H28.6923H28.6689H28.6456H28.6222H28.5988H28.5755H28.5521H28.5287H28.5053H28.482H28.4586H28.4352H28.4119H28.3885H28.3651H28.3417H28.3184H28.295H28.2716H28.2483H28.2249H28.2015H28.1782H28.1548H28.1314H28.108H28.0847H28.0613H28.0379H28.0146H27.9912H27.9678H27.9445H27.9211H27.8977H27.8744H27.851H27.8276H27.8042H27.7809H27.7575H27.7341H27.7108H27.6874H27.664H27.6406H27.6173H27.5939H27.5705H27.5472H27.5238H27.5004H27.477H27.4537H27.4303H27.4069H27.3836H27.3602H27.3368H27.3135H27.2901H27.2667H27.2433H27.22H27.1966H27.1732H27.1499H27.1265H27.1031H27.0797H27.0564H27.033H27.0096H26.9863H26.9629H26.9395H26.9162H26.8928H26.8694H26.846H26.8227H26.7993H26.7759H26.7526H26.7292H26.7058H26.6825H26.6591H26.6357H26.6124H26.589H26.5656H26.5422H26.5189H26.4955H26.4721H26.4488H26.4254H26.402H26.3786H26.3553H26.3319H26.3085H26.2852H26.2618H26.2384H26.215H26.1917H26.1683H26.1449H26.1216H26.0982H26.0748H26.0515H26.0281H26.0047H25.9813H25.958H25.9346H25.9112H25.8879H25.8645H25.8411H25.8177H25.7944H25.771H25.7476H25.7243H25.7009H25.6775H25.6542H25.6308H25.6074H25.5841H25.5607H25.5103V15.7575H25.5607H25.5841H25.6074H25.6308H25.6542H25.6775H25.7009H25.7243H25.7476H25.771H25.7944H25.8177H25.8411H25.8645H25.8879H25.9112H25.9346H25.958H25.9813H26.0047H26.0281H26.0515H26.0748H26.0982H26.1216H26.1449H26.1683H26.1917H26.215H26.2384H26.2618H26.2852H26.3085H26.3319H26.3553H26.3786H26.402H26.4254H26.4488H26.4721H26.4955H26.5189H26.5422H26.5656H26.589H26.6124H26.6357H26.6591H26.6825H26.7058H26.7292H26.7526H26.7759H26.7993H26.8227H26.846H26.8694H26.8928H26.9162H26.9395H26.9629H26.9863H27.0096H27.033H27.0564H27.0797H27.1031H27.1265H27.1499H27.1732H27.1966H27.22H27.2433H27.2667H27.2901H27.3135H27.3368H27.3602H27.3836H27.4069H27.4303H27.4537H27.477H27.5004H27.5238H27.5472H27.5705H27.5939H27.6173H27.6406H27.664H27.6874H27.7108H27.7341H27.7575H27.7809H27.8042H27.8276H27.851H27.8744H27.8977H27.9211H27.9445H27.9678H27.9912H28.0146H28.0379H28.0613H28.0847H28.108H28.1314H28.1548H28.1782H28.2015H28.2249H28.2483H28.2716H28.295H28.3184H28.3417H28.3651H28.3885H28.4119H28.4352H28.4586H28.482H28.5053H28.5287H28.5521H28.5755H28.5988H28.6222H28.6456H28.6689H28.6923H28.7157H28.7391H28.7624H28.7858H28.8092H28.8325H28.8559H28.8793H28.9026H28.926H28.9494H28.9728H28.9961H29.0195H29.0429H29.0662H29.0896H29.113H29.1363H29.1597H29.1831H29.2064H29.2298H29.2532H29.2656L29.2766 15.7574L29.2999 15.7572L29.3233 15.7568C29.3311 15.7566 29.3389 15.7564 29.3467 15.7562C29.3545 15.7559 29.3623 15.7555 29.37 15.7552L29.3934 15.7541L29.4168 15.7527L29.4402 15.7511L29.4635 15.7493L29.4869 15.7471C29.4947 15.7464 29.5025 15.7457 29.5103 15.7448C29.5181 15.744 29.5259 15.7431 29.5336 15.7422L29.557 15.7393C29.5648 15.7383 29.5726 15.7374 29.5804 15.7363C29.5882 15.7352 29.596 15.734 29.6038 15.7328C29.6116 15.7316 29.6194 15.7305 29.6271 15.7292L29.6505 15.7253L29.6739 15.7211C29.6817 15.7196 29.6895 15.7182 29.6972 15.7167C29.7051 15.7151 29.7128 15.7135 29.7206 15.7119L29.744 15.7068C29.7518 15.7051 29.7596 15.7033 29.7673 15.7015C29.7752 15.6996 29.7829 15.6977 29.7907 15.6958C29.7985 15.6938 29.8063 15.6918 29.8141 15.6898C29.8219 15.6878 29.8297 15.6857 29.8375 15.6835C29.8453 15.6814 29.853 15.6791 29.8608 15.6769C29.8686 15.6746 29.8764 15.6723 29.8842 15.6699L29.9076 15.6626C29.9154 15.6601 29.9232 15.6575 29.9309 15.6549C29.9388 15.6523 29.9466 15.6496 29.9543 15.6469C29.9621 15.6442 29.9699 15.6414 29.9777 15.6386C29.9855 15.6357 29.9933 15.6326 30.0011 15.6297C30.0089 15.6266 30.0167 15.6236 30.0244 15.6205C30.0322 15.6173 30.0401 15.6142 30.0478 15.6109C30.0556 15.6076 30.0634 15.6043 30.0712 15.6008C30.079 15.5974 30.0868 15.5939 30.0945 15.5903C30.1024 15.5867 30.1102 15.5831 30.1179 15.5794C30.1257 15.5756 30.1335 15.5719 30.1413 15.568C30.1491 15.5641 30.1569 15.5601 30.1646 15.556C30.1725 15.552 30.1803 15.5478 30.188 15.5435C30.1959 15.5392 30.2037 15.5349 30.2114 15.5305C30.2192 15.5261 30.227 15.5216 30.2347 15.517C30.2426 15.5123 30.2504 15.5076 30.2581 15.5029C30.266 15.498 30.2738 15.493 30.2815 15.488C30.2894 15.4829 30.2971 15.4777 30.3049 15.4724C30.3127 15.4671 30.3205 15.4617 30.3282 15.4562C30.3361 15.4506 30.3439 15.4449 30.3516 15.4392C30.3595 15.4334 30.3673 15.4274 30.375 15.4214C30.3828 15.4153 30.3907 15.4091 30.3983 15.4028C30.4062 15.3963 30.414 15.3898 30.4217 15.3832C30.4296 15.3764 30.4374 15.3695 30.4451 15.3626C30.453 15.3554 30.4608 15.3481 30.4684 15.3408C30.4764 15.3333 30.4842 15.3256 30.4918 15.3179C30.4998 15.3099 30.5075 15.3018 30.5152 15.2935C30.5231 15.2851 30.5309 15.2764 30.5386 15.2677C30.5465 15.2587 30.5543 15.2495 30.5619 15.2403C30.5699 15.2306 30.5777 15.2208 30.5853 15.2109C30.5933 15.2005 30.6011 15.1901 30.6087 15.1795C30.6167 15.1682 30.6244 15.1567 30.632 15.1451C30.6401 15.1328 30.6479 15.1204 30.6554 15.1078C30.6635 15.0942 30.6713 15.0805 30.6788 15.0666C30.6869 15.0515 30.6948 15.0362 30.7022 15.0206C30.7104 15.0032 30.7182 14.9856 30.7255 14.9677C30.7339 14.9472 30.7418 14.9264 30.7489 14.9052C30.7577 14.8791 30.7654 14.8524 30.7723 14.8253C30.7822 14.7857 30.7901 14.7451 30.7956 14.7034C30.8024 14.6529 30.806 14.6009 30.806 14.5476C30.806 14.4956 30.8025 14.4451 30.7956 14.3961C30.79 14.3558 30.7822 14.3166 30.7723 14.2784C30.7655 14.2523 30.7577 14.2268 30.7489 14.2017C30.7417 14.1811 30.7339 14.1609 30.7255 14.141C30.7182 14.1238 30.7104 14.1068 30.7022 14.0901C30.6947 14.0751 30.6869 14.0603 30.6788 14.0457C30.6713 14.0322 30.6635 14.0189 30.6554 14.0059C30.6479 13.9937 30.6401 13.9817 30.632 13.9699C30.6245 13.9588 30.6167 13.9477 30.6087 13.9368C30.6011 13.9266 30.5933 13.9165 30.5853 13.9065C30.5777 13.8969 30.5699 13.8875 30.5619 13.8781C30.5543 13.8692 30.5465 13.8603 30.5386 13.8516C30.5309 13.8432 30.5231 13.8349 30.5152 13.8267C30.5076 13.8188 30.4997 13.811 30.4918 13.8033C30.4842 13.7958 30.4763 13.7884 30.4684 13.7811C30.4608 13.7741 30.453 13.7671 30.4451 13.7602C30.4374 13.7535 30.4296 13.7468 30.4217 13.7403C30.414 13.7339 30.4062 13.7276 30.3983 13.7213C30.3906 13.7153 30.3828 13.7092 30.375 13.7033C30.3673 13.6975 30.3595 13.6918 30.3516 13.6861C30.3439 13.6806 30.3361 13.6751 30.3282 13.6697C30.3205 13.6644 30.3127 13.6591 30.3049 13.654C30.2971 13.6489 30.2894 13.6439 30.2815 13.6389C30.2738 13.6341 30.266 13.6293 30.2581 13.6246C30.2504 13.6199 30.2426 13.6154 30.2347 13.6109C30.227 13.6064 30.2192 13.602 30.2114 13.5977C30.2037 13.5935 30.1959 13.5893 30.188 13.5852C30.1803 13.5811 30.1725 13.577 30.1646 13.573C30.1569 13.5691 30.1491 13.5652 30.1413 13.5614C30.1335 13.5577 30.1258 13.5539 30.1179 13.5503C30.1102 13.5467 30.1024 13.5432 30.0945 13.5397C30.0868 13.5362 30.079 13.5328 30.0712 13.5295C30.0634 13.5262 30.0556 13.5229 30.0478 13.5197C30.04 13.5165 30.0323 13.5133 30.0244 13.5103C30.0167 13.5072 30.0089 13.5042 30.0011 13.5013C29.9933 13.4984 29.9855 13.4956 29.9777 13.4927C29.9699 13.4899 29.9621 13.4872 29.9543 13.4845C29.9465 13.4819 29.9388 13.4792 29.9309 13.4766C29.9232 13.474 29.9154 13.4715 29.9076 13.4691C29.8998 13.4666 29.892 13.4643 29.8842 13.4619L29.8608 13.4551C29.853 13.4529 29.8453 13.4506 29.8375 13.4485C29.8297 13.4464 29.8219 13.4444 29.8141 13.4423C29.8063 13.4403 29.7985 13.4384 29.7907 13.4364C29.7829 13.4345 29.7752 13.4326 29.7673 13.4308C29.7596 13.429 29.7518 13.4272 29.744 13.4255C29.7362 13.4238 29.7284 13.4221 29.7206 13.4205C29.7128 13.4189 29.7051 13.4173 29.6972 13.4157L29.6739 13.4112L29.6505 13.4071C29.6427 13.4057 29.6349 13.4044 29.6271 13.4031L29.6038 13.3994C29.596 13.3983 29.5882 13.3971 29.5804 13.3961L29.557 13.3929L29.5336 13.3899L29.5103 13.3873L29.4869 13.3848L29.4635 13.3827L29.4402 13.3807L29.4186 13.379L29.4186 13.351L29.4402 13.3477L29.4635 13.3438C29.4713 13.3425 29.4792 13.3412 29.4869 13.3397L29.5103 13.3352C29.5181 13.3337 29.5259 13.3321 29.5336 13.3304L29.557 13.3253C29.5648 13.3236 29.5727 13.3218 29.5804 13.3199C29.5882 13.318 29.596 13.3161 29.6038 13.3141C29.6116 13.3121 29.6194 13.31 29.6271 13.3079C29.6349 13.3058 29.6428 13.3036 29.6505 13.3014C29.6583 13.2991 29.6661 13.2969 29.6739 13.2945C29.6817 13.2922 29.6895 13.2897 29.6972 13.2872C29.7051 13.2847 29.7128 13.2821 29.7206 13.2795C29.7285 13.2769 29.7362 13.2741 29.744 13.2714C29.7518 13.2686 29.7596 13.2658 29.7673 13.2629C29.7752 13.2599 29.783 13.2569 29.7907 13.2539C29.7986 13.2508 29.8063 13.2477 29.8141 13.2445C29.8219 13.2412 29.8297 13.2379 29.8375 13.2345C29.8453 13.2311 29.8531 13.2276 29.8608 13.2241C29.8687 13.2205 29.8765 13.2168 29.8842 13.2131C29.8921 13.2093 29.8998 13.2055 29.9076 13.2016C29.9154 13.1976 29.9232 13.1936 29.9309 13.1895C29.9388 13.1853 29.9466 13.1811 29.9543 13.1768C29.9622 13.1724 29.97 13.168 29.9777 13.1635C29.9855 13.1589 29.9933 13.1542 30.0011 13.1495C30.0089 13.1447 30.0167 13.1398 30.0244 13.1348C30.0323 13.1298 30.0401 13.1246 30.0478 13.1194C30.0557 13.1141 30.0635 13.1087 30.0712 13.1032C30.0791 13.0976 30.0868 13.0919 30.0945 13.0861C30.1024 13.0802 30.1102 13.0743 30.1179 13.0682C30.1258 13.062 30.1336 13.0557 30.1413 13.0493C30.1492 13.0427 30.157 13.036 30.1646 13.0293C30.1726 13.0223 30.1803 13.0152 30.188 13.0081C30.1959 13.0007 30.2037 12.9932 30.2114 12.9857C30.2193 12.9779 30.2271 12.9699 30.2347 12.9619C30.2427 12.9536 30.2505 12.9451 30.2581 12.9366C30.2661 12.9277 30.2739 12.9186 30.2815 12.9095C30.2895 12.8999 30.2973 12.8903 30.3049 12.8805C30.3129 12.8702 30.3207 12.8597 30.3282 12.8491C30.3363 12.8379 30.3441 12.8266 30.3516 12.8151C30.3597 12.8028 30.3675 12.7905 30.375 12.778C30.3831 12.7644 30.3909 12.7506 30.3983 12.7368C30.4065 12.7215 30.4143 12.706 30.4217 12.6904C30.43 12.6728 30.4378 12.655 30.4451 12.6369C30.4536 12.6159 30.4614 12.5947 30.4684 12.5731C30.4774 12.546 30.4852 12.5185 30.4918 12.4906C30.5026 12.4453 30.5104 12.3991 30.5152 12.3521C30.519 12.3151 30.521 12.2775 30.521 12.2395C30.521 12.1995 30.519 12.1604 30.5152 12.1223C30.5104 12.0736 30.5025 12.0266 30.4918 11.9812C30.4851 11.9528 30.4773 11.9251 30.4684 11.898C30.4613 11.8764 30.4535 11.8552 30.4451 11.8344C30.4378 11.8165 30.43 11.7989 30.4217 11.7816C30.4143 11.7662 30.4065 11.751 30.3983 11.7361C30.3909 11.7224 30.3831 11.709 30.375 11.6957C30.3674 11.6834 30.3597 11.6713 30.3516 11.6594C30.3441 11.6482 30.3362 11.6372 30.3282 11.6264C30.3207 11.6161 30.3129 11.606 30.3049 11.596C30.2972 11.5865 30.2895 11.577 30.2815 11.5678C30.2739 11.5589 30.2661 11.5503 30.2581 11.5417C30.2505 11.5335 30.2427 11.5253 30.2347 11.5173C30.2271 11.5095 30.2193 11.5019 30.2114 11.4944C30.2037 11.4871 30.1959 11.4798 30.188 11.4727C30.1803 11.4659 30.1725 11.4591 30.1646 11.4524C30.1569 11.4459 30.1492 11.4394 30.1413 11.4331C30.1336 11.4269 30.1258 11.4208 30.1179 11.4148C30.1102 11.409 30.1024 11.4032 30.0945 11.3976C30.0868 11.392 30.079 11.3865 30.0712 11.3811C30.0634 11.3759 30.0557 11.3707 30.0478 11.3656C30.0401 11.3605 30.0323 11.3556 30.0244 11.3507C30.0167 11.3459 30.0089 11.3412 30.0011 11.3365C29.9933 11.332 29.9855 11.3275 29.9777 11.323C29.97 11.3187 29.9622 11.3144 29.9543 11.3102C29.9466 11.306 29.9388 11.3019 29.9309 11.2979C29.9232 11.2939 29.9154 11.29 29.9076 11.2861C29.8998 11.2823 29.8921 11.2786 29.8842 11.2749C29.8765 11.2713 29.8687 11.2677 29.8608 11.2642C29.8531 11.2608 29.8453 11.2574 29.8375 11.2541C29.8297 11.2508 29.8219 11.2476 29.8141 11.2444C29.8063 11.2412 29.7985 11.2381 29.7907 11.2351C29.783 11.2321 29.7752 11.2291 29.7673 11.2262C29.7596 11.2233 29.7518 11.2205 29.744 11.2177C29.7362 11.215 29.7284 11.2124 29.7206 11.2097C29.7128 11.2071 29.7051 11.2046 29.6972 11.2021C29.6895 11.1996 29.6817 11.1972 29.6739 11.1948C29.6661 11.1924 29.6583 11.1901 29.6505 11.1878C29.6428 11.1856 29.6349 11.1834 29.6271 11.1813C29.6194 11.1792 29.6116 11.1771 29.6038 11.1751L29.5804 11.1691C29.5726 11.1672 29.5648 11.1653 29.557 11.1635C29.5493 11.1617 29.5415 11.16 29.5336 11.1583L29.5103 11.1533C29.5025 11.1517 29.4947 11.15 29.4869 11.1485C29.4792 11.147 29.4713 11.1456 29.4635 11.1442L29.4402 11.1401C29.4324 11.1388 29.4246 11.1374 29.4168 11.1362L29.3934 11.1327L29.37 11.1294L29.3467 11.1263L29.3233 11.1235L29.2999 11.121L29.2766 11.1186L29.2532 11.1166L29.2298 11.1148L29.2064 11.1131L29.1831 11.1118L29.1738 11.1112L29.1597 11.1104L29.1363 11.109L29.113 11.1077L29.0896 11.1065L29.0662 11.1054L29.0429 11.1044L29.0195 11.1035L28.9961 11.1028L28.9728 11.1023L28.9494 11.1019L28.9365 11.1019H28.926H28.9026H28.8793H28.8559H28.8325H28.8092H28.7858H28.7624H28.7391H28.7157H28.6923H28.6689H28.6456H28.6222H28.5988H28.5755H28.5521H28.5287H28.5053H28.482H28.4586H28.4352H28.4119H28.3885H28.3651H28.3417H28.3184H28.295H28.2716H28.2483H28.2249H28.2015H28.1782H28.1548H28.1314H28.108H28.0847H28.0613H28.0379H28.0146H27.9912H27.9678H27.9445H27.9211H27.8977H27.8744H27.851H27.8276H27.8042H27.7809H27.7575H27.7341H27.7108H27.6874H27.664H27.6406H27.6173H27.5939H27.5705H27.5472H27.5238H27.5004H27.477H27.4537H27.4303H27.4069H27.3836H27.3602H27.3368H27.3135H27.2901H27.2667H27.2433H27.22H27.1966H27.1732H27.1499H27.1265H27.1031H27.0797H27.0564H27.033H27.0096H26.9863H26.9629H26.9395H26.9162H26.8928H26.8694H26.846H26.8227H26.7993H26.7759H26.7526H26.7292H26.7058H26.6825H26.6591H26.6357H26.6124H26.589H26.5656H26.5422H26.5189H26.4955H26.4721H26.4488H26.4254H26.402H26.3786H26.3553H26.3319H26.3085H26.2852H26.2618H26.2384H26.215H26.1917H26.1683H26.1449H26.1216H26.0982H26.0748H26.0515H26.0281H26.0047H25.9813H25.958H25.9346H25.9112H25.8879H25.8645H25.8411H25.8177H25.7944H25.771H25.7476H25.7243H25.7009H25.6775H25.6542H25.6308H25.6074H25.5841H25.5607H25.5103V8.5875C25.5103 8.41835 25.5277 8.25328 25.5607 8.09391C25.5678 8.05978 25.5756 8.02594 25.5841 7.99237C25.5913 7.96364 25.5991 7.93513 25.6074 7.90683C25.6148 7.88156 25.6226 7.85645 25.6308 7.83152C25.6383 7.80874 25.646 7.78608 25.6542 7.76361C25.6617 7.74277 25.6694 7.72205 25.6775 7.70147C25.6851 7.68226 25.6929 7.66314 25.7009 7.64418C25.7085 7.62628 25.7163 7.60846 25.7243 7.59078C25.7319 7.57398 25.7397 7.55731 25.7476 7.54073C25.7552 7.5249 25.7631 7.50919 25.771 7.49356C25.7786 7.47853 25.7865 7.46361 25.7944 7.44876C25.802 7.43444 25.8098 7.42023 25.8177 7.40609C25.8254 7.39237 25.8332 7.37877 25.8411 7.36524C25.8488 7.3521 25.8566 7.33903 25.8645 7.32607C25.8722 7.3135 25.88 7.30102 25.8879 7.28861C25.8955 7.27658 25.9034 7.26467 25.9112 7.25279C25.9189 7.24117 25.9267 7.22959 25.9346 7.2181C25.9423 7.20685 25.95 7.1956 25.958 7.18448C25.9657 7.17371 25.9735 7.16307 25.9813 7.15244C25.989 7.14198 25.9969 7.1316 26.0047 7.12127C26.0125 7.1111 26.0202 7.1009 26.0281 7.09086C26.0358 7.0811 26.0436 7.07149 26.0515 7.06185C26.0592 7.05234 26.067 7.0429 26.0748 7.03353C26.0826 7.02427 26.0903 7.01501 26.0982 7.00587C26.1059 6.99696 26.1137 6.9882 26.1216 6.97941C26.1293 6.97069 26.1371 6.96196 26.1449 6.95336C26.1527 6.94493 26.1605 6.93658 26.1683 6.92825C26.176 6.92004 26.1838 6.91189 26.1917 6.90377C26.1994 6.89577 26.2072 6.88777 26.215 6.87987C26.2228 6.8721 26.2306 6.86445 26.2384 6.8568C26.2462 6.84919 26.2539 6.8415 26.2618 6.834C26.2695 6.82666 26.2774 6.81949 26.2852 6.81225C26.2929 6.80504 26.3007 6.79782 26.3085 6.79071C26.3163 6.78372 26.3241 6.77686 26.3319 6.76998C26.3397 6.76315 26.3474 6.75631 26.3553 6.74957C26.363 6.74292 26.3708 6.73638 26.3786 6.72983C26.3864 6.72334 26.3942 6.71687 26.402 6.71048C26.4098 6.70415 26.4176 6.69789 26.4254 6.69167L26.4488 6.67329L26.4721 6.65539C26.4799 6.64952 26.4877 6.64369 26.4955 6.63792C26.5032 6.63221 26.511 6.62651 26.5189 6.62088L26.5422 6.60428C26.55 6.59883 26.5578 6.59343 26.5656 6.58808L26.589 6.57226L26.6124 6.55686C26.6201 6.5518 26.6279 6.54677 26.6357 6.54181L26.6591 6.5272C26.6669 6.52238 26.6746 6.51756 26.6825 6.51283C26.6902 6.50814 26.698 6.50359 26.7058 6.499C26.7136 6.49441 26.7213 6.48978 26.7292 6.48529C26.7369 6.48085 26.7448 6.47657 26.7526 6.47221C26.7604 6.46785 26.7681 6.46342 26.7759 6.45916C26.7837 6.45495 26.7915 6.45089 26.7993 6.44676C26.8071 6.44263 26.8148 6.43849 26.8227 6.43444C26.8304 6.43043 26.8382 6.42654 26.846 6.42263C26.8538 6.41873 26.8616 6.41482 26.8694 6.411L26.8928 6.39971C26.9006 6.39601 26.9084 6.39241 26.9162 6.38879C26.924 6.38518 26.9317 6.38152 26.9395 6.378C26.9473 6.37451 26.9551 6.37118 26.9629 6.36777C26.9707 6.36436 26.9784 6.36089 26.9863 6.35756C26.994 6.35427 27.0019 6.35113 27.0096 6.34792C27.0174 6.34472 27.0252 6.34149 27.033 6.33837L27.0564 6.32917L27.0797 6.32028C27.0876 6.31733 27.0953 6.31435 27.1031 6.3115C27.1109 6.30867 27.1187 6.30602 27.1265 6.30327C27.1343 6.30052 27.142 6.29771 27.1499 6.29504C27.1576 6.29238 27.1654 6.28989 27.1732 6.28731L27.1966 6.27974C27.2044 6.27726 27.2122 6.27476 27.22 6.27236C27.2277 6.26997 27.2356 6.26773 27.2433 6.26542C27.2511 6.2631 27.2589 6.26069 27.2667 6.25847C27.2745 6.25626 27.2823 6.25421 27.2901 6.25208C27.2979 6.24994 27.3056 6.24779 27.3135 6.24574L27.3368 6.2397C27.3446 6.23774 27.3524 6.23588 27.3602 6.234C27.368 6.23212 27.3757 6.23011 27.3836 6.22831C27.3913 6.22653 27.3992 6.2249 27.4069 6.22318L27.4303 6.21808L27.4537 6.21326C27.4614 6.21171 27.4693 6.21026 27.477 6.20878C27.4848 6.20729 27.4926 6.2057 27.5004 6.20429C27.5082 6.20288 27.516 6.20168 27.5238 6.20036L27.5472 6.19648C27.5549 6.19524 27.5627 6.19397 27.5705 6.1928C27.5783 6.19164 27.5861 6.19062 27.5939 6.18953C27.6017 6.18845 27.6094 6.18726 27.6173 6.18626C27.625 6.18525 27.6328 6.18436 27.6406 6.18343L27.664 6.18076C27.6718 6.1799 27.6796 6.17895 27.6874 6.17818C27.6951 6.17741 27.703 6.1768 27.7108 6.17611L27.7341 6.17403L27.7575 6.17227C27.7653 6.17171 27.7731 6.17126 27.7809 6.17078C27.7886 6.17032 27.7964 6.16972 27.8042 6.16931C27.812 6.1689 27.8198 6.16867 27.8276 6.16834L27.851 6.16747C27.8588 6.16722 27.8665 6.16689 27.8744 6.16671C27.8821 6.16654 27.8899 6.16652 27.8977 6.1664C27.9055 6.16629 27.9133 6.16615 27.9211 6.16611L27.927 6.16604H27.9445H27.9678H27.9912H28.0146H28.0379H28.0613H28.0847H28.108H28.1314H28.1548H28.1782H28.2015H28.2249H28.2483H28.2716H28.295H28.3184H28.3417H28.3651H28.3885H28.4119H28.4352H28.4586H28.482H28.5053H28.5287H28.5521H28.5755H28.5988H28.6222H28.6456H28.6689H28.6923H28.7157H28.7391H28.7624H28.7858H28.8092H28.8325H28.8559H28.8793H28.9026H28.926H28.9494H28.9728H28.9961H29.0195H29.0429H29.0662H29.0896H29.113H29.1363H29.1597H29.1831H29.2064H29.2298H29.2532H29.2766H29.2999H29.3233H29.3467H29.37H29.3934H29.4168H29.4402H29.4635H29.4869H29.5103H29.5336H29.557H29.5804H29.6038H29.6271H29.6505H29.6739H29.6972H29.7206H29.744H29.7673H29.7907H29.8141H29.8375H29.8608H29.8842H29.9076H29.9309H29.9543H29.9777H30.0011H30.0244H30.0478H30.0712H30.0945H30.1179H30.1413H30.1646H30.188H30.2114H30.2347H30.2581H30.2815H30.3049H30.3282H30.3516H30.375H30.3983H30.4217H30.4451H30.4684H30.4918H30.5152H30.5386H30.5619H30.5853H30.6087H30.632H30.6554H30.6788H30.7022H30.7255H30.7489H30.7723H30.7956H30.819H30.8424H30.8658H30.8891H30.9125H30.9359H30.9592H30.9826H31.006H31.0293H31.0527H31.0761H31.0995H31.1228H31.1462H31.1696H31.1929H31.2163H31.2397H31.263H31.2864H31.3098H31.3332H31.3565H31.3799H31.4033H31.4266H31.45H31.4734V6.16602Z" fill="url(#paint0_linear_1064_2177)"/>
<path fill-rule="evenodd" clip-rule="evenodd" d="M12.1634 14.5913C12.1467 14.5834 12.13 14.5754 12.1133 14.5673V8.58749C12.1133 8.41881 12.1306 8.25417 12.1634 8.09522C12.1704 8.06109 12.1783 8.02727 12.1867 7.99369C12.194 7.96492 12.2018 7.93639 12.2101 7.90805C12.2174 7.88279 12.2252 7.85773 12.2334 7.83282C12.2409 7.81002 12.2486 7.78732 12.2567 7.76481C12.2642 7.74399 12.272 7.72329 12.28 7.70273C12.2876 7.68352 12.2954 7.66436 12.3034 7.64538C12.3109 7.62748 12.3187 7.6097 12.3267 7.59204C12.3343 7.57524 12.3421 7.55858 12.35 7.542C12.3576 7.52616 12.3654 7.51043 12.3734 7.49478C12.381 7.47975 12.3888 7.46483 12.3967 7.45C12.4043 7.43568 12.4121 7.42147 12.42 7.40733C12.4277 7.39363 12.4354 7.38001 12.4433 7.36649C12.451 7.35336 12.4587 7.34027 12.4667 7.32729C12.4743 7.31474 12.4821 7.30228 12.49 7.28989C12.4976 7.27788 12.5055 7.26595 12.5133 7.25407C12.521 7.24245 12.5288 7.23087 12.5366 7.21938C12.5444 7.20811 12.5521 7.19685 12.56 7.18572C12.5676 7.17497 12.5755 7.16435 12.5833 7.15372C12.591 7.14326 12.5988 7.13288 12.6066 7.12255C12.6144 7.1124 12.6221 7.10217 12.63 7.09214C12.6376 7.0824 12.6455 7.07281 12.6533 7.06318C12.661 7.05367 12.6688 7.0442 12.6766 7.03481C12.6844 7.02557 12.6921 7.01635 12.7 7.00722C12.7076 6.99829 12.7155 6.98952 12.7233 6.98071C12.731 6.97197 12.7387 6.96325 12.7466 6.95465C12.7543 6.94623 12.7621 6.93792 12.7699 6.92961C12.7777 6.92138 12.7854 6.91322 12.7933 6.90511C12.801 6.89711 12.8088 6.88911 12.8166 6.8812C12.8243 6.87344 12.8321 6.86579 12.8399 6.85814C12.8477 6.85052 12.8554 6.84285 12.8633 6.83536C12.8709 6.82802 12.8788 6.82085 12.8866 6.8136C12.8943 6.80638 12.9021 6.79914 12.9099 6.79203C12.9176 6.78505 12.9255 6.77822 12.9332 6.77134C12.941 6.7645 12.9487 6.75765 12.9566 6.7509C12.9643 6.74426 12.9721 6.73773 12.9799 6.73119C12.9876 6.7247 12.9954 6.71821 13.0032 6.71182C13.011 6.7055 13.0188 6.69925 13.0266 6.69301C13.0343 6.68683 13.0421 6.68071 13.0499 6.67463C13.0576 6.6686 13.0654 6.66266 13.0732 6.65673C13.081 6.65086 13.0887 6.64501 13.0965 6.63924L13.1199 6.62223C13.1276 6.61663 13.1354 6.61107 13.1432 6.60557C13.1509 6.60013 13.1587 6.59475 13.1665 6.5894C13.1743 6.58407 13.182 6.57878 13.1899 6.57356C13.1976 6.56838 13.2054 6.56329 13.2132 6.55819C13.2209 6.55314 13.2287 6.54805 13.2365 6.54307C13.2442 6.53815 13.252 6.53334 13.2599 6.5285C13.2676 6.52368 13.2753 6.5188 13.2832 6.51407C13.2909 6.5094 13.2987 6.50487 13.3065 6.50028C13.3143 6.49569 13.322 6.49102 13.3298 6.48651C13.3375 6.48207 13.3454 6.47783 13.3532 6.47347C13.3609 6.46911 13.3687 6.4647 13.3765 6.46042C13.3842 6.45619 13.392 6.45213 13.3998 6.448C13.4076 6.44387 13.4153 6.43973 13.4231 6.43568C13.4309 6.43167 13.4387 6.42774 13.4465 6.42381L13.4698 6.41222C13.4776 6.40841 13.4853 6.40459 13.4931 6.40087C13.5009 6.39717 13.5087 6.39359 13.5165 6.38997C13.5243 6.38635 13.532 6.38265 13.5398 6.37912C13.5475 6.37562 13.5553 6.37232 13.5631 6.36891C13.5709 6.3655 13.5786 6.36204 13.5864 6.35871C13.5942 6.35541 13.602 6.35224 13.6098 6.34902L13.6331 6.33949L13.6564 6.33023L13.6798 6.32136C13.6876 6.31842 13.6953 6.31538 13.7031 6.31251C13.7108 6.30968 13.7187 6.30705 13.7264 6.3043C13.7342 6.30155 13.7419 6.29876 13.7498 6.29608L13.7731 6.28828L13.7964 6.2807C13.8042 6.27822 13.8119 6.27569 13.8197 6.27329C13.8275 6.2709 13.8353 6.26864 13.8431 6.26633C13.8508 6.26401 13.8586 6.26164 13.8664 6.2594C13.8741 6.25717 13.8819 6.2551 13.8897 6.25295L13.9131 6.24661C13.9208 6.24456 13.9286 6.24247 13.9364 6.24049C13.9441 6.23852 13.9519 6.23672 13.9597 6.23482C13.9675 6.23292 13.9752 6.23094 13.983 6.22912C13.9908 6.22732 13.9986 6.22564 14.0064 6.22391L14.0297 6.21884C14.0375 6.21717 14.0452 6.21549 14.053 6.21392C14.0608 6.21237 14.0686 6.21093 14.0763 6.20944C14.0841 6.20795 14.0919 6.2064 14.0997 6.20499C14.1075 6.20357 14.1152 6.2023 14.123 6.20096L14.1463 6.19708C14.1541 6.19585 14.1619 6.19451 14.1697 6.19333C14.1774 6.19215 14.1852 6.19116 14.193 6.19005C14.2008 6.18897 14.2085 6.18781 14.2163 6.18678L14.2397 6.18386L14.263 6.1812C14.2708 6.18033 14.2785 6.17932 14.2863 6.17853C14.2941 6.17773 14.3019 6.17715 14.3096 6.17644L14.333 6.17438C14.3407 6.17372 14.3485 6.17309 14.3563 6.17252C14.3641 6.17196 14.3719 6.17152 14.3796 6.17103C14.3874 6.17055 14.3952 6.16999 14.403 6.16956C14.4107 6.16913 14.4185 6.16884 14.4263 6.16849L14.4496 6.1676C14.4574 6.16733 14.4651 6.16693 14.4729 6.16673C14.4807 6.16654 14.4885 6.16656 14.4963 6.16644C14.504 6.16633 14.5118 6.16619 14.5196 6.16615L14.53 6.16602H14.5429H14.5663H14.5896H14.6129H14.6362H14.6596H14.6829H14.7062H14.7296H14.7529H14.7762H14.7996H14.8229H14.8462H14.8695H14.8929H14.9162H14.9395H14.9628H14.9862H15.0095H15.0328H15.0562H15.0795H15.1028H15.1261H15.1495H15.1728H15.1961H15.2195H15.2428H15.2661H15.2895H15.3128H15.3361H15.3594H15.3828H15.4061H15.4294H15.4528H15.4761H15.4994H15.5227H15.5461H15.5694H15.5927H15.616H15.6394H15.6627H15.686H15.7094H15.7327H15.756H15.7794H15.8027H15.826H15.8493H15.8727H15.896H15.9193H15.9427H15.966H15.9893H16.0126H16.036H16.0593H16.0826H16.106H16.1293H16.1526H16.1759H16.1993H16.2226H16.2459H16.2693H16.2926H16.3159H16.3393H16.3626H16.3859H16.4092H16.4326H16.4559H16.4792H16.5025H16.5259H16.5492H16.5725H16.5959H16.6192H16.6425H16.6658H16.6892H16.7125H16.7358H16.7592H16.7825H16.8058H16.8292H16.8525H16.8758H16.8991H16.9225H16.9458H16.9691H16.9925H17.0158H17.0391H17.0624H17.0858H17.1091H17.1324H17.1557H17.1791H17.2024H17.2258H17.2491H17.2724H17.2957H17.3191H17.3424H17.3657H17.389H17.4124H17.4357H17.459H17.4824H17.5057H17.529H17.5523H17.5757H17.599H17.6223H17.6457H17.669H17.6923H17.7157H17.739H17.7623H17.7856H17.809H17.8323H17.8556H17.879H17.9023H17.9256H17.9489H17.9723H17.9956H18.0189H18.0422H18.0656H18.0854V18.2725C18.0854 18.3778 18.0786 18.4815 18.0656 18.5833C18.0593 18.6323 18.0514 18.6808 18.0422 18.7288C18.0353 18.7654 18.0275 18.8016 18.0189 18.8375C18.0117 18.8678 18.0039 18.8979 17.9956 18.9277C17.9882 18.9539 17.9804 18.9799 17.9723 19.0056C17.9648 19.029 17.957 19.0522 17.9489 19.0752C17.9414 19.0966 17.9337 19.1178 17.9256 19.1388C17.9181 19.1585 17.9103 19.178 17.9023 19.1974C17.8947 19.2157 17.8869 19.2339 17.879 19.2519C17.8714 19.269 17.8636 19.286 17.8556 19.303C17.848 19.3191 17.8402 19.3351 17.8323 19.3511C17.8247 19.3664 17.8169 19.3816 17.809 19.3967C17.8013 19.4112 17.7936 19.4257 17.7856 19.4401C17.778 19.454 17.7703 19.4678 17.7623 19.4816C17.7547 19.4948 17.7469 19.508 17.739 19.5211C17.7313 19.5337 17.7235 19.5463 17.7157 19.5588C17.708 19.571 17.7002 19.5831 17.6923 19.5952C17.6846 19.607 17.6769 19.6188 17.669 19.6304C17.6613 19.6417 17.6535 19.6529 17.6457 19.6641C17.638 19.675 17.6302 19.6858 17.6223 19.6966C17.6146 19.7072 17.6069 19.7177 17.599 19.7282C17.5913 19.7384 17.5835 19.7486 17.5757 19.7587C17.568 19.7685 17.5602 19.7783 17.5523 19.788C17.5446 19.7977 17.5369 19.8073 17.529 19.8168C17.5213 19.8261 17.5135 19.8352 17.5057 19.8444C17.498 19.8534 17.4902 19.8624 17.4824 19.8713C17.4746 19.8801 17.4669 19.8889 17.459 19.8976C17.4514 19.9061 17.4435 19.9144 17.4357 19.9228C17.428 19.9311 17.4202 19.9394 17.4124 19.9476C17.4047 19.9556 17.3969 19.9636 17.389 19.9715C17.3813 19.9794 17.3736 19.9871 17.3657 19.9949C17.358 20.0025 17.3502 20.0101 17.3424 20.0177C17.3347 20.0251 17.3269 20.0324 17.3191 20.0397C17.3113 20.047 17.3036 20.0543 17.2957 20.0615C17.288 20.0685 17.2802 20.0754 17.2724 20.0823C17.2646 20.0892 17.2569 20.0962 17.2491 20.103C17.2414 20.1097 17.2335 20.1162 17.2258 20.1227C17.218 20.1293 17.2103 20.1359 17.2024 20.1424C17.1947 20.1488 17.1869 20.155 17.1791 20.1612C17.1713 20.1675 17.1636 20.1737 17.1557 20.1799C17.148 20.1859 17.1402 20.1918 17.1324 20.1978C17.1247 20.2037 17.117 20.2097 17.1091 20.2155C17.1014 20.2212 17.0936 20.2268 17.0858 20.2325C17.078 20.2382 17.0703 20.2438 17.0624 20.2494C17.0547 20.2549 17.0469 20.2602 17.0391 20.2656C17.0313 20.271 17.0236 20.2764 17.0158 20.2817C17.0081 20.2869 17.0002 20.2919 16.9925 20.2971C16.9847 20.3022 16.977 20.3074 16.9691 20.3124C16.9614 20.3174 16.9536 20.3221 16.9458 20.327C16.938 20.3318 16.9303 20.3368 16.9225 20.3415C16.9147 20.3462 16.9069 20.3508 16.8991 20.3554C16.8914 20.36 16.8836 20.3647 16.8758 20.3692C16.8681 20.3737 16.8603 20.3781 16.8525 20.3825C16.8447 20.3868 16.837 20.3912 16.8292 20.3955C16.8214 20.3998 16.8136 20.404 16.8058 20.4081L16.7825 20.4205C16.7747 20.4245 16.767 20.4286 16.7592 20.4325C16.7514 20.4365 16.7436 20.4403 16.7358 20.4441C16.7281 20.448 16.7203 20.4519 16.7125 20.4557C16.7048 20.4594 16.697 20.4629 16.6892 20.4666C16.6814 20.4702 16.6737 20.4739 16.6658 20.4775C16.6581 20.481 16.6503 20.4844 16.6425 20.4878L16.6192 20.498L16.5959 20.5079C16.5881 20.5112 16.5803 20.5143 16.5725 20.5175C16.5648 20.5206 16.557 20.5238 16.5492 20.5269C16.5415 20.53 16.5337 20.5328 16.5259 20.5358C16.5181 20.5387 16.5104 20.5418 16.5025 20.5446C16.4948 20.5475 16.487 20.5502 16.4792 20.553L16.4559 20.5612L16.4326 20.5692C16.4248 20.5718 16.417 20.5743 16.4092 20.5768C16.4015 20.5793 16.3937 20.5819 16.3859 20.5844C16.3782 20.5868 16.3703 20.589 16.3626 20.5914L16.3393 20.5983L16.3159 20.605C16.3082 20.6071 16.3004 20.6092 16.2926 20.6113C16.2848 20.6134 16.2771 20.6156 16.2693 20.6176C16.2615 20.6196 16.2537 20.6213 16.2459 20.6233C16.2382 20.6252 16.2304 20.6271 16.2226 20.629L16.1993 20.6343L16.1759 20.6394C16.1682 20.6411 16.1604 20.6429 16.1526 20.6445C16.1449 20.6461 16.1371 20.6475 16.1293 20.649C16.1215 20.6505 16.1138 20.652 16.106 20.6534L16.0826 20.6576C16.0749 20.659 16.0671 20.6602 16.0593 20.6615C16.0515 20.6628 16.0438 20.6642 16.036 20.6654C16.0282 20.6666 16.0204 20.6676 16.0126 20.6687L15.9893 20.672C15.9816 20.673 15.9738 20.6741 15.966 20.6751C15.9582 20.676 15.9504 20.6768 15.9427 20.6777C15.9349 20.6786 15.9271 20.6796 15.9193 20.6804C15.9116 20.6812 15.9038 20.6819 15.896 20.6827L15.8727 20.6847C15.8649 20.6854 15.8571 20.6862 15.8493 20.6868C15.8416 20.6874 15.8338 20.6877 15.826 20.6882L15.8027 20.6897L15.7794 20.691C15.7716 20.6913 15.7638 20.6916 15.756 20.6919C15.7482 20.6921 15.7405 20.6925 15.7327 20.6927C15.7249 20.693 15.7171 20.693 15.7094 20.6932L15.686 20.6935C15.6788 20.6935 15.6717 20.6938 15.6644 20.6938H15.6627H15.6394H15.616H15.5927H15.5694H15.5461H15.5227H15.4994H15.4761H15.4528H15.4294H15.4061H15.3828H15.3594H15.3361H15.3128H15.2895H15.2661H15.2428H15.2195H15.1961H15.1728H15.1495H15.1261H15.1028H15.0795H15.0562H15.0328H15.0095H14.9862H14.9628H14.9395H14.9162H14.8929H14.8695H14.8462H14.8229H14.7996H14.7762H14.7529H14.7296H14.7062H14.6829H14.6596H14.6362H14.6129H14.5896H14.5663H14.5429H14.5196H14.4963H14.4729H14.4496H14.4263H14.403H14.3796H14.3563H14.333H14.3096H14.2863H14.263H14.2397H14.2163H14.193H14.1697H14.1463H14.123H14.0997H14.0763H14.053H14.0297H14.0064H13.983H13.9597H13.9364H13.9131H13.8897H13.8664H13.8431H13.8197H13.7964H13.7731H13.7498H13.7264H13.7031H13.6798H13.6564H13.6331H13.6098H13.5864H13.5631H13.5398H13.5165H13.4931H13.4698H13.4465H13.4231H13.3998H13.3765H13.3532H13.3298H13.3065H13.2832H13.2599H13.2365H13.2132H13.1899H13.1665H13.1432H13.1199H13.0965H13.0732H13.0499H13.0266H13.0032H12.9799H12.9566H12.9332H12.9099H12.8866H12.8633H12.8399H12.8166H12.7933H12.7699H12.7466H12.7233H12.7H12.6766H12.6533H12.63H12.6066H12.5833H12.56H12.5366H12.5133H12.49H12.4667H12.4433H12.42H12.3967H12.3734H12.35H12.3267H12.3034H12.28H12.2567H12.2334H12.2101H12.1867H12.1634H12.1133V15.591C12.1133 15.591 12.1305 15.5957 12.1634 15.604L12.1867 15.6099L12.2101 15.6156L12.2334 15.6212L12.2567 15.6267L12.28 15.6321L12.3034 15.6375L12.3267 15.6427L12.35 15.6479L12.3734 15.653L12.3967 15.6581L12.42 15.6631L12.4433 15.668L12.4667 15.6728L12.49 15.6776L12.5133 15.6823L12.5366 15.687L12.56 15.6916L12.5833 15.6961L12.6066 15.7007L12.63 15.7051L12.6533 15.7095L12.6766 15.7138L12.7 15.718L12.7233 15.7222L12.7466 15.7264L12.7699 15.7305L12.7933 15.7345L12.8166 15.7385L12.8399 15.7424L12.8633 15.7463L12.8866 15.7501L12.9099 15.7539L12.9332 15.7576L12.9566 15.7613L12.9799 15.7649L13.0032 15.7685L13.0266 15.772L13.0499 15.7755L13.0732 15.7789L13.0965 15.7823L13.1199 15.7856L13.1432 15.7889L13.1665 15.7921L13.1899 15.7952L13.2132 15.7983L13.2365 15.8014L13.2599 15.8044L13.2832 15.8074L13.3065 15.8103L13.3298 15.8131L13.3532 15.816L13.3765 15.8187L13.3998 15.8214L13.4231 15.8241L13.4465 15.8267L13.4698 15.8293L13.4931 15.8318L13.5165 15.8342L13.5398 15.8366L13.5631 15.839L13.5864 15.8413L13.6098 15.8435L13.6331 15.8458L13.6564 15.8479L13.6798 15.8501L13.7031 15.8521L13.7264 15.8541L13.7498 15.856L13.7731 15.8579L13.7964 15.8598L13.8197 15.8616L13.8431 15.8634L13.8664 15.865L13.8897 15.8667L13.9131 15.8683L13.9364 15.8698L13.9597 15.8713L13.983 15.8728L14.0064 15.8742L14.0297 15.8755L14.053 15.8768L14.0763 15.878L14.0997 15.8792L14.123 15.8803L14.1463 15.8815L14.1697 15.8825L14.193 15.8834L14.2163 15.8844L14.2397 15.8852L14.263 15.886L14.2863 15.8868L14.3096 15.8875L14.333 15.8882L14.3563 15.8888L14.3796 15.8893L14.403 15.8898L14.4263 15.8902L14.4496 15.8906L14.4729 15.891L14.4963 15.8912L14.5196 15.8914L14.5429 15.8916L14.5663 15.8917L14.5896 15.8918L14.5986 15.8918L14.6129 15.8917L14.6362 15.8916L14.6596 15.8914L14.6829 15.8913L14.7062 15.8912L14.7296 15.8907L14.7529 15.8903L14.7762 15.8899L14.7996 15.8895L14.8229 15.8889L14.8462 15.8881L14.8695 15.8874L14.8929 15.8867L14.9162 15.8859L14.9395 15.8849L14.9628 15.8839L14.9862 15.8828L15.0095 15.8818L15.0328 15.8805L15.0562 15.8792L15.0795 15.8778L15.1028 15.8765L15.1261 15.8749L15.1495 15.8732L15.1728 15.8716L15.1961 15.8699L15.2195 15.868L15.2428 15.866L15.2661 15.864L15.2895 15.8619L15.3128 15.8598L15.3361 15.8574L15.3594 15.855L15.3828 15.8526L15.4061 15.85L15.4294 15.8473L15.4528 15.8446L15.4761 15.8418L15.4994 15.8388L15.5227 15.8357L15.5461 15.8325L15.5694 15.8294C15.5773 15.8282 15.5849 15.827 15.5927 15.8259L15.616 15.8224L15.6394 15.8188L15.6627 15.8151C15.6706 15.8139 15.6782 15.8125 15.686 15.8112L15.7094 15.8073C15.7171 15.806 15.725 15.8047 15.7327 15.8034C15.7406 15.802 15.7482 15.8005 15.756 15.799L15.7794 15.7947L15.8027 15.7903L15.826 15.7857C15.8339 15.7842 15.8416 15.7825 15.8493 15.7809L15.8727 15.7761L15.896 15.7713C15.9039 15.7696 15.9115 15.7678 15.9193 15.766L15.9427 15.7607C15.9504 15.759 15.9583 15.7573 15.966 15.7555C15.9739 15.7536 15.9815 15.7517 15.9893 15.7498L16.0126 15.744C16.0204 15.7421 16.0283 15.7403 16.036 15.7383C16.0438 15.7363 16.0515 15.7342 16.0593 15.7322L16.0826 15.726C16.0904 15.7239 16.0983 15.7218 16.106 15.7197C16.1138 15.7175 16.1215 15.7153 16.1293 15.7131L16.1526 15.7063C16.1604 15.7041 16.1683 15.7019 16.1759 15.6996L16.1993 15.6924L16.2226 15.6851C16.2304 15.6826 16.2383 15.6803 16.2459 15.6778L16.2693 15.67L16.2926 15.6621C16.3003 15.6594 16.3083 15.6569 16.3159 15.6542C16.3238 15.6514 16.3314 15.6485 16.3393 15.6457L16.3626 15.6372C16.3703 15.6343 16.3782 15.6315 16.3859 15.6286C16.3938 15.6256 16.4015 15.6225 16.4092 15.6195C16.417 15.6164 16.4249 15.6134 16.4326 15.6103L16.4559 15.6008L16.4792 15.591C16.487 15.5878 16.4949 15.5846 16.5025 15.5812C16.5104 15.5778 16.5181 15.5742 16.5259 15.5707L16.5492 15.5603L16.5725 15.5494C16.5804 15.5457 16.5881 15.5419 16.5959 15.5382C16.6036 15.5344 16.6115 15.5307 16.6192 15.5269C16.6271 15.5229 16.6347 15.5189 16.6425 15.5149C16.6503 15.5109 16.6582 15.5069 16.6658 15.5029C16.6737 15.4987 16.6814 15.4945 16.6892 15.4903C16.697 15.486 16.7048 15.4818 16.7125 15.4775C16.7204 15.4731 16.7281 15.4687 16.7358 15.4642C16.7437 15.4597 16.7514 15.4551 16.7592 15.4506C16.767 15.4459 16.7748 15.4413 16.7825 15.4366C16.7904 15.4318 16.7981 15.4269 16.8058 15.422C16.8136 15.4171 16.8215 15.4122 16.8292 15.4072C16.837 15.4021 16.8447 15.3969 16.8525 15.3917C16.8603 15.3864 16.8681 15.3812 16.8758 15.3759C16.8837 15.3705 16.8914 15.3649 16.8991 15.3594C16.9069 15.3538 16.9148 15.3482 16.9225 15.3425C16.9304 15.3367 16.9381 15.3308 16.9458 15.3249C16.9536 15.3189 16.9615 15.3129 16.9691 15.3068C16.977 15.3006 16.9848 15.2943 16.9925 15.288C17.0003 15.2816 17.0081 15.275 17.0158 15.2685C17.0236 15.2618 17.0315 15.2552 17.0391 15.2485C17.047 15.2415 17.0547 15.2344 17.0624 15.2273C17.0703 15.2201 17.0781 15.213 17.0858 15.2057C17.0937 15.1982 17.1014 15.1906 17.1091 15.1829C17.117 15.1751 17.1248 15.1672 17.1324 15.1593C17.1403 15.1512 17.1481 15.1431 17.1557 15.1349C17.1637 15.1263 17.1714 15.1177 17.1791 15.109C17.187 15.1 17.1948 15.091 17.2024 15.082C17.2103 15.0727 17.2181 15.0633 17.2258 15.0539C17.2337 15.0441 17.2415 15.0342 17.2491 15.0243C17.257 15.0139 17.2647 15.0034 17.2724 14.9929C17.2804 14.9819 17.2881 14.9709 17.2957 14.9597C17.3037 14.9482 17.3115 14.9365 17.3191 14.9247C17.327 14.9124 17.3348 14.9 17.3424 14.8875C17.3504 14.8743 17.3582 14.861 17.3657 14.8476C17.3737 14.8334 17.3815 14.8191 17.389 14.8047C17.3971 14.7893 17.4049 14.7738 17.4124 14.7581C17.4205 14.7413 17.4282 14.7243 17.4357 14.7073C17.4438 14.6887 17.4516 14.6701 17.459 14.6512C17.4672 14.6304 17.475 14.6095 17.4824 14.5883C17.4907 14.5644 17.4984 14.5401 17.5057 14.5157C17.5142 14.4871 17.5219 14.4583 17.529 14.4292C17.5378 14.3931 17.5456 14.3565 17.5523 14.3196C17.5623 14.2646 17.57 14.2087 17.5757 14.1521C17.5835 14.0732 17.5873 13.9929 17.5873 13.9113V11.1019H17.5757H17.5523H17.529H17.5057H17.4824H17.459H17.4357H17.4124H17.389H17.3657H17.3424H17.3191H17.2957H17.2724H17.2491H17.2258H17.2024H17.1791H17.1557H17.1324H17.1091H17.0858H17.0624H17.0391H17.0158H16.9925H16.9691H16.9458H16.9225H16.8991H16.8758H16.8525H16.8292H16.8058H16.7825H16.7592H16.7358H16.7125H16.6892H16.6658H16.6425H16.6192H16.5959H16.5725H16.5492H16.5259H16.5025H16.4792H16.4559H16.4326H16.4092H16.3859H16.3626H16.3393H16.3159H16.2926H16.2693H16.2459H16.2226H16.1993H16.1759H16.1526H16.1293H16.106H16.0826H16.0593H16.036H16.0126H15.9893H15.966H15.9427H15.9193H15.896H15.8727H15.8493H15.826H15.8027H15.7794H15.756H15.7327H15.7094H15.686H15.6627H15.6394H15.616H15.5927H15.5694H15.5461H15.5227H15.5051V13.9113C15.5051 13.9552 15.5031 13.9985 15.4994 14.0409C15.4946 14.095 15.4868 14.1477 15.4761 14.199C15.4694 14.2306 15.4617 14.2617 15.4528 14.2922C15.4457 14.3165 15.4379 14.3404 15.4294 14.3639C15.4222 14.3839 15.4144 14.4035 15.4061 14.423C15.3987 14.4403 15.391 14.4573 15.3828 14.4741C15.3753 14.4894 15.3676 14.5046 15.3594 14.5194C15.352 14.5331 15.3441 14.5465 15.3361 14.5598C15.3286 14.5723 15.3208 14.5846 15.3128 14.5968C15.3052 14.6081 15.2974 14.6194 15.2895 14.6305C15.2819 14.641 15.2741 14.6515 15.2661 14.6618C15.2585 14.6715 15.2507 14.6811 15.2428 14.6906C15.2352 14.6997 15.2274 14.7086 15.2195 14.7175C15.2118 14.726 15.2041 14.7344 15.1961 14.7427C15.1885 14.7507 15.1807 14.7586 15.1728 14.7664C15.1652 14.7739 15.1574 14.7813 15.1495 14.7886C15.1418 14.7956 15.134 14.8025 15.1261 14.8094C15.1185 14.816 15.1107 14.8226 15.1028 14.8291C15.0952 14.8353 15.0874 14.8415 15.0795 14.8476C15.0718 14.8535 15.064 14.8594 15.0562 14.8652C15.0485 14.8708 15.0407 14.8763 15.0328 14.8818C15.0252 14.8871 15.0174 14.8923 15.0095 14.8975C15.0018 14.9025 14.994 14.9075 14.9862 14.9124C14.9785 14.9171 14.9707 14.9218 14.9628 14.9264C14.9552 14.9309 14.9474 14.9354 14.9395 14.9397C14.9318 14.944 14.924 14.9482 14.9162 14.9523C14.9085 14.9564 14.9007 14.9604 14.8929 14.9643C14.8851 14.9681 14.8774 14.9719 14.8695 14.9756C14.8618 14.9792 14.8541 14.9829 14.8462 14.9864C14.8385 14.9898 14.8307 14.9932 14.8229 14.9965C14.8152 14.9998 14.8074 15.0029 14.7996 15.0061C14.7918 15.0091 14.784 15.0121 14.7762 15.0151C14.7685 15.018 14.7607 15.0208 14.7529 15.0236C14.7452 15.0264 14.7374 15.0291 14.7296 15.0317C14.7218 15.0343 14.7141 15.0368 14.7062 15.0393C14.6985 15.0417 14.6907 15.044 14.6829 15.0463C14.6752 15.0486 14.6674 15.0509 14.6596 15.053C14.6518 15.0551 14.6441 15.0573 14.6362 15.0593C14.6285 15.0613 14.6207 15.0632 14.6129 15.0651C14.6052 15.067 14.5974 15.0687 14.5896 15.0705C14.5819 15.0722 14.5741 15.0739 14.5663 15.0755C14.5585 15.0771 14.5508 15.0787 14.5429 15.0802C14.5352 15.0817 14.5274 15.0831 14.5196 15.0844C14.5119 15.0858 14.5041 15.0871 14.4963 15.0884L14.4729 15.092C14.4652 15.0931 14.4574 15.0941 14.4496 15.0951C14.4419 15.0962 14.4341 15.0972 14.4263 15.0981L14.403 15.1007C14.3952 15.1015 14.3874 15.1022 14.3796 15.1029C14.3719 15.1036 14.3641 15.1043 14.3563 15.1049C14.3486 15.1055 14.3408 15.106 14.333 15.1065C14.3252 15.107 14.3174 15.1075 14.3096 15.1079C14.3019 15.1083 14.2941 15.1087 14.2863 15.109C14.2786 15.1093 14.2708 15.1095 14.263 15.1097L14.2397 15.1102C14.2319 15.1104 14.2241 15.1104 14.2163 15.1105L14.2076 15.1106L14.193 15.1105L14.1697 15.1103L14.1463 15.11L14.123 15.1095L14.0997 15.1089L14.0763 15.1082L14.053 15.1072L14.0297 15.1061L14.0064 15.1049L13.983 15.1035L13.9597 15.102L13.9364 15.1004L13.9131 15.0986L13.8897 15.0966L13.8664 15.0945L13.8431 15.0923L13.8197 15.0899L13.7964 15.0874L13.7731 15.0847L13.7498 15.0819L13.7264 15.0789L13.7031 15.0759L13.6798 15.0726L13.6564 15.0692L13.6331 15.0657L13.6098 15.0621L13.5864 15.0583L13.5631 15.0544L13.5398 15.0503L13.5165 15.0461L13.4931 15.0418L13.4698 15.0373L13.4465 15.0327L13.4231 15.028L13.3998 15.0231L13.3765 15.0182L13.3532 15.013L13.3298 15.0078L13.3065 15.0024L13.2832 14.9969L13.2599 14.9912L13.2365 14.9854L13.2132 14.9796L13.1899 14.9735L13.1665 14.9673L13.1432 14.9611L13.1199 14.9547L13.0965 14.9481L13.0732 14.9415L13.0499 14.9347L13.0266 14.9278L13.0032 14.9208L12.9799 14.9136L12.9566 14.9063L12.9332 14.8989L12.9099 14.8914L12.8866 14.8838L12.8633 14.8761L12.8399 14.8682L12.8166 14.8602L12.7933 14.8521L12.7699 14.8439L12.7466 14.8355L12.7233 14.8271L12.7 14.8185L12.6766 14.8099L12.6533 14.8011L12.63 14.7922L12.6066 14.7832L12.5833 14.774L12.56 14.7648L12.5366 14.7554L12.5133 14.746L12.49 14.7364L12.4667 14.7267L12.4433 14.7169L12.42 14.707L12.3967 14.6971L12.3734 14.687L12.35 14.6767L12.3267 14.6664L12.3034 14.656L12.28 14.6455L12.2567 14.6349L12.2334 14.6241L12.2101 14.6133L12.1867 14.6024L12.1634 14.5913V14.5913Z" fill="url(#paint1_linear_1064_2177)"/>
<path fill-rule="evenodd" clip-rule="evenodd" d="M18.8621 11.7158C18.8451 11.7295 18.8284 11.7434 18.812 11.7574V8.58749C18.812 8.41891 18.8293 8.25436 18.8621 8.09547C18.8692 8.06136 18.877 8.02756 18.8854 7.994C18.8927 7.96519 18.9005 7.93662 18.9088 7.90825C18.9161 7.88297 18.9239 7.85787 18.9321 7.83294C18.9396 7.81016 18.9473 7.7875 18.9554 7.76503C18.9629 7.7442 18.9707 7.72348 18.9788 7.70293C18.9863 7.68371 18.9941 7.66459 19.0021 7.64561C19.0097 7.62771 19.0174 7.60993 19.0254 7.59225C19.033 7.57546 19.0408 7.55878 19.0487 7.5422C19.0563 7.52635 19.0641 7.51066 19.0721 7.49501C19.0797 7.47998 19.0875 7.46507 19.0954 7.45021C19.103 7.4359 19.1108 7.42168 19.1187 7.40754C19.1264 7.39384 19.1341 7.38021 19.1421 7.36669C19.1497 7.35356 19.1575 7.34048 19.1654 7.3275C19.173 7.31497 19.1808 7.30252 19.1887 7.29014C19.1964 7.27809 19.2042 7.26618 19.2121 7.25429C19.2197 7.24264 19.2275 7.23108 19.2354 7.21959C19.2431 7.20832 19.2508 7.19705 19.2587 7.18593C19.2664 7.17516 19.2742 7.16456 19.282 7.15395C19.2897 7.14349 19.2975 7.13309 19.3054 7.12276C19.3131 7.1126 19.3208 7.10241 19.3287 7.09237C19.3364 7.08263 19.3442 7.07302 19.352 7.0634C19.3597 7.05389 19.3675 7.04441 19.3754 7.03504C19.3831 7.02578 19.3908 7.01656 19.3987 7.00744C19.4064 6.99853 19.4142 6.98973 19.422 6.98094C19.4298 6.97222 19.4375 6.96347 19.4454 6.95485C19.4531 6.94642 19.4609 6.93809 19.4687 6.92978C19.4764 6.92157 19.4842 6.91342 19.492 6.9053C19.4997 6.8973 19.5075 6.8893 19.5153 6.8814C19.523 6.87365 19.5308 6.866 19.5386 6.85835C19.5464 6.85074 19.5541 6.84307 19.562 6.83555C19.5697 6.82821 19.5775 6.82104 19.5853 6.8138C19.5931 6.80657 19.6008 6.79933 19.6087 6.79222C19.6164 6.78525 19.6242 6.77839 19.632 6.77151C19.6397 6.76466 19.6475 6.75782 19.6553 6.75108C19.663 6.74444 19.6708 6.73791 19.6786 6.73136C19.6864 6.72487 19.6941 6.71838 19.702 6.71197C19.7097 6.70566 19.7175 6.6994 19.7253 6.69318C19.733 6.687 19.7408 6.68086 19.7486 6.67478C19.7564 6.66878 19.7642 6.66283 19.772 6.6569C19.7797 6.65103 19.7875 6.64518 19.7953 6.63941C19.803 6.63368 19.8108 6.62802 19.8186 6.62239C19.8264 6.61681 19.8341 6.61123 19.8419 6.60573C19.8497 6.60029 19.8575 6.59492 19.8653 6.58955C19.873 6.58423 19.8808 6.57892 19.8886 6.57369C19.8963 6.56852 19.9041 6.56342 19.9119 6.55833C19.9197 6.55326 19.9274 6.54818 19.9353 6.5432C19.943 6.53828 19.9508 6.53348 19.9586 6.52864C19.9664 6.52381 19.9741 6.51893 19.9819 6.51421C19.9897 6.50952 19.9975 6.50499 20.0053 6.5004C20.0131 6.4958 20.0208 6.49112 20.0286 6.48662C20.0363 6.48219 20.0442 6.47793 20.0519 6.47357C20.0597 6.46921 20.0674 6.46481 20.0752 6.46055C20.083 6.45633 20.0908 6.45226 20.0986 6.44812C20.1063 6.44399 20.1141 6.43985 20.1219 6.4358L20.1452 6.42392L20.1686 6.41232C20.1763 6.40852 20.1841 6.40469 20.1919 6.40097C20.1996 6.39727 20.2074 6.39369 20.2152 6.39007C20.223 6.38646 20.2307 6.38274 20.2386 6.37922C20.2463 6.37571 20.2541 6.37242 20.2619 6.36901C20.2697 6.3656 20.2774 6.36213 20.2852 6.3588C20.293 6.35551 20.3008 6.35231 20.3085 6.3491L20.3319 6.33957C20.3396 6.33645 20.3474 6.33333 20.3552 6.33029C20.3629 6.32727 20.3708 6.32436 20.3785 6.32142C20.3863 6.31847 20.394 6.31543 20.4019 6.31257C20.4096 6.30974 20.4174 6.3071 20.4252 6.30435C20.433 6.3016 20.4407 6.29881 20.4485 6.29614C20.4563 6.29347 20.4641 6.29091 20.4719 6.28834L20.4952 6.28076C20.503 6.27828 20.5107 6.27575 20.5185 6.27332C20.5263 6.27094 20.5341 6.26869 20.5418 6.26639C20.5496 6.26407 20.5574 6.26168 20.5652 6.25944C20.5729 6.25721 20.5807 6.25514 20.5885 6.25299L20.6118 6.24665C20.6196 6.2446 20.6274 6.24251 20.6352 6.24053C20.6429 6.23857 20.6507 6.23673 20.6585 6.23484C20.6663 6.23294 20.674 6.23096 20.6818 6.22914C20.6896 6.22734 20.6974 6.22566 20.7052 6.22393L20.7285 6.21886C20.7363 6.21721 20.744 6.21551 20.7518 6.21394C20.7596 6.21237 20.7674 6.21095 20.7752 6.20946C20.7829 6.20797 20.7907 6.2064 20.7985 6.20499L20.8218 6.20096L20.8451 6.1971C20.8529 6.19585 20.8607 6.19451 20.8685 6.19333C20.8762 6.19215 20.884 6.19116 20.8918 6.19005C20.8996 6.18897 20.9073 6.18783 20.9151 6.1868L20.9385 6.18387L20.9618 6.1812C20.9696 6.18033 20.9773 6.17932 20.9851 6.17853C20.9929 6.17773 21.0007 6.17715 21.0084 6.17644L21.0318 6.17438C21.0396 6.17372 21.0473 6.17309 21.0551 6.17252C21.0629 6.17196 21.0707 6.17152 21.0784 6.17103C21.0862 6.17055 21.094 6.16999 21.1018 6.16956C21.1095 6.16913 21.1173 6.16884 21.1251 6.16849L21.1484 6.1676C21.1562 6.16733 21.164 6.16693 21.1718 6.16673C21.1795 6.16654 21.1873 6.16656 21.1951 6.16644C21.2029 6.16633 21.2106 6.16619 21.2184 6.16615L21.2287 6.16602H21.2418H21.2651H21.2884H21.3117H21.3351H21.3584H21.3817H21.4051H21.4284H21.4517H21.4751H21.4984H21.5217H21.545H21.5684H21.5917H21.615H21.6384H21.6617H21.685H21.7084H21.7317H21.755H21.7783H21.8017H21.825H21.8483H21.8717H21.895H21.9183H21.9417H21.965H21.9883H22.0116H22.035H22.0583H22.0816H22.105H22.1283H22.1516H22.1749H22.1983H22.2216H22.245H22.2683H22.2916H22.3149H22.3383H22.3616H22.3849H22.4083H22.4316H22.4549H22.4782H22.5016H22.5249H22.5482H22.5716H22.5949H22.6182H22.6416H22.6649H22.6882H22.7115H22.7349H22.7582H22.7815H22.8049H22.8282H22.8515H22.8749H22.8982H22.9215H22.9448H22.9682H22.9915H23.0148H23.0382H23.0615H23.0848H23.1081H23.1315H23.1548H23.1781H23.2015H23.2248H23.2481H23.2715H23.2948H23.3181H23.3415H23.3648H23.3881H23.4115H23.4348H23.4581H23.4814H23.5048H23.5281H23.5514H23.5748H23.5981H23.6214H23.6447H23.6681H23.6914H23.7147H23.7381H23.7614H23.7847H23.8081H23.8314H23.8547H23.8781H23.9014H23.9247H23.948H23.9714H23.9947H24.018H24.0414H24.0647H24.088H24.1113H24.1347H24.158H24.1813H24.2047H24.228H24.2513H24.2747H24.298H24.3213H24.3446H24.368H24.3913H24.4146H24.438H24.4613H24.4846H24.508H24.5313H24.5546H24.5779H24.6013H24.6246H24.6479H24.6713H24.6946H24.7179H24.7413H24.7646H24.7844V18.2725C24.7844 18.3777 24.7776 18.4814 24.7646 18.5831C24.7583 18.6321 24.7504 18.6806 24.7413 18.7286C24.7343 18.7652 24.7265 18.8014 24.7179 18.8374C24.7107 18.8677 24.703 18.8977 24.6946 18.9276C24.6872 18.9537 24.6795 18.9797 24.6713 19.0055C24.6638 19.0289 24.656 19.052 24.6479 19.0751C24.6404 19.0964 24.6327 19.1176 24.6246 19.1387C24.6171 19.1583 24.6093 19.1778 24.6013 19.1972C24.5937 19.2155 24.5859 19.2337 24.5779 19.2518C24.5704 19.2689 24.5626 19.2859 24.5546 19.3028C24.547 19.3189 24.5392 19.335 24.5313 19.3509C24.5237 19.3662 24.5159 19.3814 24.508 19.3965C24.5003 19.4111 24.4926 19.4256 24.4846 19.44C24.4769 19.4539 24.4692 19.4677 24.4613 19.4815C24.4537 19.4947 24.4459 19.5078 24.438 19.5209C24.4303 19.5336 24.4225 19.5461 24.4146 19.5587C24.407 19.5709 24.3992 19.583 24.3913 19.5951C24.3836 19.6069 24.3759 19.6187 24.368 19.6303C24.3603 19.6416 24.3525 19.6528 24.3446 19.664C24.337 19.6749 24.3292 19.6857 24.3213 19.6965C24.3136 19.7071 24.3059 19.7176 24.298 19.7281C24.2903 19.7383 24.2825 19.7484 24.2747 19.7585C24.267 19.7684 24.2592 19.7782 24.2513 19.7879C24.2436 19.7975 24.2359 19.8071 24.228 19.8166C24.2203 19.8259 24.2125 19.8351 24.2047 19.8443C24.197 19.8533 24.1892 19.8622 24.1813 19.8711C24.1736 19.8799 24.1659 19.8887 24.158 19.8974C24.1503 19.9059 24.1425 19.9143 24.1347 19.9226C24.1269 19.931 24.1192 19.9393 24.1113 19.9475C24.1036 19.9556 24.0958 19.9635 24.088 19.9714C24.0803 19.9792 24.0725 19.987 24.0647 19.9948C24.057 20.0024 24.0492 20.01 24.0414 20.0176C24.0336 20.025 24.0258 20.0323 24.018 20.0396C24.0103 20.0469 24.0025 20.0542 23.9947 20.0614C23.987 20.0684 23.9792 20.0753 23.9714 20.0822C23.9636 20.0891 23.9559 20.0961 23.948 20.1029C23.9403 20.1096 23.9325 20.1161 23.9247 20.1227C23.9169 20.1292 23.9092 20.1359 23.9014 20.1423C23.8937 20.1487 23.8858 20.1548 23.8781 20.1611C23.8703 20.1673 23.8626 20.1736 23.8547 20.1798C23.847 20.1858 23.8392 20.1917 23.8314 20.1977C23.8236 20.2036 23.8159 20.2095 23.8081 20.2154C23.8003 20.2211 23.7925 20.2268 23.7847 20.2324C23.777 20.2381 23.7692 20.2438 23.7614 20.2493C23.7537 20.2548 23.7459 20.2601 23.7381 20.2655C23.7303 20.2709 23.7226 20.2763 23.7147 20.2816C23.707 20.2868 23.6992 20.2918 23.6914 20.297C23.6836 20.3021 23.6759 20.3073 23.6681 20.3123C23.6604 20.3173 23.6525 20.322 23.6447 20.3269C23.637 20.3317 23.6292 20.3367 23.6214 20.3414C23.6137 20.3461 23.6059 20.3507 23.5981 20.3553C23.5903 20.3599 23.5826 20.3646 23.5748 20.3691C23.567 20.3736 23.5592 20.378 23.5514 20.3824L23.5281 20.3954L23.5048 20.4081L23.4814 20.4204C23.4737 20.4244 23.4659 20.4285 23.4581 20.4325C23.4504 20.4364 23.4426 20.4402 23.4348 20.4441C23.427 20.4479 23.4193 20.4518 23.4115 20.4556C23.4037 20.4593 23.3959 20.4629 23.3881 20.4665C23.3803 20.4701 23.3726 20.4739 23.3648 20.4774C23.357 20.4809 23.3492 20.4843 23.3415 20.4878L23.3181 20.498L23.2948 20.5079L23.2715 20.5174C23.2637 20.5206 23.2559 20.5238 23.2481 20.5269C23.2404 20.5299 23.2326 20.5327 23.2248 20.5357C23.217 20.5387 23.2093 20.5417 23.2015 20.5446C23.1937 20.5475 23.1859 20.5502 23.1781 20.553L23.1548 20.5612L23.1315 20.5692C23.1237 20.5718 23.1159 20.5742 23.1081 20.5768C23.1004 20.5793 23.0926 20.5819 23.0848 20.5843C23.0771 20.5868 23.0693 20.589 23.0615 20.5913L23.0382 20.5983L23.0148 20.6049C23.0071 20.6071 22.9993 20.6091 22.9915 20.6112C22.9837 20.6133 22.976 20.6155 22.9682 20.6175C22.9604 20.6195 22.9526 20.6213 22.9448 20.6232C22.9371 20.6251 22.9293 20.6271 22.9215 20.6289L22.8982 20.6343L22.8749 20.6394C22.8671 20.641 22.8593 20.6428 22.8515 20.6445C22.8438 20.646 22.836 20.6474 22.8282 20.6489L22.8049 20.6534L22.7815 20.6576C22.7738 20.659 22.766 20.6602 22.7582 20.6615C22.7504 20.6628 22.7427 20.6641 22.7349 20.6653C22.7271 20.6665 22.7193 20.6676 22.7115 20.6687L22.6882 20.672C22.6804 20.673 22.6727 20.6741 22.6649 20.675C22.6571 20.676 22.6493 20.6768 22.6416 20.6777C22.6338 20.6786 22.626 20.6796 22.6182 20.6804C22.6105 20.6812 22.6027 20.6819 22.5949 20.6826L22.5716 20.6847C22.5638 20.6854 22.556 20.6862 22.5482 20.6868C22.5405 20.6873 22.5327 20.6877 22.5249 20.6882L22.5016 20.6897L22.4782 20.691C22.4705 20.6913 22.4627 20.6915 22.4549 20.6918C22.4471 20.6921 22.4394 20.6925 22.4316 20.6927C22.4238 20.6929 22.416 20.693 22.4083 20.6932L22.3849 20.6935C22.3777 20.6935 22.3704 20.6938 22.3631 20.6938H22.3616H22.3383H22.3149H22.2916H22.2683H22.245H22.2216H22.1983H22.1749H22.1516H22.1283H22.105H22.0816H22.0583H22.035H22.0116H21.9883H21.965H21.9417H21.9183H21.895H21.8717H21.8483H21.825H21.8017H21.7783H21.755H21.7317H21.7084H21.685H21.6617H21.6384H21.615H21.5917H21.5684H21.545H21.5217H21.4984H21.4751H21.4517H21.4284H21.4051H21.3817H21.3584H21.3351H21.3117H21.2884H21.2651H21.2418H21.2184H21.1951H21.1718H21.1484H21.1251H21.1018H21.0784H21.0551H21.0318H21.0084H20.9851H20.9618H20.9385H20.9151H20.8918H20.8685H20.8451H20.8218H20.7985H20.7752H20.7518H20.7285H20.7052H20.6818H20.6585H20.6352H20.6118H20.5885H20.5652H20.5418H20.5185H20.4952H20.4719H20.4485H20.4252H20.4019H20.3785H20.3552H20.3319H20.3085H20.2852H20.2619H20.2386H20.2152H20.1919H20.1686H20.1452H20.1219H20.0986H20.0752H20.0519H20.0286H20.0053H19.9819H19.9586H19.9353H19.9119H19.8886H19.8653H19.8419H19.8186H19.7953H19.772H19.7486H19.7253H19.702H19.6786H19.6553H19.632H19.6087H19.5853H19.562H19.5386H19.5153H19.492H19.4687H19.4454H19.422H19.3987H19.3754H19.352H19.3287H19.3054H19.282H19.2587H19.2354H19.2121H19.1887H19.1654H19.1421H19.1187H19.0954H19.0721H19.0487H19.0254H19.0021H18.9788H18.9554H18.9321H18.9088H18.8854H18.8621H18.812V15.1033C18.8284 15.1173 18.8451 15.1312 18.8621 15.1449C18.8698 15.1512 18.8776 15.1574 18.8854 15.1635C18.8932 15.1696 18.9009 15.1757 18.9088 15.1817C18.9165 15.1876 18.9242 15.1935 18.9321 15.1994C18.9398 15.2052 18.9476 15.2109 18.9554 15.2165C18.9631 15.2222 18.9709 15.2278 18.9788 15.2333C18.9865 15.2388 18.9942 15.2443 19.0021 15.2497L19.0254 15.2657C19.0331 15.2709 19.0409 15.2761 19.0487 15.2812L19.0721 15.2965C19.0798 15.3015 19.0876 15.3064 19.0954 15.3114C19.1031 15.3162 19.1109 15.321 19.1187 15.3258L19.1421 15.34C19.1498 15.3447 19.1576 15.3493 19.1654 15.3539C19.1731 15.3585 19.1809 15.3629 19.1887 15.3674L19.2121 15.3806L19.2354 15.3936L19.2587 15.4062C19.2665 15.4103 19.2742 15.4145 19.282 15.4186C19.2897 15.4227 19.2976 15.4267 19.3054 15.4306L19.3287 15.4425L19.352 15.4541L19.3754 15.4654C19.3831 15.4691 19.3909 15.4728 19.3987 15.4765L19.422 15.4873L19.4454 15.498L19.4687 15.5083L19.492 15.5185L19.5153 15.5284L19.5386 15.5382L19.562 15.5477L19.5853 15.557L19.6087 15.5662L19.632 15.5751C19.6397 15.5781 19.6475 15.581 19.6553 15.584L19.6786 15.5925C19.6864 15.5953 19.6941 15.5982 19.702 15.601C19.7097 15.6037 19.7175 15.6064 19.7253 15.6091L19.7486 15.6172L19.772 15.625C19.7797 15.6276 19.7874 15.6303 19.7953 15.6328C19.803 15.6354 19.8108 15.6378 19.8186 15.6403L19.8419 15.6478L19.8653 15.6549L19.8886 15.6621L19.9119 15.669L19.9353 15.6758L19.9586 15.6824L19.9819 15.6889L20.0053 15.6953L20.0286 15.7015L20.0519 15.7076L20.0752 15.7136L20.0986 15.7194L20.1219 15.7251L20.1452 15.7307L20.1686 15.7361L20.1919 15.7415L20.2152 15.7467L20.2386 15.7518L20.2619 15.7568L20.2852 15.7616L20.3085 15.7664L20.3319 15.771L20.3552 15.7755L20.3785 15.7799L20.4019 15.7842L20.4252 15.7885L20.4485 15.7925L20.4719 15.7966L20.4952 15.8005L20.5185 15.8043L20.5418 15.808L20.5652 15.8116L20.5885 15.8151L20.6118 15.8185L20.6352 15.8219L20.6585 15.8251L20.6818 15.8282L20.7052 15.8313L20.7285 15.8343L20.7518 15.8371L20.7752 15.84L20.7985 15.8427L20.8218 15.8453L20.8451 15.8479L20.8685 15.8503L20.8918 15.8527L20.9151 15.855L20.9385 15.8572L20.9618 15.8594L20.9851 15.8615L21.0084 15.8634L21.0318 15.8654L21.0551 15.8672L21.0784 15.869L21.1018 15.8708L21.1251 15.8723L21.1484 15.8739L21.1718 15.8754L21.1951 15.8768L21.2184 15.8782L21.2418 15.8795L21.2651 15.8806L21.2884 15.8818L21.3117 15.8829L21.3351 15.8839L21.3584 15.8849L21.3817 15.8858L21.4051 15.8866L21.4284 15.8873L21.4517 15.8881L21.4751 15.8887L21.4984 15.8893L21.5217 15.8898L21.545 15.8902L21.5684 15.8906L21.5917 15.891L21.615 15.8913L21.6384 15.8915L21.6617 15.8917L21.685 15.8918L21.7084 15.8918L21.7317 15.8919L21.755 15.8918L21.7783 15.8917L21.8017 15.8915L21.825 15.8914L21.8483 15.891L21.8717 15.8907L21.895 15.8904L21.9183 15.8899L21.9417 15.8895L21.965 15.889L21.9883 15.8884L22.0116 15.8877L22.035 15.8871L22.0583 15.8864L22.0816 15.8856L22.105 15.8848L22.1283 15.884L22.1516 15.883L22.1749 15.882L22.1983 15.8811L22.2097 15.8806L22.2216 15.88L22.245 15.8789L22.2683 15.8776L22.2916 15.8764L22.3149 15.8749L22.3383 15.8735L22.3616 15.8719L22.3849 15.8704L22.4083 15.8686L22.4316 15.8669L22.4549 15.865L22.4782 15.8631L22.5016 15.8611L22.5249 15.8591L22.5482 15.857L22.5716 15.8548L22.5949 15.8525L22.6182 15.8502L22.6416 15.8478L22.6649 15.8454L22.6882 15.8429L22.7115 15.8403L22.7349 15.8377L22.7582 15.835L22.7815 15.8322L22.8049 15.8294L22.8282 15.8265L22.8515 15.8236L22.8749 15.8206L22.8982 15.8176L22.9215 15.8145L22.9448 15.8114L22.9682 15.8082L22.9915 15.8049L23.0148 15.8016L23.0382 15.7983L23.0615 15.7949L23.0848 15.7914L23.1081 15.7879L23.1315 15.7843L23.1548 15.7807L23.1781 15.7771L23.2015 15.7733L23.2248 15.7696L23.2481 15.7658L23.2715 15.7619L23.2948 15.758L23.3181 15.7541L23.3415 15.7501L23.3648 15.746L23.3881 15.742L23.4115 15.7378L23.4348 15.7336L23.4581 15.7294L23.4814 15.7251L23.5048 15.7208L23.5281 15.7164L23.5514 15.712L23.5748 15.7076L23.5981 15.7031L23.6214 15.6985L23.6447 15.6939L23.6681 15.6893L23.6914 15.6846L23.7147 15.6799L23.7381 15.6751L23.7614 15.6703L23.7847 15.6654L23.8081 15.6605L23.8314 15.6555L23.8547 15.6505L23.8781 15.6454L23.9014 15.6403L23.9247 15.6351L23.948 15.6299L23.9714 15.6247L23.9947 15.6193L24.018 15.6139L24.0414 15.6084L24.0647 15.6029L24.088 15.5973L24.1112 15.5915V14.5673L24.088 14.5788L24.0647 14.5904L24.0414 14.6018L24.018 14.6131L23.9947 14.6243L23.9714 14.6354L23.948 14.6464L23.9247 14.6573L23.9014 14.668L23.8781 14.6787L23.8547 14.6892L23.8314 14.6996L23.8081 14.7099L23.7847 14.72L23.7614 14.7301L23.7381 14.74L23.7147 14.7498L23.6914 14.7595L23.6681 14.769L23.6447 14.7784L23.6214 14.7877L23.5981 14.7969L23.5748 14.8059L23.5514 14.8148L23.5281 14.8236L23.5048 14.8322L23.4814 14.8407L23.4581 14.8491L23.4348 14.8574L23.4115 14.8655L23.3881 14.8734L23.3648 14.8813L23.3415 14.889L23.3181 14.8966L23.2948 14.904L23.2715 14.9114L23.2481 14.9185L23.2248 14.9256L23.2015 14.9325L23.1781 14.9393L23.1548 14.946L23.1315 14.9524L23.1081 14.9588L23.0848 14.9651L23.0615 14.9712L23.0382 14.9772L23.0148 14.983L22.9915 14.9888L22.9682 14.9944L22.9448 14.9998L22.9215 15.0051L22.8982 15.0104L22.8749 15.0154L22.8515 15.0204L22.8282 15.0252L22.8049 15.0298L22.7815 15.0344L22.7582 15.0388L22.7349 15.0431L22.7115 15.0473L22.6882 15.0513L22.6649 15.0552L22.6416 15.059L22.6182 15.0626L22.5949 15.0661L22.5716 15.0695L22.5482 15.0728L22.5249 15.076L22.5016 15.079L22.4782 15.0819L22.4549 15.0847L22.4316 15.0873L22.4083 15.0898L22.3849 15.0922L22.3616 15.0945L22.3383 15.0967L22.3149 15.0987L22.2916 15.1006L22.2775 15.1017L22.2683 15.1023L22.245 15.1039L22.2216 15.1055L22.1983 15.1067L22.1749 15.1079L22.1516 15.109L22.1283 15.1097L22.105 15.1105L22.0816 15.111L22.0583 15.1114L22.035 15.1116C22.0272 15.1117 22.0194 15.1116 22.0116 15.1116L21.9883 15.1115L21.965 15.1111L21.9417 15.1106L21.9183 15.11C21.9105 15.1098 21.9028 15.1094 21.895 15.1091C21.8872 15.1088 21.8794 15.1085 21.8717 15.1081L21.8483 15.1068L21.825 15.1054L21.8017 15.1038L21.7783 15.102C21.7706 15.1013 21.7627 15.1008 21.755 15.1001C21.7472 15.0994 21.7395 15.0985 21.7317 15.0977L21.7084 15.0954L21.685 15.0927L21.6617 15.0899L21.6384 15.0868L21.615 15.0835C21.6072 15.0823 21.5994 15.0812 21.5917 15.08C21.5839 15.0788 21.5761 15.0774 21.5684 15.0761C21.5606 15.0748 21.5528 15.0736 21.545 15.0723C21.5372 15.0709 21.5295 15.0693 21.5217 15.0679C21.5139 15.0664 21.5061 15.0651 21.4984 15.0635C21.4905 15.062 21.4828 15.0603 21.4751 15.0586C21.4673 15.057 21.4594 15.0554 21.4517 15.0537C21.4439 15.052 21.4361 15.0502 21.4284 15.0484L21.4051 15.0429C21.3972 15.041 21.3895 15.039 21.3817 15.037C21.3739 15.035 21.3661 15.033 21.3584 15.031C21.3506 15.0289 21.3428 15.0267 21.3351 15.0245C21.3273 15.0223 21.3195 15.0201 21.3117 15.0179C21.3039 15.0155 21.2962 15.0132 21.2884 15.0108C21.2806 15.0084 21.2728 15.006 21.2651 15.0035C21.2573 15.001 21.2495 14.9984 21.2418 14.9958C21.234 14.9932 21.2261 14.9906 21.2184 14.9879C21.2106 14.9851 21.2029 14.9823 21.1951 14.9795C21.1873 14.9766 21.1795 14.9738 21.1718 14.9709C21.1639 14.9679 21.1562 14.9648 21.1484 14.9617C21.1406 14.9586 21.1328 14.9556 21.1251 14.9524C21.1172 14.9492 21.1095 14.9458 21.1018 14.9425C21.094 14.9391 21.0861 14.9358 21.0784 14.9324C21.0706 14.9289 21.0629 14.9252 21.0551 14.9216C21.0473 14.918 21.0395 14.9143 21.0318 14.9106C21.024 14.9068 21.0162 14.903 21.0084 14.8991C21.0006 14.8951 20.9929 14.8911 20.9851 14.8871C20.9773 14.883 20.9695 14.8789 20.9618 14.8747C20.9539 14.8705 20.9462 14.866 20.9385 14.8616C20.9307 14.8572 20.9228 14.8528 20.9151 14.8482C20.9073 14.8436 20.8995 14.8389 20.8918 14.8342C20.884 14.8293 20.8762 14.8244 20.8685 14.8195C20.8607 14.8145 20.8528 14.8096 20.8451 14.8045C20.8373 14.7992 20.8296 14.7938 20.8218 14.7885C20.814 14.7831 20.8062 14.7776 20.7985 14.772C20.7907 14.7664 20.7828 14.7607 20.7752 14.7549C20.7673 14.749 20.7595 14.743 20.7518 14.7369C20.744 14.7307 20.7362 14.7245 20.7285 14.7182C20.7207 14.7118 20.7128 14.7055 20.7052 14.6989C20.6973 14.6922 20.6895 14.6853 20.6818 14.6784C20.6739 14.6713 20.6662 14.6642 20.6585 14.657C20.6506 14.6497 20.6428 14.6423 20.6352 14.6348C20.6273 14.6271 20.6195 14.6194 20.6118 14.6116C20.6039 14.6035 20.5962 14.5952 20.5885 14.5869C20.5806 14.5784 20.5729 14.5698 20.5652 14.5611C20.5573 14.5522 20.5495 14.5431 20.5418 14.534C20.534 14.5246 20.5262 14.5151 20.5185 14.5054C20.5106 14.4955 20.5028 14.4854 20.4952 14.4752C20.4873 14.4647 20.4795 14.454 20.4719 14.4433C20.4639 14.432 20.4561 14.4207 20.4485 14.4092C20.4406 14.3972 20.4328 14.3851 20.4252 14.3728C20.4172 14.36 20.4095 14.3469 20.4019 14.3338C20.3939 14.3199 20.3861 14.3059 20.3785 14.2917C20.3705 14.2766 20.3628 14.2614 20.3552 14.246C20.3472 14.2295 20.3394 14.2129 20.3319 14.196C20.3238 14.1779 20.316 14.1596 20.3085 14.141C20.3003 14.1205 20.2927 14.0995 20.2852 14.0784C20.277 14.0549 20.2692 14.0312 20.2619 14.007C20.2535 13.979 20.2457 13.9505 20.2386 13.9215C20.2297 13.8855 20.222 13.8486 20.2152 13.8111C20.2052 13.7555 20.1974 13.6984 20.1919 13.6397C20.1856 13.5719 20.1824 13.5021 20.1824 13.4303C20.1824 13.3584 20.1856 13.2885 20.1919 13.2207C20.1974 13.162 20.2052 13.1048 20.2152 13.0492C20.222 13.0117 20.2297 12.9748 20.2386 12.9387C20.2457 12.9098 20.2535 12.8813 20.2619 12.8532C20.2692 12.8291 20.277 12.8053 20.2852 12.7818C20.2927 12.7606 20.3003 12.7397 20.3085 12.7191C20.316 12.7005 20.3238 12.6822 20.3319 12.6641C20.3394 12.6472 20.3472 12.6306 20.3552 12.6142C20.3628 12.5987 20.3705 12.5834 20.3785 12.5684C20.3861 12.5542 20.3939 12.5401 20.4019 12.5263C20.4095 12.5131 20.4172 12.5001 20.4252 12.4872C20.4328 12.4749 20.4406 12.4628 20.4485 12.4508C20.4561 12.4393 20.4639 12.428 20.4719 12.4167C20.4795 12.406 20.4873 12.3953 20.4952 12.3848C20.5028 12.3746 20.5106 12.3645 20.5185 12.3546C20.5262 12.3449 20.534 12.3354 20.5418 12.326C20.5495 12.3168 20.5573 12.3078 20.5652 12.2988C20.5729 12.2901 20.5806 12.2815 20.5885 12.273C20.5962 12.2647 20.6039 12.2564 20.6118 12.2483C20.6195 12.2405 20.6273 12.2328 20.6352 12.2251C20.6428 12.2176 20.6506 12.2102 20.6585 12.2029C20.6662 12.1957 20.6739 12.1885 20.6818 12.1815C20.6895 12.1746 20.6973 12.1677 20.7052 12.161C20.7128 12.1544 20.7207 12.1481 20.7285 12.1416C20.7362 12.1353 20.744 12.1291 20.7518 12.123C20.7595 12.1169 20.7673 12.1108 20.7752 12.1049C20.7828 12.0991 20.7907 12.0935 20.7985 12.0879C20.8062 12.0823 20.814 12.0768 20.8218 12.0714C20.8296 12.066 20.8373 12.0606 20.8451 12.0554C20.8528 12.0503 20.8607 12.0453 20.8685 12.0403C20.8762 12.0354 20.884 12.0305 20.8918 12.0257C20.8995 12.0209 20.9073 12.0162 20.9151 12.0116C20.9228 12.007 20.9307 12.0026 20.9385 11.9982C20.9462 11.9938 20.9539 11.9894 20.9618 11.9851C20.9695 11.9809 20.9773 11.9768 20.9851 11.9727C20.9929 11.9687 21.0006 11.9647 21.0084 11.9607C21.0162 11.9568 21.024 11.953 21.0318 11.9492C21.0395 11.9454 21.0473 11.9418 21.0551 11.9382C21.0629 11.9346 21.0706 11.9309 21.0784 11.9274C21.0861 11.924 21.094 11.9207 21.1018 11.9173C21.1095 11.9139 21.1172 11.9106 21.1251 11.9073C21.1328 11.9042 21.1406 11.9011 21.1484 11.898C21.1562 11.895 21.1639 11.8919 21.1718 11.8889C21.1795 11.886 21.1873 11.8832 21.1951 11.8803C21.2029 11.8775 21.2106 11.8746 21.2184 11.8719C21.2261 11.8692 21.234 11.8666 21.2418 11.864C21.2495 11.8614 21.2573 11.8588 21.2651 11.8562C21.2728 11.8538 21.2806 11.8514 21.2884 11.849C21.2962 11.8466 21.3039 11.8442 21.3117 11.8419L21.3351 11.8352C21.3428 11.8331 21.3506 11.8309 21.3584 11.8288C21.3661 11.8267 21.3739 11.8247 21.3817 11.8227C21.3895 11.8208 21.3972 11.8187 21.4051 11.8168L21.4284 11.8114C21.4361 11.8096 21.4439 11.8077 21.4517 11.806C21.4594 11.8043 21.4673 11.8027 21.4751 11.8011C21.4828 11.7995 21.4905 11.7977 21.4984 11.7962C21.5061 11.7947 21.5139 11.7933 21.5217 11.7918C21.5295 11.7904 21.5372 11.7889 21.545 11.7875C21.5528 11.7861 21.5606 11.7849 21.5684 11.7836C21.5761 11.7823 21.5839 11.781 21.5917 11.7797L21.615 11.7763L21.6384 11.7729L21.6617 11.7699L21.685 11.767L21.7084 11.7643L21.7317 11.762C21.7395 11.7612 21.7472 11.7603 21.755 11.7596C21.7627 11.7589 21.7706 11.7584 21.7783 11.7577L21.8017 11.7559L21.825 11.7543L21.8483 11.7529L21.8717 11.7516C21.8794 11.7512 21.8872 11.7509 21.895 11.7506C21.9028 11.7503 21.9105 11.7499 21.9183 11.7497L21.9417 11.7491L21.965 11.7486L21.9883 11.7482L22.0116 11.7481C22.0194 11.7481 22.0272 11.748 22.035 11.7481L22.0583 11.7484L22.0816 11.7487L22.105 11.7492L22.1283 11.75L22.1516 11.7507L22.1749 11.7518L22.1983 11.753L22.2216 11.7542L22.245 11.7558L22.2683 11.7574L22.2775 11.758L22.2916 11.7591L22.3149 11.761L22.3383 11.763L22.3616 11.7651L22.3849 11.7673L22.4083 11.7697L22.4316 11.7722L22.4549 11.7748L22.4782 11.7775L22.5016 11.7804L22.5249 11.7834L22.5482 11.7865L22.5716 11.7897L22.5949 11.7931L22.6182 11.7965L22.6416 11.8002L22.6649 11.8039L22.6882 11.8077L22.7115 11.8117L22.7349 11.8159L22.7582 11.8201L22.7815 11.8245L22.8049 11.829L22.8282 11.8336L22.8515 11.8384L22.8749 11.8433L22.8982 11.8483L22.9215 11.8535L22.9448 11.8587L22.9682 11.8642L22.9915 11.8697L23.0148 11.8754L23.0382 11.8813L23.0615 11.8872L23.0848 11.8933L23.1081 11.8995L23.1315 11.9059L23.1548 11.9124L23.1781 11.919L23.2015 11.9258L23.2248 11.9327L23.2481 11.9398L23.2715 11.947L23.2948 11.9543L23.3181 11.9617L23.3415 11.9693L23.3648 11.977L23.3881 11.9849L23.4115 11.9929L23.4348 12.001L23.4581 12.0093L23.4814 12.0177L23.5048 12.0262L23.5281 12.0349L23.5514 12.0437L23.5748 12.0527L23.5981 12.0617L23.6214 12.0709L23.6447 12.0803L23.6681 12.0897L23.6914 12.0993L23.7147 12.1091L23.7381 12.1189L23.7614 12.1289L23.7847 12.139L23.8081 12.1493L23.8314 12.1596L23.8547 12.1701L23.8781 12.1807L23.9014 12.1915L23.9247 12.2023L23.948 12.2133L23.9714 12.2244L23.9947 12.2356L24.018 12.2469L24.0414 12.2583L24.0647 12.2698L24.088 12.2815L24.1112 12.2932V11.2682L24.088 11.2624L24.0647 11.2568L24.0414 11.2513L24.018 11.2458L23.9947 11.2404L23.9714 11.2351L23.948 11.2298L23.9247 11.2246L23.9014 11.2194L23.8781 11.2143L23.8547 11.2092L23.8314 11.2042L23.8081 11.1992L23.7847 11.1943L23.7614 11.1895L23.7381 11.1846L23.7147 11.1799L23.6914 11.1751L23.6681 11.1704L23.6447 11.1658L23.6214 11.1612L23.5981 11.1567L23.5748 11.1522L23.5514 11.1477L23.5281 11.1433L23.5048 11.139L23.4814 11.1346L23.4581 11.1304L23.4348 11.1262L23.4115 11.122L23.3881 11.1179L23.3648 11.1138L23.3415 11.1097L23.3181 11.1057L23.2948 11.1018L23.2715 11.0979L23.2481 11.094L23.2248 11.0903L23.2015 11.0865L23.1781 11.0828L23.1548 11.0792L23.1315 11.0755L23.1081 11.072L23.0848 11.0685L23.0615 11.065L23.0382 11.0616L23.0148 11.0583L22.9915 11.055L22.9682 11.0517L22.9448 11.0485L22.9215 11.0454L22.8982 11.0423L22.8749 11.0393L22.8515 11.0363L22.8282 11.0334L22.8049 11.0305L22.7815 11.0277L22.7582 11.025L22.7349 11.0223L22.7115 11.0197L22.6882 11.0171L22.6649 11.0147L22.6416 11.0122L22.6182 11.0098L22.5949 11.0075L22.5716 11.0053L22.5482 11.0031L22.5249 11.001L22.5016 10.9989L22.4782 10.997L22.4549 10.9951L22.4316 10.9932L22.4083 10.9915L22.3849 10.9898L22.3616 10.9882L22.3383 10.9866L22.3149 10.9852L22.2916 10.9838L22.2683 10.9826L22.245 10.9813L22.2216 10.9802L22.2097 10.9796L22.1983 10.9792L22.1749 10.9782L22.1516 10.9772L22.1283 10.9763L22.105 10.9754L22.0816 10.9747L22.0583 10.9738L22.035 10.9731L22.0116 10.9725L21.9883 10.9718L21.965 10.9712L21.9417 10.9708L21.9183 10.9703L21.895 10.9698L21.8717 10.9695L21.8483 10.9692L21.825 10.9689L21.8017 10.9687L21.7783 10.9686L21.755 10.9684L21.7317 10.9684L21.7084 10.9684L21.685 10.9685L21.6617 10.9685L21.6384 10.9687L21.615 10.969L21.5917 10.9692L21.5684 10.9696L21.545 10.97L21.5217 10.9704L21.4984 10.971L21.4751 10.9716L21.4517 10.9722L21.4284 10.9729L21.4051 10.9737L21.3817 10.9745L21.3584 10.9754L21.3351 10.9764L21.3117 10.9773L21.2884 10.9785L21.2651 10.9796L21.2418 10.9808L21.2184 10.9821L21.1951 10.9835L21.1718 10.9848L21.1484 10.9864L21.1251 10.9879L21.1018 10.9895L21.0784 10.9913L21.0551 10.9931L21.0318 10.9949L21.0084 10.9968L20.9851 10.9988L20.9618 11.0009L20.9385 11.0031L20.9151 11.0053L20.8918 11.0076L20.8685 11.01L20.8451 11.0124L20.8218 11.015L20.7985 11.0176L20.7752 11.0203L20.7518 11.0232L20.7285 11.026L20.7052 11.029L20.6818 11.0321L20.6585 11.0352L20.6352 11.0385L20.6118 11.0418L20.5885 11.0452L20.5652 11.0488L20.5418 11.0523L20.5185 11.0561L20.4952 11.0599L20.4719 11.0638L20.4485 11.0678L20.4252 11.0718L20.4019 11.0761L20.3785 11.0804L20.3552 11.0848L20.3319 11.0894L20.3085 11.094L20.2852 11.0988L20.2619 11.1036L20.2386 11.1086L20.2152 11.1137L20.1919 11.1189L20.1686 11.1243L20.1452 11.1296L20.1219 11.1353L20.0986 11.141L20.0752 11.1468L20.0519 11.1528L20.0286 11.1589L20.0053 11.1651L19.9819 11.1715L19.9586 11.178L19.9353 11.1846L19.9119 11.1915L19.8886 11.1984L19.8653 11.2055L19.8419 11.2127L19.8186 11.2202C19.8108 11.2227 19.803 11.2251 19.7953 11.2276L19.772 11.2354C19.7642 11.238 19.7563 11.2406 19.7486 11.2433L19.7253 11.2514L19.702 11.2595C19.6941 11.2623 19.6864 11.2652 19.6786 11.268C19.6708 11.2709 19.663 11.2736 19.6553 11.2765L19.632 11.2854C19.6242 11.2883 19.6164 11.2913 19.6087 11.2943L19.5853 11.3035L19.562 11.3128L19.5386 11.3224L19.5153 11.3321L19.492 11.342L19.4687 11.3522L19.4454 11.3626L19.422 11.3732L19.3987 11.384C19.3909 11.3877 19.3831 11.3914 19.3754 11.3952L19.352 11.4065L19.3287 11.4181L19.3054 11.4299C19.2976 11.4339 19.2897 11.4379 19.282 11.4419C19.2742 11.4461 19.2665 11.4502 19.2587 11.4544L19.2354 11.467L19.2121 11.4799C19.2042 11.4843 19.1965 11.4888 19.1887 11.4932C19.1809 11.4977 19.1731 11.5022 19.1654 11.5067C19.1576 11.5113 19.1498 11.5159 19.1421 11.5206C19.1342 11.5253 19.1265 11.53 19.1187 11.5348C19.1109 11.5396 19.1031 11.5444 19.0954 11.5493C19.0876 11.5542 19.0798 11.5592 19.0721 11.5642L19.0487 11.5794C19.0409 11.5846 19.0331 11.5897 19.0254 11.5949L19.0021 11.6109C18.9942 11.6164 18.9865 11.6219 18.9788 11.6274C18.9709 11.6329 18.9631 11.6385 18.9554 11.6441C18.9476 11.6498 18.9398 11.6555 18.9321 11.6613C18.9242 11.6672 18.9165 11.6731 18.9088 11.679C18.9009 11.6851 18.8932 11.6911 18.8854 11.6972C18.8776 11.7034 18.8698 11.7096 18.8621 11.7158V11.7158Z" fill="url(#paint2_linear_1064_2177)"/>
<defs>
<linearGradient id="paint0_linear_1064_2177" x1="25.5103" y1="13.4299" x2="31.4831" y2="13.4299" gradientUnits="userSpaceOnUse">
<stop stop-color="#007B40"/>
<stop offset="1" stop-color="#55B330"/>
</linearGradient>
<linearGradient id="paint1_linear_1064_2177" x1="12.1133" y1="13.4299" x2="18.0854" y2="13.4299" gradientUnits="userSpaceOnUse">
<stop stop-color="#1D2970"/>
<stop offset="1" stop-color="#006DBA"/>
</linearGradient>
<linearGradient id="paint2_linear_1064_2177" x1="18.812" y1="13.4299" x2="24.7844" y2="13.4299" gradientUnits="userSpaceOnUse">
<stop stop-color="#6E2B2F"/>
<stop offset="1" stop-color="#E30138"/>
</linearGradient>
</defs>
</svg>
