<svg width="43" height="27" viewBox="0 0 43 27" fill="none" xmlns="http://www.w3.org/2000/svg">
<rect x="0.96875" width="41.9689" height="26.8601" rx="2.51813" fill="#1C1C1C"/>
<path d="M25.6247 20.0303H18.2808V6.83203H25.6247V20.0303Z" fill="#6C6BBD"/>
<path d="M18.7511 13.4295C18.7511 10.7521 20.0047 8.36725 21.9567 6.83034C20.5292 5.70647 18.7276 5.03568 16.7697 5.03568C12.1344 5.03568 8.37695 8.79364 8.37695 13.4295C8.37695 18.0653 12.1344 21.8232 16.7697 21.8232C18.7276 21.8232 20.5292 21.1524 21.9567 20.0286C20.0047 18.4917 18.7511 16.1068 18.7511 13.4295Z" fill="#EB001B"/>
<path d="M35.5291 13.4295C35.5291 18.0653 31.7716 21.8232 27.1363 21.8232C25.1784 21.8232 23.3768 21.1524 21.9487 20.0286C23.9014 18.4917 25.1549 16.1068 25.1549 13.4295C25.1549 10.7521 23.9014 8.36725 21.9487 6.83034C23.3768 5.70647 25.1784 5.03568 27.1363 5.03568C31.7716 5.03568 35.5291 8.79364 35.5291 13.4295Z" fill="#0099DF"/>
<path d="M29.5206 11.9949C29.6407 11.9949 29.8134 12.0178 29.9454 12.0697L29.7616 12.6319C29.6355 12.58 29.5094 12.5629 29.3886 12.5629C28.9985 12.5629 28.8034 12.8151 28.8034 13.2682V14.8062H28.2065V12.0638H28.7975V12.3968C28.9525 12.1557 29.1764 11.9949 29.5206 11.9949ZM27.3153 12.6089H26.3401V13.8481C26.3401 14.1232 26.4373 14.3071 26.7361 14.3071C26.8911 14.3071 27.0861 14.2552 27.2635 14.1521L27.4355 14.6624C27.2464 14.7944 26.9482 14.8752 26.6902 14.8752C25.9842 14.8752 25.7379 14.4962 25.7379 13.8592V12.6089H25.181V12.0638H25.7379V11.2318H26.3401V12.0638H27.3153V12.6089ZM19.6785 13.194C19.7422 12.798 19.9826 12.5281 20.4074 12.5281C20.7916 12.5281 21.0385 12.7691 21.1016 13.194H19.6785ZM21.7215 13.435C21.7156 12.58 21.1876 11.9949 20.4186 11.9949C19.6155 11.9949 19.0533 12.58 19.0533 13.435C19.0533 14.3065 19.6384 14.8745 20.4593 14.8745C20.8724 14.8745 21.2507 14.7714 21.5836 14.4903L21.2907 14.0484C21.0615 14.2323 20.7686 14.3354 20.4935 14.3354C20.1093 14.3354 19.7593 14.1574 19.6732 13.6642H21.7097C21.7156 13.5893 21.7215 13.5151 21.7215 13.435ZM24.3431 12.7639C24.1769 12.6601 23.8387 12.5281 23.4887 12.5281C23.1617 12.5281 22.9666 12.6489 22.9666 12.8499C22.9666 13.0331 23.1728 13.085 23.4309 13.1191L23.712 13.1592C24.3089 13.2459 24.6701 13.4981 24.6701 13.9801C24.6701 14.5022 24.2111 14.8752 23.4198 14.8752C22.9719 14.8752 22.5588 14.7602 22.2318 14.5192L22.5128 14.0543C22.7138 14.2093 23.0126 14.3413 23.4257 14.3413C23.8328 14.3413 24.0508 14.2211 24.0508 14.0083C24.0508 13.854 23.8959 13.7673 23.5688 13.722L23.2878 13.6819C22.6737 13.5952 22.3408 13.3201 22.3408 12.8729C22.3408 12.3278 22.7887 11.9949 23.4828 11.9949C23.9189 11.9949 24.3148 12.0927 24.6012 12.2818L24.3431 12.7639ZM31.7015 12.5616C31.5787 12.5616 31.4651 12.5833 31.3593 12.6259C31.2543 12.6693 31.163 12.7297 31.0861 12.8072C31.0093 12.8847 30.9489 12.9779 30.9049 13.0863C30.8609 13.1947 30.8392 13.3142 30.8392 13.4442C30.8392 13.5749 30.8609 13.6938 30.9049 13.8021C30.9489 13.9105 31.0093 14.0037 31.0861 14.0812C31.163 14.1587 31.2543 14.2191 31.3593 14.2625C31.4651 14.3058 31.5787 14.3268 31.7015 14.3268C31.8243 14.3268 31.9385 14.3058 32.0436 14.2625C32.1494 14.2191 32.2413 14.1587 32.3181 14.0812C32.3963 14.0037 32.4567 13.9105 32.5013 13.8021C32.5453 13.6938 32.567 13.5749 32.567 13.4442C32.567 13.3142 32.5453 13.1947 32.5013 13.0863C32.4567 12.9779 32.3963 12.8847 32.3181 12.8072C32.2413 12.7297 32.1494 12.6693 32.0436 12.6259C31.9385 12.5833 31.8243 12.5616 31.7015 12.5616ZM31.7015 11.9949C31.9143 11.9949 32.1113 12.0316 32.2925 12.1058C32.4738 12.1794 32.6307 12.2812 32.7627 12.4105C32.8954 12.5399 32.9985 12.6929 33.0733 12.8689C33.1482 13.0456 33.1856 13.2373 33.1856 13.4442C33.1856 13.6511 33.1482 13.8428 33.0733 14.0195C32.9985 14.1955 32.8954 14.3491 32.7627 14.4785C32.6307 14.6079 32.4738 14.709 32.2925 14.7832C32.1113 14.8568 31.9143 14.8936 31.7015 14.8936C31.4887 14.8936 31.2917 14.8568 31.1104 14.7832C30.9292 14.709 30.7736 14.6079 30.6422 14.4785C30.5109 14.3491 30.4078 14.1955 30.3329 14.0195C30.258 13.8428 30.2206 13.6511 30.2206 13.4442C30.2206 13.2373 30.258 13.0456 30.3329 12.8689C30.4078 12.6929 30.5109 12.5399 30.6422 12.4105C30.7736 12.2812 30.9292 12.1794 31.1104 12.1058C31.2917 12.0316 31.4887 11.9949 31.7015 11.9949ZM16.1927 13.435C16.1927 12.953 16.5086 12.557 17.0247 12.557C17.5179 12.557 17.8509 12.9359 17.8509 13.435C17.8509 13.9341 17.5179 14.3124 17.0247 14.3124C16.5086 14.3124 16.1927 13.917 16.1927 13.435ZM18.413 13.435V12.0638H17.8167V12.3968C17.6269 12.1498 17.3406 11.9949 16.9505 11.9949C16.1815 11.9949 15.5793 12.5971 15.5793 13.435C15.5793 14.2723 16.1815 14.8752 16.9505 14.8752C17.3406 14.8752 17.6269 14.7202 17.8167 14.4733V14.8062H18.413V13.435ZM15.0513 14.8062V13.085C15.0513 12.4368 14.6383 12.0008 13.973 11.9949C13.623 11.9889 13.2612 12.098 13.009 12.4828C12.8199 12.1787 12.5211 11.9949 12.1021 11.9949C11.8098 11.9949 11.5229 12.0809 11.2989 12.402V12.0638H10.7026V14.8062H11.3048V13.2859C11.3048 12.8098 11.5688 12.557 11.976 12.557C12.372 12.557 12.5729 12.8151 12.5729 13.28V14.8062H13.1751V13.2859C13.1751 12.8098 13.451 12.557 13.8463 12.557C14.2541 12.557 14.4491 12.8151 14.4491 13.28V14.8062H15.0513Z" fill="white"/>
</svg>
