<svg width="42" height="27" viewBox="0 0 42 27" fill="none" xmlns="http://www.w3.org/2000/svg">
<rect width="41.9689" height="26.8601" rx="2.51813" fill="#1C1C1C"/>
<path d="M24.6471 20.0312H17.3032V6.83301H24.6471V20.0312Z" fill="#FF5F00"/>
<path d="M17.7736 13.4314C17.7736 10.7541 19.0271 8.36921 20.9792 6.8323C19.5517 5.70843 17.7501 5.03763 15.7921 5.03763C11.1568 5.03763 7.39941 8.79559 7.39941 13.4314C7.39941 18.0672 11.1568 21.8252 15.7921 21.8252C17.7501 21.8252 19.5517 21.1544 20.9792 20.0305C19.0271 18.4936 17.7736 16.1087 17.7736 13.4314Z" fill="#EB001B"/>
<path d="M34.5515 13.4314C34.5515 18.0672 30.7941 21.8252 26.1588 21.8252C24.2008 21.8252 22.3992 21.1544 20.9712 20.0305C22.9238 18.4936 24.1774 16.1087 24.1774 13.4314C24.1774 10.7541 22.9238 8.36921 20.9712 6.8323C22.3992 5.70843 24.2008 5.03763 26.1588 5.03763C30.7941 5.03763 34.5515 8.79559 34.5515 13.4314Z" fill="#F79E1B"/>
<path d="M13.715 13.4837C13.715 13.117 13.9552 12.8158 14.3478 12.8158C14.723 12.8158 14.9762 13.1041 14.9762 13.4837C14.9762 13.8633 14.723 14.1515 14.3478 14.1515C13.9552 14.1515 13.715 13.8503 13.715 13.4837ZM15.4038 13.4837V12.4407H14.9502V12.694C14.8064 12.5061 14.5881 12.3883 14.2914 12.3883C13.7065 12.3883 13.2479 12.8468 13.2479 13.4837C13.2479 14.1211 13.7065 14.5791 14.2914 14.5791C14.5881 14.5791 14.8064 14.4612 14.9502 14.2734V14.5267H15.4038V13.4837ZM30.7307 13.4837C30.7307 13.117 30.9709 12.8158 31.3635 12.8158C31.7392 12.8158 31.9919 13.1041 31.9919 13.4837C31.9919 13.8633 31.7392 14.1515 31.3635 14.1515C30.9709 14.1515 30.7307 13.8503 30.7307 13.4837ZM32.42 13.4837V11.603H31.9659V12.694C31.8221 12.5061 31.6038 12.3883 31.3071 12.3883C30.7222 12.3883 30.2636 12.8468 30.2636 13.4837C30.2636 14.1211 30.7222 14.5791 31.3071 14.5791C31.6038 14.5791 31.8221 14.4612 31.9659 14.2734V14.5267H32.42V13.4837ZM21.0337 12.7944C21.3259 12.7944 21.5138 12.9777 21.5617 13.3004H20.4793C20.5277 12.9992 20.7105 12.7944 21.0337 12.7944ZM21.0427 12.3883C20.4313 12.3883 20.0037 12.8333 20.0037 13.4837C20.0037 14.147 20.4488 14.5791 21.0732 14.5791C21.3874 14.5791 21.6751 14.5007 21.9283 14.2869L21.7061 13.9507C21.5312 14.0901 21.3085 14.169 21.0992 14.169C20.807 14.169 20.5407 14.0336 20.4753 13.658H22.0243C22.0287 13.6016 22.0332 13.5446 22.0332 13.4837C22.0287 12.8333 21.6271 12.3883 21.0427 12.3883ZM26.5193 13.4837C26.5193 13.117 26.7596 12.8158 27.1522 12.8158C27.5273 12.8158 27.7806 13.1041 27.7806 13.4837C27.7806 13.8633 27.5273 14.1515 27.1522 14.1515C26.7596 14.1515 26.5193 13.8503 26.5193 13.4837ZM28.2081 13.4837V12.4407H27.7546V12.694C27.6102 12.5061 27.3925 12.3883 27.0957 12.3883C26.5108 12.3883 26.0523 12.8468 26.0523 13.4837C26.0523 14.1211 26.5108 14.5791 27.0957 14.5791C27.3925 14.5791 27.6102 14.4612 27.7546 14.2734V14.5267H28.2081V13.4837ZM23.9578 13.4837C23.9578 14.1166 24.3984 14.5791 25.0707 14.5791C25.3849 14.5791 25.5942 14.5092 25.821 14.3303L25.6032 13.9637C25.4329 14.0861 25.2541 14.1515 25.0573 14.1515C24.6951 14.147 24.4289 13.8853 24.4289 13.4837C24.4289 13.0821 24.6951 12.8203 25.0573 12.8158C25.2541 12.8158 25.4329 12.8813 25.6032 13.0037L25.821 12.637C25.5942 12.4582 25.3849 12.3883 25.0707 12.3883C24.3984 12.3883 23.9578 12.8508 23.9578 13.4837ZM29.8056 12.3883C29.5438 12.3883 29.3735 12.5106 29.2556 12.694V12.4407H28.8061V14.5267H29.2601V13.3573C29.2601 13.0121 29.4085 12.8203 29.7052 12.8203C29.7971 12.8203 29.893 12.8333 29.9889 12.8728L30.1288 12.4452C30.0284 12.4057 29.8975 12.3883 29.8056 12.3883ZM17.6471 12.6065C17.4288 12.4627 17.1281 12.3883 16.7964 12.3883C16.2679 12.3883 15.9278 12.6415 15.9278 13.0561C15.9278 13.3963 16.181 13.6061 16.6476 13.6715L16.8618 13.702C17.1106 13.7369 17.228 13.8024 17.228 13.9203C17.228 14.0816 17.0621 14.1735 16.7525 14.1735C16.4383 14.1735 16.2115 14.0731 16.0586 13.9552L15.8448 14.3084C16.0936 14.4917 16.4078 14.5791 16.748 14.5791C17.3504 14.5791 17.6995 14.2954 17.6995 13.8983C17.6995 13.5316 17.4248 13.3398 16.9707 13.2744L16.7569 13.2434C16.5606 13.2174 16.4033 13.1785 16.4033 13.0386C16.4033 12.8858 16.5517 12.7944 16.8004 12.7944C17.0666 12.7944 17.3244 12.8948 17.4508 12.9732L17.6471 12.6065ZM23.4993 12.3883C23.2376 12.3883 23.0672 12.5106 22.9498 12.694V12.4407H22.5003V14.5267H22.9538V13.3573C22.9538 13.0121 23.1022 12.8203 23.3989 12.8203C23.4908 12.8203 23.5867 12.8333 23.6826 12.8728L23.8225 12.4452C23.7221 12.4057 23.5912 12.3883 23.4993 12.3883ZM19.6286 12.4407H18.8868V11.8078H18.4283V12.4407H18.0052V12.8553H18.4283V13.8069C18.4283 14.2909 18.6161 14.5791 19.1526 14.5791C19.3494 14.5791 19.5762 14.5182 19.72 14.4178L19.5892 14.0291C19.4538 14.1076 19.3054 14.147 19.1876 14.147C18.9608 14.147 18.8868 14.0072 18.8868 13.7979V12.8553H19.6286V12.4407ZM12.8468 14.5267V13.2174C12.8468 12.7244 12.5326 12.3928 12.0261 12.3883C11.7599 12.3838 11.4852 12.4667 11.2928 12.7594C11.149 12.5281 10.9222 12.3883 10.6035 12.3883C10.3807 12.3883 10.163 12.4537 9.99263 12.698V12.4407H9.53857V14.5267H9.99662V13.3703C9.99662 13.0082 10.1974 12.8158 10.5076 12.8158C10.8088 12.8158 10.9612 13.0121 10.9612 13.3658V14.5267H11.4197V13.3703C11.4197 13.0082 11.629 12.8158 11.9302 12.8158C12.2399 12.8158 12.3883 13.0121 12.3883 13.3658V14.5267H12.8468Z" fill="white"/>
</svg>
