<svg width="43" height="27" viewBox="0 0 43 27" fill="none" xmlns="http://www.w3.org/2000/svg">
<rect x="0.844727" width="41.9689" height="26.8601" rx="2.51813" fill="#1C1C1C"/>
<path d="M13.6664 5.03613H20.3649C21.3 5.03613 21.8816 5.79828 21.6634 6.73644L18.5448 20.126C18.3247 21.0609 17.3885 21.8237 16.4528 21.8237H9.7549C8.82115 21.8237 8.23827 21.0609 8.4564 20.126L11.5764 6.73644C11.7945 5.79828 12.7302 5.03613 13.6664 5.03613Z" fill="#E21836"/>
<path d="M19.8076 5.03613H27.5107C28.4456 5.03613 28.024 5.79828 27.8041 6.73644L24.686 20.126C24.4672 21.0609 24.5354 21.8237 23.5986 21.8237H15.8954C14.9586 21.8237 14.3788 21.0609 14.5989 20.126L17.7169 6.73644C17.9383 5.79828 18.872 5.03613 19.8076 5.03613Z" fill="#00447C"/>
<path d="M27.2052 5.03613H33.9037C34.8401 5.03613 35.4217 5.79828 35.2018 6.73644L32.0836 20.126C31.8635 21.0609 30.9267 21.8237 29.9905 21.8237H23.295C22.3582 21.8237 21.7771 21.0609 21.9965 20.126L25.1152 6.73644C25.3333 5.79828 26.2684 5.03613 27.2052 5.03613Z" fill="#007B84"/>
<path d="M15.4156 9.32735C14.7268 9.33437 14.5234 9.32735 14.4584 9.312C14.4334 9.4307 13.9686 11.5749 13.9673 11.5767C13.8672 12.0106 13.7944 12.3198 13.547 12.5195C13.4066 12.6356 13.2427 12.6916 13.0526 12.6916C12.7471 12.6916 12.5692 12.5399 12.5393 12.2522L12.5336 12.1534C12.5336 12.1534 12.6266 11.5723 12.6266 11.5691C12.6266 11.5691 13.1145 9.61504 13.2018 9.35674C13.2064 9.34205 13.2077 9.33437 13.2089 9.32735C12.2593 9.33568 12.0909 9.32735 12.0794 9.312C12.073 9.33307 12.0495 9.45421 12.0495 9.45421L11.5513 11.6566L11.5086 11.8434L11.4258 12.4543C11.4258 12.6356 11.4614 12.7835 11.5322 12.9085C11.7592 13.3051 12.4066 13.3646 12.7728 13.3646C13.2446 13.3646 13.6873 13.2643 13.9864 13.0813C14.5056 12.7745 14.6414 12.295 14.7626 11.8688L14.8187 11.6502C14.8187 11.6502 15.3213 9.62075 15.4067 9.35674C15.4099 9.34205 15.4112 9.33437 15.4156 9.32735ZM17.1255 10.9645C17.0044 10.9645 16.783 10.9939 16.5841 11.0914C16.512 11.1285 16.4437 11.1712 16.3717 11.2139L16.4367 10.9792L16.4011 10.9397C15.9794 11.0251 15.885 11.0365 15.4954 11.0914L15.4628 11.1131C15.4176 11.4882 15.3774 11.7701 15.2097 12.5073C15.1459 12.779 15.0796 13.0533 15.0131 13.3243L15.0311 13.3588C15.4303 13.3377 15.5514 13.3377 15.8984 13.3434L15.9265 13.3129C15.9706 13.0871 15.9763 13.0342 16.0739 12.5768C16.1198 12.36 16.2155 11.8836 16.2626 11.714C16.3493 11.6738 16.4349 11.6343 16.5165 11.6343C16.711 11.6343 16.6873 11.8039 16.6798 11.8715C16.6715 11.985 16.6006 12.3556 16.528 12.6738L16.4795 12.8792C16.4457 13.0309 16.4086 13.1783 16.3748 13.3287L16.3895 13.3588C16.783 13.3377 16.903 13.3377 17.239 13.3434L17.2785 13.3129C17.3393 12.9602 17.3571 12.8658 17.4648 12.3523L17.519 12.1164C17.6243 11.6547 17.6772 11.4206 17.5976 11.2299C17.5133 11.0161 17.3112 10.9645 17.1255 10.9645ZM19.0357 11.448C18.8265 11.4881 18.6931 11.5149 18.5606 11.5322C18.4291 11.5533 18.301 11.5724 18.0988 11.6005L18.0828 11.615L18.0681 11.6266C18.0471 11.7771 18.0324 11.9073 18.0045 12.0602C17.9808 12.2184 17.9444 12.3982 17.8851 12.6565C17.8392 12.8542 17.8156 12.9231 17.7894 12.9927C17.764 13.0622 17.7359 13.1298 17.6843 13.3243L17.6964 13.3422L17.7065 13.3587C17.8954 13.3498 18.019 13.3434 18.146 13.3422C18.2729 13.3377 18.4043 13.3422 18.6077 13.3434L18.6255 13.3289L18.6446 13.3129C18.674 13.1375 18.6784 13.0903 18.6964 13.0048C18.7142 12.913 18.7449 12.786 18.8202 12.4467C18.8558 12.2873 18.8954 12.1285 18.9323 11.9659C18.9707 11.8039 19.0109 11.6444 19.0491 11.485L19.0434 11.4658L19.0357 11.448ZM19.0401 10.7962C18.8501 10.684 18.5165 10.7196 18.292 10.8745C18.0682 11.0264 18.0427 11.2419 18.2321 11.3555C18.4189 11.4646 18.7538 11.4321 18.9763 11.2758C19.1997 11.1207 19.2276 10.9072 19.0401 10.7962ZM20.1895 13.3939C20.574 13.3939 20.9681 13.2879 21.2648 12.9735C21.493 12.7184 21.5977 12.339 21.6339 12.1827C21.752 11.6648 21.6601 11.423 21.5446 11.2758C21.3693 11.0513 21.0594 10.9793 20.7379 10.9793C20.5446 10.9793 20.0842 10.9984 19.7245 11.33C19.4662 11.5692 19.3468 11.8937 19.2748 12.2049C19.2022 12.522 19.1186 13.0928 19.6435 13.3052C19.8055 13.3748 20.039 13.3939 20.1895 13.3939ZM20.1594 12.2286C20.2481 11.8364 20.3528 11.5073 20.6199 11.5073C20.8292 11.5073 20.8444 11.7522 20.7513 12.1457C20.7347 12.233 20.6582 12.5578 20.5549 12.6961C20.4827 12.7981 20.3973 12.86 20.303 12.86C20.2749 12.86 20.1079 12.86 20.1052 12.612C20.1039 12.4895 20.1289 12.3645 20.1594 12.2286ZM22.5951 13.3435L22.6252 13.3129C22.6678 13.0871 22.6748 13.0341 22.7692 12.5769C22.8164 12.3601 22.914 11.8836 22.9599 11.714C23.0467 11.6737 23.1308 11.6342 23.2151 11.6342C23.4082 11.6342 23.3847 11.8038 23.377 11.8714C23.37 11.985 23.2992 12.3555 23.2252 12.6737L23.1793 12.8791C23.1442 13.031 23.106 13.1782 23.0722 13.3288L23.0869 13.3588C23.4817 13.3377 23.5971 13.3377 23.9351 13.3435L23.9759 13.3129C24.0352 12.9601 24.0512 12.8657 24.1622 12.3524L24.2151 12.1163C24.3209 11.6546 24.3745 11.4206 24.2961 11.2299C24.2094 11.0162 24.006 10.9646 23.8229 10.9646C23.7016 10.9646 23.4791 10.9938 23.2814 11.0915C23.2107 11.1285 23.1398 11.1711 23.0702 11.2139L23.1308 10.9793L23.0983 10.9396C22.6768 11.0252 22.5804 11.0366 22.1914 11.0915L22.1615 11.1132C22.1143 11.4882 22.0759 11.77 21.9082 12.5073C21.8444 12.779 21.7781 13.0533 21.7118 13.3244L21.7296 13.3588C22.1295 13.3377 22.2488 13.3377 22.5951 13.3435ZM25.4957 13.3587C25.5205 13.2376 25.668 12.5195 25.6693 12.5195C25.6693 12.5195 25.7948 11.9926 25.8025 11.9735C25.8025 11.9735 25.842 11.9187 25.8815 11.897H25.9397C26.4881 11.897 27.1074 11.897 27.5928 11.5399C27.9231 11.295 28.1489 10.9333 28.2496 10.4938C28.2757 10.386 28.295 10.2579 28.295 10.1297C28.295 9.96137 28.2612 9.79483 28.1636 9.6647C27.9161 9.31841 27.4231 9.31204 26.8541 9.30943C26.8523 9.30943 26.5736 9.31204 26.5736 9.31204C25.8453 9.32102 25.5532 9.31841 25.4332 9.30371C25.4231 9.35677 25.404 9.45114 25.404 9.45114C25.404 9.45114 25.1431 10.6603 25.1431 10.6623C25.1431 10.6623 24.5187 13.2332 24.4893 13.3543C25.1253 13.3466 25.386 13.3466 25.4957 13.3587ZM25.9792 11.2107C25.9792 11.2107 26.2566 10.004 26.2553 10.0086L26.2642 9.94667L26.2682 9.89949L26.379 9.91092C26.379 9.91092 26.9511 9.96006 26.9645 9.96137C27.1903 10.0487 27.2834 10.2739 27.2184 10.5678C27.1591 10.8363 26.9849 11.0621 26.7611 11.1712C26.5767 11.2636 26.3509 11.2713 26.1183 11.2713H25.9677L25.9792 11.2107ZM27.7063 12.251C27.633 12.5635 27.5488 13.1343 28.0711 13.3377C28.2376 13.4086 28.3868 13.4296 28.5385 13.422C28.6987 13.4133 28.8471 13.333 28.9846 13.2174C28.9722 13.2649 28.9598 13.3124 28.9473 13.3601L28.971 13.3906C29.3467 13.3748 29.4633 13.3748 29.8703 13.3779L29.9072 13.3498C29.9667 13.0004 30.0227 12.6611 30.1771 11.9927C30.2524 11.6725 30.3275 11.3554 30.4047 11.0366L30.3926 11.0015C29.9724 11.0793 29.86 11.096 29.4558 11.1533L29.4251 11.1783C29.421 11.2108 29.4168 11.242 29.4128 11.2731C29.35 11.1716 29.2589 11.0849 29.1183 11.0308C28.9385 10.9601 28.5163 11.0513 28.1534 11.3817C27.8983 11.6176 27.7759 11.9409 27.7063 12.251ZM28.589 12.2701C28.6789 11.8849 28.7823 11.559 29.05 11.559C29.2194 11.559 29.3085 11.7153 29.2904 11.9817C29.276 12.0482 29.2605 12.1182 29.2421 12.1974C29.2153 12.3119 29.1862 12.4253 29.158 12.539C29.1292 12.6167 29.0958 12.69 29.059 12.7388C28.9901 12.8365 28.8262 12.897 28.7318 12.897C28.7051 12.897 28.5398 12.897 28.5341 12.6534C28.5328 12.5321 28.5578 12.4072 28.589 12.2701ZM33.1982 10.9983L33.1657 10.9613C32.7499 11.0455 32.6746 11.0589 32.2925 11.1105L32.2645 11.1386C32.2631 11.1432 32.262 11.1502 32.26 11.1565L32.2587 11.1502C31.9743 11.8064 31.9826 11.6648 31.7511 12.1814C31.7498 12.1579 31.7498 12.1432 31.7485 12.1182L31.6906 10.9983L31.6541 10.9613C31.2185 11.0455 31.2083 11.0589 30.8059 11.1105L30.7746 11.1386C30.7702 11.152 30.7702 11.1667 30.7676 11.1827L30.7702 11.1884C30.8205 11.4454 30.8084 11.3881 30.8588 11.7936C30.8824 11.9927 30.9137 12.1928 30.9372 12.3894C30.9769 12.7184 30.9991 12.8804 31.0476 13.3824C30.7759 13.8308 30.7116 14.0004 30.45 14.3939L30.4518 14.3978L30.2676 14.6891C30.2466 14.7198 30.2275 14.7408 30.2007 14.7498C30.1713 14.7644 30.1331 14.767 30.08 14.767H29.978L29.8263 15.2715L30.3467 15.2805C30.6521 15.2791 30.8442 15.1363 30.9475 14.9443L31.2747 14.3836H31.2695L31.3039 14.3441C31.524 13.8703 33.1982 10.9983 33.1982 10.9983ZM27.7063 17.6243H27.4856L28.3026 14.922H28.5736L28.6596 14.6436L28.668 14.9532C28.6579 15.1445 28.8084 15.3142 29.2038 15.2861H29.6612L29.8185 14.7657H29.6465C29.5475 14.7657 29.5016 14.7408 29.5074 14.6872L29.499 14.3723H28.6521V14.3739C28.3783 14.3796 27.5607 14.4002 27.3951 14.4443C27.1948 14.4959 26.9837 14.6477 26.9837 14.6477L27.0666 14.369H26.2744L26.1093 14.922L25.2814 17.6656H25.1207L24.9632 18.1822H26.541L26.4881 18.3544H27.2656L27.3172 18.1822H27.5354L27.7063 17.6243ZM27.0589 15.4711C26.9321 15.5062 26.696 15.6126 26.696 15.6126L26.9059 14.922H27.5354L27.3835 15.4252C27.3835 15.4252 27.1891 15.4366 27.0589 15.4711ZM27.071 16.4577C27.071 16.4577 26.8733 16.4825 26.7432 16.5119C26.615 16.5508 26.3747 16.6732 26.3747 16.6732L26.5915 15.9545H27.2242L27.071 16.4577ZM26.7184 17.6307H26.087L26.27 17.0241H26.8994L26.7184 17.6307ZM28.2388 15.9545H29.1489L29.0181 16.378H28.096L27.9575 16.8411H28.7644L28.1534 17.7014C28.1107 17.7645 28.0723 17.7869 28.0297 17.8047C27.9869 17.8264 27.9307 17.8519 27.8658 17.8519H27.6419L27.4881 18.359H28.0736C28.3779 18.359 28.5577 18.2206 28.6904 18.0388L29.1094 17.4654L29.1994 18.0477C29.2185 18.1567 29.2968 18.2206 29.3499 18.2454C29.4085 18.2748 29.4691 18.3252 29.5546 18.3327C29.6464 18.3367 29.7127 18.3398 29.7568 18.3398H30.0445L30.2172 17.7722H30.1037C30.0386 17.7722 29.9264 17.7613 29.9073 17.7409C29.8882 17.7161 29.8882 17.6779 29.8779 17.6197L29.7866 17.0362H29.4129L29.5768 16.8411H30.4972L30.6388 16.378H29.7866L29.9194 15.9545H30.7689L30.9264 15.4322H28.3938L28.2388 15.9545ZM20.5523 17.7486L20.7647 17.042H21.6377L21.7973 16.5164H20.9234L21.0568 16.0814H21.9107L22.0689 15.5725H19.9324L19.7774 16.0814H20.2628L20.1334 16.5164H19.6466L19.4853 17.0509H19.9706L19.6875 17.9858C19.6493 18.1096 19.7054 18.1568 19.741 18.2142C19.7774 18.2702 19.8143 18.3073 19.8973 18.3284C19.9828 18.3475 20.0414 18.3589 20.1211 18.3589H21.1053L21.2807 17.7767L20.8444 17.8366C20.7602 17.8366 20.5268 17.8265 20.5523 17.7486ZM20.6524 14.3658L20.4312 14.7657C20.3839 14.853 20.3412 14.9072 20.3029 14.9322C20.2691 14.9533 20.2021 14.9621 20.1052 14.9621H19.9897L19.8354 15.4736H20.2188C20.4031 15.4736 20.5447 15.406 20.6123 15.3722C20.6849 15.3334 20.704 15.3556 20.7602 15.3014L20.8897 15.1892H22.0868L22.2456 14.6566H21.3694L21.5224 14.3658H20.6524ZM22.4198 17.7589C22.3993 17.7295 22.414 17.6777 22.4452 17.57L22.7724 16.487H23.9364C24.106 16.4845 24.2285 16.4826 24.3082 16.4769C24.3937 16.4679 24.4868 16.4373 24.5882 16.3825C24.6928 16.325 24.7464 16.2644 24.7916 16.1949C24.8421 16.1255 24.923 15.9737 24.9926 15.7395L25.4039 14.369L24.196 14.376C24.196 14.376 23.8241 14.4309 23.6603 14.4915C23.4951 14.5591 23.259 14.7478 23.259 14.7478L23.368 14.3721H22.6219L21.5773 17.8366C21.5402 17.9711 21.5154 18.0688 21.5097 18.1274C21.5077 18.1906 21.5894 18.2531 21.6423 18.3003C21.7048 18.3475 21.7972 18.3398 21.8859 18.3475C21.9791 18.3545 22.1117 18.3589 22.2947 18.3589H22.8681L23.0441 17.7646L22.5308 17.8131C22.4759 17.8131 22.4362 17.7837 22.4198 17.7589ZM22.9835 15.7555H24.2061L24.1284 15.9991C24.1175 16.0048 24.0913 15.987 23.9669 16.0017H22.9083L22.9835 15.7555ZM23.2284 14.9385H24.4613L24.3726 15.2319C24.3726 15.2319 23.7916 15.2262 23.6985 15.2433C23.289 15.3142 23.0498 15.533 23.0498 15.533L23.2284 14.9385ZM24.1558 16.8149C24.1456 16.8513 24.1296 16.8735 24.1073 16.8901C24.0824 16.9061 24.0423 16.9119 23.9824 16.9119H23.8082L23.8184 16.6152H23.0938L23.0645 18.0655C23.0633 18.1702 23.0734 18.2308 23.15 18.2793C23.2266 18.3398 23.4625 18.3475 23.7801 18.3475H24.2341L24.3981 17.8046L24.0028 17.8263L23.8713 17.834C23.8534 17.8263 23.8362 17.8193 23.8171 17.8002C23.8005 17.7837 23.7724 17.7939 23.777 17.6892L23.7801 17.3174L24.1946 17.3003C24.4185 17.3003 24.5141 17.2275 24.5958 17.1581C24.6737 17.0916 24.6991 17.0152 24.7285 16.9119L24.7981 16.5827H24.2284L24.1558 16.8149Z" fill="#FEFEFE"/>
</svg>
