<svg width="43" height="27" viewBox="0 0 43 27" fill="none" xmlns="http://www.w3.org/2000/svg">
<rect x="0.937988" width="41.9689" height="26.8601" rx="2.51813" fill="#1C1C1C"/>
<path d="M19.7957 18.0764H17.2119L18.828 8.81348H21.4117L19.7957 18.0764Z" fill="#00579F"/>
<path d="M29.1624 9.03987C28.6528 8.85245 27.8444 8.64551 26.8449 8.64551C24.2933 8.64551 22.4965 9.90678 22.4854 11.71C22.4643 13.0404 23.7719 13.7794 24.75 14.223C25.7496 14.6763 26.0894 14.9722 26.0894 15.3762C26.0792 15.9968 25.2816 16.2828 24.5377 16.2828C23.5062 16.2828 22.9534 16.1353 22.1134 15.7901L21.7732 15.6421L21.4116 17.7214C22.0176 17.9774 23.1341 18.2045 24.2933 18.2144C27.0044 18.2144 28.7695 16.9727 28.7904 15.051C28.8007 13.9966 28.1102 13.1886 26.6215 12.5283C25.7178 12.1045 25.1644 11.8187 25.1644 11.3851C25.175 10.9908 25.6325 10.5871 26.6526 10.5871C27.4926 10.5673 28.1098 10.7544 28.5773 10.9417L28.811 11.0401L29.1624 9.03987Z" fill="#00579F"/>
<path d="M32.5967 14.7949C32.8095 14.2628 33.6283 12.2032 33.6283 12.2032C33.6176 12.223 33.8407 11.6612 33.9683 11.3164L34.1488 12.1145C34.1488 12.1145 34.6381 14.3318 34.7444 14.7949C34.3406 14.7949 33.1071 14.7949 32.5967 14.7949ZM35.7861 8.81348H33.7875C33.1712 8.81348 32.703 8.98086 32.4371 9.58203L28.5991 18.0763H31.3103C31.3103 18.0763 31.7566 16.933 31.8525 16.6868C32.15 16.6868 34.7873 16.6868 35.17 16.6868C35.2441 17.012 35.4783 18.0763 35.4783 18.0763H37.8706L35.7861 8.81348Z" fill="#00579F"/>
<path d="M15.0536 8.81348L12.5231 15.1299L12.2466 13.8489C11.7788 12.3707 10.3116 10.7647 8.67432 9.96617L10.9921 18.0666H13.7244L17.7857 8.81348H15.0536Z" fill="#00579F"/>
<path d="M10.1738 8.81348H6.01665L5.97412 9.00064C9.21694 9.76932 11.3646 11.6222 12.247 13.8493L11.3433 9.59211C11.1945 9.00051 10.7373 8.83299 10.1738 8.81348Z" fill="#FAA61A"/>
</svg>
