<svg width="15" height="12" viewBox="0 0 15 12" fill="none" xmlns="http://www.w3.org/2000/svg">
<path d="M14.9821 10.16L14.7038 9.4783C14.6526 9.35029 14.5052 9.28943 14.3806 9.344L14.2237 9.40801C13.9614 8.79026 13.5806 7.92621 13.3374 7.4719C12.9311 6.72301 11.907 5.15492 12.0476 4.73261C12.0668 4.6749 12.0925 4.61746 12.1211 4.5566C12.3899 4.02858 12.3225 3.39168 11.9419 2.93737C11.3404 2.22048 10.569 1.30529 10.4667 1.19014C10.297 0.998127 9.9738 0.646108 9.85865 0.569247C9.7435 0.492386 9.2409 0.652395 8.96889 0.729256C8.69687 0.80926 7.19908 1.18699 7.01993 1.17414C6.95907 1.17099 6.85677 1.13899 6.74791 1.1007C6.57504 1.0367 6.37989 1.11985 6.3096 1.29271L6.29989 1.31186L3.34287 0.0572198C3.22458 0.00607416 3.09657 -0.00992669 2.96857 0.00607416L0.44043 0.361236L0.635583 1.78217L2.96857 1.45901L5.74614 2.6365L5.68528 2.78051C5.63728 2.8988 5.63099 3.02995 5.67242 3.14853L6.42132 5.32465C6.59733 5.83353 6.8662 6.31041 7.25022 6.68786C7.36223 6.79672 7.46138 6.95988 7.50309 7.20617C7.62481 7.88792 8.18799 10.0543 9.07118 10.5024C9.95437 10.9504 12.3802 10.0192 12.6042 10.096C12.6063 10.096 12.6084 10.0971 12.6105 10.0992C12.5465 10.1695 12.5208 10.2721 12.5594 10.3649L12.8377 11.0467C12.8888 11.1747 13.0362 11.2355 13.1608 11.181L14.8441 10.4835C14.9724 10.4323 15.0332 10.2883 14.9821 10.1603V10.16ZM11.5805 9.62859L11.4653 9.68945C11.3116 9.76945 11.1421 9.82374 10.9693 9.84632L10.4221 9.91661C9.77264 9.99975 9.14861 9.64459 8.88288 9.04313C8.63658 8.4831 8.47972 7.88793 8.41886 7.27989L8.358 6.66872C8.28456 5.93896 8.7483 5.26721 9.45234 5.08149L9.67635 5.02063C10.3067 4.85433 10.9693 5.11663 11.3116 5.67352L11.4076 5.83039C11.7468 6.37756 12.0188 6.9633 12.2173 7.57448L12.3036 7.84335C12.5308 8.53453 12.2268 9.29286 11.5805 9.62888V9.62859Z" fill="black"/>
</svg>
