<svg width="17" height="17" viewBox="0 0 17 17" fill="none" xmlns="http://www.w3.org/2000/svg">
<g clip-path="url(#clip0_143_2703)">
<path d="M3.83596 8.79924L3.86935 8.78507C3.46867 7.84003 3.91083 6.74524 4.85655 6.34456C5.80125 5.94321 6.89637 6.38639 7.29705 7.33109L7.52336 7.2353L11.8806 5.38705C11.4796 4.44201 11.9224 3.34722 12.8678 2.94586C13.8125 2.54518 14.9076 2.98802 15.3083 3.93306L16.1599 3.57151L16.368 3.48348L16.3963 3.47167L15.0857 0.382927L14.8493 0.483434L15.8766 2.90472L15.6402 3.00489C15.4331 2.51753 15.056 1.62848 14.9063 1.27569C14.6955 0.777873 14.3343 0.387986 13.424 0.676354C13.1491 0.763371 11.997 1.18833 10.5251 1.73809L8.32978 0.00012207L0.397461 3.36509L2.63425 8.63802L3.83596 8.79924V8.79924ZM8.22455 0.78327L9.78242 2.016C8.75542 2.40049 7.62927 2.82411 6.56079 3.22681L5.93616 1.75428L8.22455 0.783607V0.78327Z" fill="black"/>
<path d="M1.00298 7.6831C1.10045 7.91312 1.36555 8.02004 1.59523 7.9229C1.82525 7.82543 1.93216 7.56034 1.83469 7.33065L0.933499 5.20684C0.836027 4.97716 0.571267 4.87025 0.341922 4.96738C0.111902 5.06485 0.00498621 5.32995 0.102458 5.55963L1.00331 7.68344L1.00298 7.6831Z" fill="black"/>
<path d="M4.95712 6.58059C4.14092 6.92697 3.76014 7.86897 4.10652 8.68517C4.45256 9.50137 5.39456 9.88182 6.21076 9.53611C7.02696 9.18973 7.40774 8.24773 7.06137 7.43119C6.71532 6.61533 5.77332 6.23421 4.95712 6.58059ZM5.8347 8.64942C5.50822 8.7877 5.13149 8.63559 4.99287 8.30878C4.85425 7.9823 5.0067 7.60556 5.33318 7.46728C5.65966 7.32866 6.03639 7.48111 6.17501 7.80759C6.31329 8.13441 6.16118 8.51114 5.8347 8.64942Z" fill="black"/>
<path d="M12.9678 3.18266C12.152 3.52904 11.7708 4.47104 12.1172 5.28691C12.4633 6.10311 13.4053 6.48389 14.2215 6.13785C15.0373 5.79147 15.4181 4.8498 15.0721 4.03326C14.7257 3.2174 13.784 2.83628 12.9678 3.18232V3.18266ZM13.8454 5.25116C13.5189 5.38978 13.1422 5.23733 13.0036 4.91085C12.8653 4.58437 13.0174 4.20763 13.3442 4.06935C13.6704 3.93073 14.0474 4.08318 14.186 4.40966C14.3243 4.73614 14.1722 5.11287 13.8454 5.25116Z" fill="black"/>
<path d="M16.2997 4.39981L14.95 6.50506H12.1445L11.0595 7.77962L8.06858 8.42685L6.3748 9.90376H4.83987L3.97813 10.3473L1.86984 10.5321L0 13.4961V16.9211H16.9881V4.12695L16.2997 4.39947V4.39981ZM16.5092 16.4418H0.479602V13.635L2.14843 10.9891L4.01996 10.8249L4.11372 10.8164L4.19736 10.7733L4.95623 10.3834H6.5549L6.69048 10.2653L8.29118 8.86935L11.161 8.24877L11.3196 8.21403L11.4251 8.09092L12.3661 6.985H15.2127L15.354 6.76443L16.5092 4.96204V16.4418Z" fill="black"/>
<path d="M3.97809 12.0778H2.94333L2.24889 13.4926C2.21955 13.552 2.2445 13.6238 2.30386 13.6528C2.32073 13.6613 2.33894 13.6653 2.35648 13.6653C2.401 13.6653 2.4435 13.6403 2.46407 13.5982L3.09275 12.3176H3.97809C4.04419 12.3176 4.09782 12.2639 4.09782 12.1978C4.09782 12.1317 4.04419 12.0778 3.97809 12.0778Z" fill="black"/>
<path d="M12.7837 8.12659C12.727 8.09152 12.6535 8.10906 12.6188 8.16572L11.7597 9.56338L10.356 10.0254C10.2929 10.0464 10.2589 10.1138 10.2794 10.1772C10.2963 10.2275 10.3432 10.2598 10.3938 10.2598C10.4059 10.2598 10.4184 10.2582 10.4312 10.2538L11.9179 9.76405L12.8231 8.29152C12.8582 8.2352 12.8407 8.16133 12.784 8.12659H12.7837Z" fill="black"/>
<path d="M10.8211 12.887L8.08148 12.6357L7.09125 14.0405C7.05314 14.0944 7.06595 14.1693 7.12025 14.2074C7.14117 14.2226 7.16511 14.2297 7.18906 14.2297C7.2265 14.2297 7.26393 14.2118 7.2872 14.1788L8.1975 12.8873L10.7992 13.1265C10.866 13.1325 10.923 13.0843 10.9294 13.0185C10.9351 12.9524 10.8866 12.8938 10.8208 12.8877L10.8211 12.887Z" fill="black"/>
<path d="M14.9018 14.376L13.5888 14.9089L13.0117 14.2947C12.9665 14.2458 12.8907 14.2442 12.8424 14.2894C12.7942 14.3349 12.7918 14.4104 12.8374 14.4587L13.5264 15.1926L14.9919 14.5983C15.0529 14.573 15.0826 14.5032 15.0576 14.4418C15.033 14.3804 14.9625 14.3511 14.9018 14.376Z" fill="black"/>
<path d="M15.1107 11.5627C15.1346 11.5897 15.1674 11.6029 15.2007 11.6029C15.2287 11.6029 15.2574 11.5931 15.2797 11.5729L15.7771 11.1351L16.0412 8.99845C16.0497 8.93268 16.0028 8.87298 15.937 8.86489C15.8702 8.85578 15.8112 8.90334 15.8031 8.96911L15.5502 11.0157L15.1215 11.3934C15.0722 11.4373 15.0672 11.5135 15.1107 11.5631V11.5627Z" fill="black"/>
</g>
<defs>
<clipPath id="clip0_143_2703">
<rect width="16.9881" height="16.921" fill="white"/>
</clipPath>
</defs>
</svg>
