<svg width="13" height="19" viewBox="0 0 13 19" fill="none" xmlns="http://www.w3.org/2000/svg">
<path d="M0.0271613 15.6572C0.101075 16.1887 0.396391 16.5431 0.70622 16.9268C1.16388 17.4878 1.72515 17.9458 2.38969 18.2853C2.43391 18.315 2.47812 18.315 2.52267 18.315H10.5404C10.5701 18.315 10.5995 18.3002 10.6143 18.2853C11.2789 17.9309 11.8398 17.4733 12.2978 16.9268C12.608 16.5576 12.8884 16.1884 12.9769 15.6572C13.095 14.8745 12.7703 13.6932 11.884 13.457C11.7956 12.6301 11.7362 12.0543 11.7217 11.7293C11.7068 11.5521 11.692 11.3601 11.6626 11.1829C11.6333 11.0057 11.6036 10.8136 11.5742 10.6364C11.5594 10.548 11.5445 10.4741 11.53 10.415V10.3853C11.3677 9.67658 11.338 8.52501 11.4416 6.97451C11.4858 6.35418 11.2792 5.73419 10.8951 5.32074C10.5998 5.01058 10.2306 4.83339 9.83201 4.83339H8.25215V4.2279H8.65074C8.91669 4.2279 9.16746 4.10978 9.31529 3.93259C9.44826 3.77025 9.49248 3.57821 9.44826 3.38617L8.93154 1.21568C8.85763 0.876146 8.5181 0.639893 8.13436 0.639893H4.93009C4.54601 0.639893 4.20648 0.876146 4.1329 1.21568L3.6604 3.38617C3.61618 3.57821 3.6604 3.77025 3.79337 3.93259C3.9412 4.12463 4.19197 4.2279 4.45792 4.2279H4.85651V4.83339H3.39478C3.02555 4.84824 2.68602 5.02543 2.40556 5.30589C2.02148 5.71934 1.81492 6.30997 1.85914 6.92997C1.93305 8.22936 1.85914 9.27765 1.60803 10.0603L1.59318 10.1045C1.56348 10.2227 1.51927 10.3556 1.47506 10.518C1.34208 11.0202 1.2685 11.4039 1.25365 11.4778C1.13553 12.1424 1.20944 12.9693 1.25365 13.4121H1.20944C0.248564 13.6342 -0.105816 14.8596 0.0271613 15.6572ZM1.14936 16.558C0.839197 16.1887 0.647157 15.9376 0.602944 15.5832C0.514518 15.0075 0.750771 14.136 1.3414 14.0179C1.75485 13.9295 2.2422 14.2099 2.52267 14.6824V17.7095C1.9911 17.3994 1.53344 17.0156 1.14936 16.558ZM9.94979 17.7392H3.1133V14.8451C3.12815 14.8303 3.143 14.8009 3.143 14.7712H9.93528V17.7392H9.94979ZM3.96955 9.60334H9.0787V14.1954H3.96955V9.60334ZM12.3862 15.5687C12.3272 15.9231 12.1351 16.1742 11.8398 16.5434C11.4854 16.9863 11.0426 17.3555 10.5404 17.6508V14.7567C10.7618 14.3139 11.1608 14.0182 11.5297 14.0037C11.5594 14.0037 11.5739 14.0186 11.6036 14.0186H11.6626C12.2236 14.107 12.4747 15.0226 12.3862 15.5691V15.5687ZM9.80231 5.43954C10.0976 5.43954 10.3045 5.60188 10.4226 5.73486C10.7031 6.03018 10.8361 6.47332 10.8067 6.94583C10.7034 8.58475 10.7328 9.76602 10.91 10.5338V10.5635C10.9248 10.6078 10.9397 10.6817 10.9542 10.7701C10.9839 10.9324 11.0133 11.1096 11.0426 11.2723C11.072 11.435 11.0868 11.6118 11.0868 11.7745C11.1017 12.0847 11.1608 12.6605 11.2492 13.4431C10.8506 13.5316 10.452 13.7975 10.1712 14.1961H9.65448V5.43921H9.80231V5.43954ZM4.25036 3.57888C4.23551 3.54918 4.23551 3.53467 4.23551 3.53467L4.70801 1.36418C4.72286 1.31996 4.79644 1.24605 4.92941 1.24605H8.14853C8.28151 1.24605 8.35509 1.30511 8.36994 1.36418L8.84244 3.53467C8.84244 3.53467 8.84244 3.56437 8.82759 3.57888C8.79789 3.6231 8.72432 3.6528 8.62104 3.6528H4.4424C4.33912 3.6528 4.28006 3.60858 4.25036 3.57888ZM5.43162 4.24343H7.61696V4.84891H5.43162V4.24343ZM9.09355 5.43954V9.01304H3.96989V5.43954H9.09355ZM1.84361 11.5821C1.85846 11.5082 1.91752 11.1538 2.05016 10.6813C2.09438 10.519 2.13859 10.4009 2.15344 10.3121L2.16829 10.2679C2.41939 9.4113 2.52267 8.28943 2.43424 6.93064C2.40454 6.47298 2.55237 6.02984 2.83284 5.73452C2.95096 5.6164 3.143 5.46857 3.39411 5.43921V14.1806H2.9216C2.64113 13.7965 2.2719 13.5457 1.85846 13.4421C1.81425 13.0729 1.74033 12.2311 1.84361 11.5818V11.5821Z" fill="black"/>
</svg>
