<svg width="16" height="17" viewBox="0 0 16 17" fill="none" xmlns="http://www.w3.org/2000/svg">
<g clip-path="url(#clip0_143_2693)">
<path d="M2.69366 10.1778C3.13658 10.214 3.57951 9.87896 3.68022 9.43083C3.73823 9.17237 3.66848 8.9351 3.514 8.77475L3.87088 7.20969L6.41207 7.34169L6.07474 8.9325C5.83258 9.0671 5.6442 9.29915 5.58456 9.57293C5.48646 10.0286 5.78174 10.4294 6.24813 10.4676C6.71745 10.5057 7.17961 10.1612 7.27608 9.69873C7.33442 9.41877 7.24414 9.16227 7.05934 8.99703L7.3996 7.39286L10.7194 7.56527C10.7279 7.56592 10.7364 7.56592 10.7452 7.56592C10.9772 7.56592 11.179 7.40166 11.2243 7.17156L11.6473 5.00485C11.9152 4.86601 12.1215 4.62059 12.1759 4.33541C12.2626 3.88336 11.9335 3.50921 11.4446 3.49748C10.9593 3.48607 10.4971 3.83676 10.4078 4.28261C10.3521 4.56127 10.4557 4.81354 10.6594 4.9677L10.3462 6.56861L7.60428 6.42618L7.93802 4.8533C8.17659 4.71543 8.36171 4.48664 8.41712 4.22297C8.50805 3.78461 8.20592 3.42154 7.74507 3.41046C7.28748 3.39937 6.84391 3.74061 6.75037 4.17311C6.69464 4.43091 6.77644 4.66426 6.94755 4.81549L6.61674 6.37534L4.09055 6.24367L4.44026 4.70892C4.65243 4.57301 4.81702 4.35986 4.87178 4.1164C4.96727 3.69042 4.68926 3.3381 4.25383 3.328C3.82199 3.31757 3.39504 3.64903 3.29791 4.06914C3.24283 4.30706 3.30476 4.52412 3.44686 4.67078L2.52614 8.70989C2.31071 8.84319 2.14253 9.0596 2.08387 9.31187C1.98218 9.75349 2.25302 10.1417 2.69268 10.1775L2.69366 10.1778Z" fill="black"/>
<path d="M15.7033 6.2987C15.2672 4.62707 14.3843 3.14837 13.1471 2.00831C11.9761 0.729732 10.238 0 8.333 0C4.61949 0 1.04318 2.77226 0.191229 6.31109C0.032507 6.97042 -0.0258324 7.62552 0.0103445 8.26106C0.0282701 8.95038 0.125394 9.641 0.30139 10.3163C1.3088 14.1771 4.66186 16.7711 8.25772 16.7708C8.88381 16.7708 9.51707 16.6923 10.1467 16.528C12.2101 15.9902 13.9238 14.6253 14.9723 12.6854C16.0146 10.7566 16.2743 8.48855 15.703 6.29903L15.7033 6.2987ZM1.14063 6.53891C1.89155 3.41986 5.05068 0.976126 8.333 0.976126C9.92609 0.976126 11.3758 1.56311 12.3614 2.59529L12.3529 2.60474C12.3868 2.6344 12.419 2.66536 12.4523 2.69535C12.4917 2.73935 12.5321 2.78269 12.5699 2.82767C13.5115 3.95502 13.8739 5.44349 13.5891 7.01866C13.2994 8.62283 12.3845 10.1159 11.014 11.2224C9.65493 12.3201 7.99698 12.924 6.34523 12.924C6.11285 12.924 5.87851 12.9119 5.64939 12.8875C4.05499 12.7187 2.71351 11.9697 1.87232 10.7778C1.33977 10.023 1.0409 9.14365 0.986145 8.20989C0.984841 8.16263 0.983212 8.1157 0.983212 8.06844H0.980604C0.964308 7.56946 1.01613 7.05647 1.14063 6.53923V6.53891ZM14.1135 12.2203C13.1954 13.9197 11.6988 15.1138 9.90035 15.5828C7.11146 16.3099 4.23425 15.1063 2.52481 12.7718C3.3836 13.3633 4.41122 13.7391 5.5464 13.859C5.80941 13.8871 6.0783 13.9008 6.34523 13.9008C10.266 13.9008 13.8704 10.9541 14.5502 7.1927C14.6112 6.85472 14.6457 6.52 14.6568 6.1905C14.693 6.30783 14.7275 6.42549 14.7588 6.5451C15.2672 8.49474 15.0381 10.5106 14.1135 12.2206V12.2203Z" fill="black"/>
</g>
<defs>
<clipPath id="clip0_143_2693">
<rect width="16" height="16.7708" fill="white"/>
</clipPath>
</defs>
</svg>
