<svg width="23" height="22" viewBox="0 0 23 22" fill="none" xmlns="http://www.w3.org/2000/svg">
<path d="M11.5 4.33333V17.6667M8.16667 14.5356L9.14333 15.2678C10.4444 16.2444 12.5544 16.2444 13.8567 15.2678C15.1589 14.2911 15.1589 12.7089 13.8567 11.7322C13.2067 11.2433 12.3533 11 11.5 11C10.6944 11 9.88889 10.7556 9.27444 10.2678C8.04556 9.29111 8.04556 7.70889 9.27444 6.73222C10.5033 5.75556 12.4967 5.75556 13.7256 6.73222L14.1867 7.09889M21.5 11C21.5 12.3132 21.2413 13.6136 20.7388 14.8268C20.2363 16.0401 19.4997 17.1425 18.5711 18.0711C17.6425 18.9997 16.5401 19.7363 15.3268 20.2388C14.1136 20.7413 12.8132 21 11.5 21C10.1868 21 8.88642 20.7413 7.67317 20.2388C6.45991 19.7363 5.35752 18.9997 4.42893 18.0711C3.50035 17.1425 2.76375 16.0401 2.2612 14.8268C1.75866 13.6136 1.5 12.3132 1.5 11C1.5 8.34784 2.55357 5.8043 4.42893 3.92893C6.3043 2.05357 8.84784 1 11.5 1C14.1522 1 16.6957 2.05357 18.5711 3.92893C20.4464 5.8043 21.5 8.34784 21.5 11Z" stroke="#300000" stroke-width="1.66667" stroke-linecap="round" stroke-linejoin="round"/>
</svg>
