<svg width="24" height="24" viewBox="0 0 24 24" fill="none" xmlns="http://www.w3.org/2000/svg">
<g clip-path="url(#clip0_1024_14225)">
<path d="M12 0C5.38105 0 0 5.38105 0 12C0 18.6189 5.38105 24 12 24C18.6189 24 24 18.6189 24 12C24 5.38105 18.6189 0 12 0ZM13.0863 9.75158C13.2126 9.75158 13.2884 9.85263 13.2884 9.95368V11.04C13.2884 11.1663 13.1874 11.2421 13.0863 11.2421H9.24632C9.22105 11.4947 9.19579 11.7474 9.19579 12C9.19579 12.2526 9.22105 12.48 9.24632 12.7326H13.0863C13.2126 12.7326 13.2884 12.8337 13.2884 12.9347V14.0211C13.2884 14.1474 13.1874 14.2232 13.0863 14.2232H9.72632C10.3832 15.5368 11.5958 16.4463 12.9853 16.4463C13.8695 16.4463 14.7284 16.0674 15.4105 15.4105C15.4863 15.3347 15.6126 15.3347 15.6884 15.4105L16.9011 16.5221C16.9768 16.5979 17.0021 16.7495 16.9011 16.8253C15.8147 17.9116 14.4253 18.5179 12.9853 18.5179C10.4842 18.5179 8.33684 16.7242 7.50316 14.2232H6.08842C5.96211 14.2232 5.88632 14.1221 5.88632 14.0211V12.9347C5.88632 12.8084 5.98737 12.7326 6.08842 12.7326H7.17474C7.14947 12.48 7.12421 12.2526 7.12421 12C7.12421 11.7474 7.14947 11.4947 7.17474 11.2674H6.08842C5.96211 11.2674 5.88632 11.1663 5.88632 11.0653V9.97895C5.88632 9.85263 5.98737 9.77684 6.08842 9.77684H7.50316C8.33684 7.27579 10.4589 5.48211 12.9853 5.48211C14.4505 5.48211 15.84 6.08842 16.9011 7.17474C16.9768 7.25053 16.9768 7.4021 16.9011 7.47789L15.6884 8.58947C15.6126 8.66526 15.4863 8.66526 15.4105 8.58947C14.7284 7.90737 13.8695 7.52842 12.9853 7.52842C11.5958 7.52842 10.3832 8.41263 9.72632 9.75158H13.0863Z" fill="#E11166"/>
</g>
<defs>
<clipPath id="clip0_1024_14225">
<rect width="24" height="24" fill="white"/>
</clipPath>
</defs>
</svg>
