<svg width="22" height="22" viewBox="0 0 22 22" fill="none" xmlns="http://www.w3.org/2000/svg">
<path d="M11 0C8.08256 0 5.28469 1.15897 3.22178 3.22178C1.15887 5.28469 0 8.08256 0 11C0 13.9174 1.15897 16.7153 3.22178 18.7782C5.28469 20.8411 8.08256 22 11 22C13.9174 22 16.7153 20.841 18.7782 18.7782C20.8411 16.7153 22 13.9174 22 11C21.9967 8.08357 20.8367 5.28754 18.7746 3.22544C16.7124 1.16335 13.9164 0.00325926 11 0V0ZM11 20.5333C8.47163 20.5333 6.04674 19.5289 4.25883 17.7412C2.47093 15.9534 1.46667 13.5286 1.46667 11C1.46667 8.47143 2.47111 6.04674 4.25883 4.25883C6.04656 2.47093 8.47143 1.46667 11 1.46667C13.5286 1.46667 15.9533 2.47111 17.7412 4.25883C19.5291 6.04656 20.5333 8.47143 20.5333 11C20.5305 13.5276 19.5252 15.9508 17.7379 17.7379C15.9507 19.5251 13.5274 20.5305 11 20.5333Z" fill="black"/>
<path d="M15.1467 4.57764C14.9522 4.57756 14.7657 4.65482 14.6282 4.7924C14.4906 4.9299 14.4133 5.11641 14.4134 5.31097V5.62488C13.6666 5.2049 12.8244 4.98354 11.9675 4.98201C9.50965 4.98201 7.42291 6.8054 6.7128 9.3156H4.98729C4.72526 9.3156 4.4832 9.45533 4.35214 9.68227C4.22116 9.90913 4.22116 10.1887 4.35214 10.4156C4.48319 10.6425 4.72524 10.7823 4.98729 10.7823H6.46677C6.45857 10.9212 6.45276 11.0609 6.45276 11.2022C6.45276 11.3434 6.45849 11.4831 6.46677 11.6221H4.98729C4.72526 11.6221 4.4832 11.7618 4.35214 11.9887C4.22116 12.2156 4.22116 12.4951 4.35214 12.7221C4.48319 12.9489 4.72524 13.0887 4.98729 13.0887H6.7128C7.42289 15.599 9.50965 17.4223 11.9675 17.4223C12.6614 17.4164 13.347 17.2707 13.9833 16.9938C14.6197 16.717 15.1936 16.3147 15.671 15.811C15.8539 15.6235 15.9229 15.3526 15.8519 15.1003C15.781 14.8482 15.5809 14.653 15.327 14.5883C15.0731 14.5237 14.804 14.5993 14.6211 14.7869C14.28 15.1499 13.8692 15.4405 13.4133 15.6413C12.9573 15.8421 12.4657 15.949 11.9675 15.9556C10.3061 15.9556 8.87674 14.7735 8.25361 13.0887H12.8736C13.1356 13.0887 13.3777 12.9489 13.5087 12.7221C13.6397 12.4951 13.6397 12.2156 13.5087 11.9887C13.3777 11.7618 13.1356 11.6221 12.8736 11.6221H7.93746C7.92704 11.4834 7.91932 11.3439 7.91932 11.2022C7.91932 11.0604 7.92704 10.9209 7.93746 10.7823H12.8736C13.1356 10.7823 13.3777 10.6425 13.5087 10.4156C13.6397 10.1887 13.6397 9.90913 13.5087 9.68227C13.3777 9.45532 13.1356 9.3156 12.8736 9.3156H8.25361C8.87674 7.63083 10.3061 6.44868 11.9675 6.44868C12.4657 6.45536 12.9576 6.56222 13.4136 6.76291C13.8697 6.96351 14.2807 7.25388 14.6223 7.61671C14.7588 7.75652 14.9457 7.83602 15.1411 7.83753C15.3366 7.83912 15.5245 7.76249 15.6633 7.62476C15.8021 7.4871 15.8801 7.29971 15.8801 7.10419V5.31097C15.8801 5.11642 15.8028 4.9299 15.6653 4.7924C15.5277 4.65482 15.3412 4.57756 15.1468 4.57764H15.1467Z" fill="black"/>
</svg>
