<svg width="23" height="23" viewBox="0 0 23 23" fill="none" xmlns="http://www.w3.org/2000/svg">
<path d="M11.5 0.5C8.58256 0.5 5.78469 1.65897 3.72178 3.72178C1.65887 5.78469 0.5 8.58256 0.5 11.5C0.5 14.4174 1.65897 17.2153 3.72178 19.2782C5.78469 21.3411 8.58256 22.5 11.5 22.5C14.4174 22.5 17.2153 21.341 19.2782 19.2782C21.3411 17.2153 22.5 14.4174 22.5 11.5C22.4967 8.58357 21.3367 5.78754 19.2746 3.72544C17.2124 1.66335 14.4164 0.503259 11.5 0.5V0.5ZM11.5 21.0333C8.97163 21.0333 6.54674 20.0289 4.75883 18.2412C2.97093 16.4534 1.96667 14.0286 1.96667 11.5C1.96667 8.97143 2.97111 6.54674 4.75883 4.75883C6.54656 2.97093 8.97143 1.96667 11.5 1.96667C14.0286 1.96667 16.4533 2.97111 18.2412 4.75883C20.0291 6.54656 21.0333 8.97143 21.0333 11.5C21.0305 14.0276 20.0252 16.4508 18.2379 18.2379C16.4507 20.0251 14.0274 21.0305 11.5 21.0333Z" fill="black"/>
<path d="M16.5364 15.0828C16.3884 14.9788 16.2051 14.9381 16.0269 14.9695C15.8488 15.0008 15.6903 15.1017 15.5867 15.25C15.2433 15.7034 14.699 15.9591 14.1307 15.9338C13.5868 15.9259 13.0538 15.7794 12.5823 15.5081C11.9478 15.1554 11.2352 14.9668 10.5094 14.9593C10.2393 14.9613 9.96988 14.9848 9.70353 15.0298C10.077 14.3259 10.2985 13.5514 10.3535 12.7566H13.9067C14.0878 12.757 14.2615 12.6853 14.3897 12.5574C14.5179 12.4294 14.5899 12.2558 14.5899 12.0747C14.5899 11.8937 14.5179 11.7201 14.3897 11.5921C14.2615 11.4642 14.0878 11.3925 13.9067 11.3929H10.4242C10.4298 11.0792 10.4314 10.7493 10.4314 10.3977C10.4324 9.5145 10.7837 8.66769 11.4083 8.04313C12.0329 7.41858 12.8796 7.06727 13.7629 7.06631H15.5058C15.7492 7.06583 15.9738 6.93573 16.0953 6.72494C16.2168 6.51415 16.2168 6.25459 16.0953 6.0438C15.9738 5.83301 15.7492 5.70292 15.5058 5.70251H13.7629C12.5181 5.70387 11.3246 6.19904 10.4444 7.07927C9.56415 7.95949 9.06896 9.15297 9.06762 10.3978C9.06762 10.7577 9.06595 11.0862 9.06054 11.3929H7.93754C7.75651 11.3925 7.58273 11.4642 7.45454 11.5922C7.32643 11.7201 7.25434 11.8938 7.25434 12.0748C7.25434 12.2559 7.32643 12.4295 7.45454 12.5574C7.58273 12.6853 7.75651 12.757 7.93754 12.7567H8.98399C8.81935 14.1582 8.33493 14.9634 6.92067 16.0809C6.73781 16.2254 6.64145 16.4534 6.66517 16.6853C6.68888 16.9172 6.82932 17.1209 7.03772 17.2254C7.24605 17.3299 7.49326 17.3208 7.6934 17.2012C8.5457 16.6817 9.51296 16.3802 10.5096 16.3233C11.0298 16.3323 11.5391 16.4743 11.9888 16.736C12.6446 17.0997 13.3812 17.2929 14.1309 17.2978C15.1448 17.3266 16.1075 16.8533 16.7037 16.0328C16.8074 15.8846 16.8481 15.7014 16.8168 15.5233C16.7854 15.3451 16.6846 15.1868 16.5365 15.0829L16.5364 15.0828Z" fill="black"/>
</svg>
