<svg width="22" height="22" viewBox="0 0 22 22" fill="none" xmlns="http://www.w3.org/2000/svg">
<path d="M11 0C8.08256 0 5.28469 1.15897 3.22178 3.22178C1.15887 5.28469 0 8.08256 0 11C0 13.9174 1.15897 16.7153 3.22178 18.7782C5.28469 20.8411 8.08256 22 11 22C13.9174 22 16.7153 20.841 18.7782 18.7782C20.8411 16.7153 22 13.9174 22 11C21.9967 8.08357 20.8367 5.28754 18.7746 3.22544C16.7124 1.16335 13.9164 0.00325926 11 0V0ZM11 20.5333C8.47163 20.5333 6.04674 19.5289 4.25883 17.7412C2.47093 15.9534 1.46667 13.5286 1.46667 11C1.46667 8.47143 2.47111 6.04674 4.25883 4.25883C6.04656 2.47093 8.47143 1.46667 11 1.46667C13.5286 1.46667 15.9533 2.47111 17.7412 4.25883C19.5291 6.04656 20.5333 8.47143 20.5333 11C20.5305 13.5276 19.5252 15.9508 17.7379 17.7379C15.9507 19.5251 13.5274 20.5305 11 20.5333Z" fill="black"/>
<path d="M6.741 15V5.25H8.353V11.165L10.368 8.5H12.188L9.822 11.62L12.24 15H10.42L8.353 12.114V15H6.741ZM13.0636 15V8.5H14.5716L14.6106 9.189C14.7752 9.007 15.0071 8.825 15.3061 8.643C15.6051 8.461 15.9322 8.37 16.2876 8.37C16.3916 8.37 16.4869 8.37867 16.5736 8.396L16.4566 9.982C16.3612 9.956 16.2659 9.93867 16.1706 9.93C16.0796 9.92133 15.9886 9.917 15.8976 9.917C15.6246 9.917 15.3754 9.97983 15.1501 10.1055C14.9247 10.2312 14.7666 10.385 14.6756 10.567V15H13.0636Z" fill="black"/>
</svg>
