<svg width="24" height="26" viewBox="0 0 24 26" fill="none" xmlns="http://www.w3.org/2000/svg">
<circle cx="12" cy="13" r="12" fill="#E11166"/>
<path d="M6.855 18V6.75H8.715V13.575L11.04 10.5H13.14L10.41 14.1L13.2 18H11.1L8.715 14.67V18H6.855ZM14.1503 18V10.5H15.8903L15.9353 11.295C16.1253 11.085 16.3928 10.875 16.7378 10.665C17.0828 10.455 17.4603 10.35 17.8703 10.35C17.9903 10.35 18.1003 10.36 18.2003 10.38L18.0653 12.21C17.9553 12.18 17.8453 12.16 17.7353 12.15C17.6303 12.14 17.5253 12.135 17.4203 12.135C17.1053 12.135 16.8178 12.2075 16.5578 12.3525C16.2978 12.4975 16.1153 12.675 16.0103 12.885V18H14.1503Z" fill="white"/>
</svg>
