<svg width="24" height="24" viewBox="0 0 24 24" fill="none" xmlns="http://www.w3.org/2000/svg">
<g clip-path="url(#clip0_1024_14217)">
<path d="M12 0C5.38105 0 0 5.38105 0 12C0 18.6189 5.38105 24 12 24C18.6189 24 24 18.6189 24 12C24 5.38105 18.6189 0 12 0ZM11.6716 10.2316C11.7979 10.5347 11.8484 10.8632 11.9495 11.2674L11.9747 11.3937H14.0716C14.5516 11.3937 14.9305 11.7726 14.9305 12.2526C14.9305 12.7326 14.5516 13.1116 14.0716 13.1116H12.0758L12.0505 13.2379C11.9747 14.0463 11.7474 14.88 11.3684 15.6632L11.2926 15.84L11.4947 15.8653C11.9495 15.8905 12.3284 15.9411 12.6821 16.0674C12.8589 16.1179 13.0611 16.1432 13.3137 16.1432C13.8442 16.1432 14.4505 16.0168 14.7537 15.9411C15.0316 15.8653 15.3347 15.8905 15.5874 16.0421C15.84 16.1937 16.0168 16.4211 16.0926 16.6989C16.2442 17.28 15.9158 17.8863 15.3347 18.0379C15.2337 18.0632 14.3242 18.3158 13.3137 18.3158C12.8084 18.3158 12.3789 18.2653 12 18.1389C11.7726 18.0632 11.4695 18.0126 11.1158 18.0126C10.4337 18.0126 9.67579 18.1389 9.29684 18.24C8.81684 18.3663 8.33684 18.1137 8.08421 17.7095C7.83158 17.28 7.93263 16.7495 8.26105 16.3958C8.28631 16.3958 9.52421 15.1326 9.8021 13.2884L9.82737 13.1116H8.46316C7.98316 13.1116 7.60421 12.7326 7.60421 12.2526C7.60421 11.7726 7.98316 11.3937 8.46316 11.3937H9.72632L9.65053 11.1158C9.62526 11.0653 9.62526 10.9895 9.6 10.9389C8.96842 9.06947 9.57474 7.14947 11.0905 6.13895C12.5811 5.15368 14.4758 5.35579 15.9158 6.64421C16.1179 6.82105 16.2695 7.09895 16.2695 7.37684C16.2947 7.65474 16.1937 7.95789 15.9916 8.16C15.8147 8.36211 15.5368 8.51368 15.2589 8.51368C14.9558 8.53895 14.6779 8.43789 14.4758 8.23579C13.7684 7.62947 12.9853 7.50316 12.3284 7.93263C11.7726 8.28677 11.2674 9.12045 11.6716 10.232V10.2316Z" fill="#E11166"/>
</g>
<defs>
<clipPath id="clip0_1024_14217">
<rect width="24" height="24" fill="white"/>
</clipPath>
</defs>
</svg>
