<svg width="24" height="24" viewBox="0 0 24 24" fill="none" xmlns="http://www.w3.org/2000/svg">
<g clip-path="url(#clip0_1024_14220)">
<path d="M12 0C5.38105 0 0 5.38105 0 12C0 18.6189 5.38105 24 12 24C18.6189 24 24 18.6189 24 12C24 5.38105 18.6189 0 12 0ZM14.3242 16.6232L14.2484 16.6989C13.8189 17.0779 13.2884 17.3305 12.7074 17.4568V19.0989H10.9895V17.4063C10.5095 17.28 10.08 17.0526 9.70105 16.7495C9.12 16.2695 8.76632 15.6126 8.66526 14.9053L10.4337 14.6526C10.4589 14.9305 10.6105 15.1832 10.8632 15.3853C11.4947 15.8905 12.5053 15.8905 13.0863 15.36C13.44 15.0316 13.6168 14.5768 13.5916 14.1221C13.5663 13.6926 13.3642 13.3137 13.0105 13.0358C12.5811 12.7326 12.1768 12.6316 11.6968 12.5305C11.0653 12.3789 10.3326 12.2021 9.67579 11.5453C9.04421 10.8884 8.71579 10.08 8.74105 9.29684C8.76632 8.56421 9.09474 7.88211 9.67579 7.35158L9.72632 7.30105C10.08 6.99789 10.5347 6.79579 10.9895 6.64421V4.92632H12.7074V6.61895C13.2632 6.74526 13.7432 7.02316 14.1726 7.37684C14.6021 7.75579 14.9053 8.23579 15.0568 8.76632L13.2632 9.04421C13.2126 8.91789 13.1116 8.81684 13.0105 8.71579C12.4295 8.21053 11.4442 8.21053 10.8632 8.69053C10.6863 8.86737 10.5095 9.09474 10.5095 9.39789C10.4842 9.70105 10.6611 10.0295 10.9389 10.3326C11.2168 10.6358 11.52 10.7116 12.1011 10.8379C12.6568 10.9642 13.3642 11.1158 14.0716 11.6463C14.8295 12.2021 15.3095 13.0863 15.36 14.0463C15.3857 14.9806 15.032 15.9153 14.3247 16.6227L14.3242 16.6232Z" fill="#E11166"/>
</g>
<defs>
<clipPath id="clip0_1024_14220">
<rect width="24" height="24" fill="white"/>
</clipPath>
</defs>
</svg>
