<svg width="100" height="19" viewBox="0 0 100 19" fill="none" xmlns="http://www.w3.org/2000/svg">
<path d="M2.64327 17.8694V8.16579L1.84249 8.00092C1.56771 7.93811 1.34396 7.83998 1.17124 7.70652C1.00638 7.57305 0.923944 7.37678 0.923944 7.1177V5.68101H2.64327V4.98621C2.64327 4.28749 2.75318 3.6555 2.973 3.09024C3.20068 2.52498 3.52256 2.04216 3.93865 1.64177C4.3626 1.24138 4.87682 0.931269 5.48134 0.711447C6.08585 0.491624 6.77279 0.381713 7.54217 0.381713C7.8405 0.381713 8.11528 0.40134 8.36651 0.440594C8.61773 0.471997 8.88074 0.526952 9.15551 0.60546L9.08486 2.38367C9.07701 2.50928 9.0456 2.61527 8.99065 2.70163C8.93569 2.78013 8.86111 2.84687 8.7669 2.90182C8.68054 2.94893 8.58633 2.98425 8.48427 3.00781C8.38221 3.03136 8.28015 3.04314 8.17809 3.04314C7.85621 3.04314 7.56965 3.07454 7.31843 3.13735C7.0672 3.20015 6.85523 3.31399 6.68251 3.47886C6.51764 3.63587 6.39203 3.84784 6.30567 4.11477C6.21931 4.37385 6.17613 4.70358 6.17613 5.10397V5.68101H9.03775V8.17756H6.2939V17.8694H2.64327ZM16.6619 12.8998C15.9318 12.9312 15.3312 12.994 14.8602 13.0882C14.3891 13.1825 14.0162 13.3002 13.7414 13.4415C13.4666 13.5828 13.2743 13.7438 13.1644 13.9244C13.0623 14.1049 13.0113 14.3012 13.0113 14.5132C13.0113 14.9293 13.1251 15.2237 13.3528 15.3964C13.5805 15.5612 13.9141 15.6437 14.3538 15.6437C14.8248 15.6437 15.237 15.5612 15.5903 15.3964C15.9436 15.2315 16.3008 14.9646 16.6619 14.5956V12.8998ZM10.0908 7.35323C10.8288 6.70161 11.6453 6.21879 12.5403 5.90476C13.4431 5.58287 14.4087 5.42193 15.4372 5.42193C16.1752 5.42193 16.8386 5.54362 17.4274 5.78699C18.024 6.02252 18.5265 6.35618 18.9347 6.78797C19.3508 7.21191 19.6688 7.71829 19.8886 8.3071C20.1084 8.89591 20.2183 9.53968 20.2183 10.2384V17.8694H18.5461C18.2007 17.8694 17.9377 17.8223 17.7571 17.7281C17.5844 17.6339 17.4392 17.4376 17.3214 17.1393L17.0623 16.468C16.7561 16.7271 16.4617 16.9548 16.1791 17.151C15.8965 17.3473 15.6021 17.5161 15.2959 17.6574C14.9976 17.7909 14.6757 17.889 14.3302 17.9518C13.9927 18.0225 13.6158 18.0578 13.1997 18.0578C12.6423 18.0578 12.1359 17.9871 11.6806 17.8458C11.2252 17.6967 10.8366 17.4808 10.5147 17.1981C10.2007 16.9155 9.95734 16.5662 9.78462 16.1501C9.6119 15.7261 9.52554 15.2394 9.52554 14.6898C9.52554 14.2502 9.63546 13.8066 9.85528 13.3591C10.0751 12.9037 10.4559 12.4916 10.9976 12.1226C11.5393 11.7458 12.2694 11.4317 13.1879 11.1805C14.1065 10.9293 15.2645 10.788 16.6619 10.7566V10.2384C16.6619 9.52398 16.5128 9.00975 16.2144 8.69572C15.924 8.37383 15.5079 8.21289 14.9662 8.21289C14.5344 8.21289 14.1811 8.26 13.9063 8.35421C13.6315 8.44842 13.3842 8.5544 13.1644 8.67216C12.9524 8.78993 12.7444 8.89591 12.5403 8.99012C12.3361 9.08433 12.0928 9.13144 11.8101 9.13144C11.5589 9.13144 11.3469 9.06863 11.1742 8.94302C11.0015 8.8174 10.8602 8.66824 10.7503 8.49552L10.0908 7.35323ZM31.5253 8.5544C31.4154 8.68787 31.3094 8.79385 31.2074 8.87236C31.1053 8.95087 30.9601 8.99012 30.7717 8.99012C30.5911 8.99012 30.4262 8.94694 30.2771 8.86058C30.1358 8.77423 29.9748 8.68002 29.7942 8.57795C29.6137 8.46804 29.4017 8.36991 29.1583 8.28355C28.915 8.19719 28.6127 8.15401 28.2516 8.15401C27.8041 8.15401 27.4154 8.23644 27.0857 8.40131C26.7638 8.56618 26.4969 8.8017 26.2849 9.10788C26.073 9.41407 25.9159 9.7909 25.8139 10.2384C25.7118 10.678 25.6608 11.1766 25.6608 11.734C25.6608 12.9037 25.8845 13.8027 26.332 14.4307C26.7874 15.0588 27.4115 15.3728 28.2045 15.3728C28.6284 15.3728 28.9621 15.3218 29.2054 15.2197C29.4567 15.1098 29.6686 14.9921 29.8413 14.8665C30.0141 14.733 30.1711 14.6113 30.3124 14.5014C30.4616 14.3915 30.6461 14.3365 30.8659 14.3365C31.1564 14.3365 31.3762 14.4425 31.5253 14.6545L32.5852 15.9616C32.2084 16.3934 31.8119 16.7467 31.3958 17.0215C30.9797 17.2884 30.5518 17.5004 30.1122 17.6574C29.6804 17.8066 29.2447 17.9086 28.805 17.9636C28.3654 18.0264 27.9375 18.0578 27.5214 18.0578C26.7756 18.0578 26.0612 17.9165 25.3782 17.6339C24.703 17.3512 24.1063 16.943 23.5882 16.4091C23.0779 15.8674 22.6696 15.204 22.3635 14.419C22.0651 13.6339 21.916 12.7389 21.916 11.734C21.916 10.8547 22.0455 10.0343 22.3046 9.27275C22.5715 8.50337 22.9601 7.83998 23.4704 7.28257C23.9886 6.71731 24.6245 6.27374 25.3782 5.95186C26.1397 5.62998 27.019 5.46903 28.016 5.46903C28.9738 5.46903 29.8139 5.62213 30.5361 5.92831C31.2584 6.23449 31.91 6.68199 32.491 7.2708L31.5253 8.5544ZM41.3947 10.2973C41.3947 10.0068 41.3555 9.72417 41.277 9.44939C41.2063 9.17462 41.0846 8.93124 40.9119 8.71927C40.747 8.49945 40.5272 8.3228 40.2524 8.18934C39.9777 8.05588 39.644 7.98914 39.2515 7.98914C38.5606 7.98914 38.0189 8.18934 37.6263 8.58973C37.2338 8.98227 36.9747 9.55145 36.8491 10.2973H41.3947ZM36.802 12.417C36.9198 13.4376 37.2299 14.1795 37.7323 14.6427C38.2348 15.098 38.8825 15.3257 39.6754 15.3257C40.0993 15.3257 40.4644 15.2747 40.7706 15.1726C41.0768 15.0706 41.3476 14.9567 41.5831 14.8311C41.8265 14.7055 42.0463 14.5917 42.2426 14.4896C42.4467 14.3876 42.6587 14.3365 42.8785 14.3365C43.169 14.3365 43.3888 14.4425 43.538 14.6545L44.5979 15.9616C44.221 16.3934 43.8128 16.7467 43.3731 17.0215C42.9413 17.2884 42.4938 17.5004 42.0306 17.6574C41.5753 17.8066 41.116 17.9086 40.6528 17.9636C40.1975 18.0264 39.7618 18.0578 39.3457 18.0578C38.4899 18.0578 37.6852 17.9204 36.9315 17.6456C36.1857 17.363 35.5302 16.9469 34.9649 16.3974C34.4075 15.8478 33.9639 15.1648 33.6342 14.3483C33.3123 13.5318 33.1514 12.5819 33.1514 11.4985C33.1514 10.682 33.2888 9.90867 33.5635 9.17854C33.8462 8.44842 34.2466 7.80858 34.7647 7.25902C35.2907 6.70946 35.9227 6.27374 36.6607 5.95186C37.4065 5.62998 38.2466 5.46903 39.1808 5.46903C39.9894 5.46903 40.7274 5.59465 41.3947 5.84587C42.0699 6.0971 42.6469 6.46216 43.1258 6.94106C43.6126 7.41996 43.9894 8.00877 44.2563 8.70749C44.5311 9.39836 44.6685 10.1834 44.6685 11.0627C44.6685 11.3375 44.6567 11.5613 44.6332 11.734C44.6096 11.9067 44.5665 12.0441 44.5036 12.1461C44.4408 12.2482 44.3545 12.3189 44.2446 12.3581C44.1425 12.3974 44.009 12.417 43.8442 12.417H36.802ZM50.1459 14.5485C50.4207 14.8468 50.719 15.0588 51.0409 15.1844C51.3628 15.31 51.6886 15.3728 52.0183 15.3728C52.3638 15.3728 52.6817 15.31 52.9722 15.1844C53.2627 15.0509 53.51 14.839 53.7141 14.5485C53.9261 14.2502 54.091 13.8615 54.2087 13.3826C54.3265 12.8959 54.3854 12.2992 54.3854 11.5927C54.3854 10.9803 54.3383 10.4621 54.244 10.0382C54.1577 9.60641 54.0242 9.25705 53.8437 8.99012C53.6709 8.71534 53.4511 8.51907 53.1842 8.40131C52.9251 8.2757 52.6268 8.21289 52.2892 8.21289C51.8417 8.21289 51.4531 8.31103 51.1233 8.5073C50.7936 8.70357 50.4678 8.99012 50.1459 9.36696V14.5485ZM50.1459 6.95284C50.617 6.50534 51.1312 6.14813 51.6886 5.8812C52.2539 5.60642 52.8819 5.46903 53.5728 5.46903C54.2637 5.46903 54.8917 5.61035 55.457 5.89298C56.0223 6.17561 56.5051 6.57992 56.9055 7.10593C57.3059 7.62408 57.612 8.25215 57.824 8.99012C58.0438 9.7281 58.1537 10.5524 58.1537 11.4631C58.1537 12.4523 58.0281 13.3512 57.7769 14.1599C57.5257 14.9685 57.1685 15.6633 56.7053 16.2443C56.2499 16.8174 55.7043 17.2649 55.0684 17.5868C54.4325 17.9008 53.7298 18.0578 52.9604 18.0578C52.5915 18.0578 52.2617 18.0225 51.9712 17.9518C51.6808 17.8812 51.4138 17.783 51.1705 17.6574C50.9271 17.5239 50.7033 17.3669 50.4992 17.1864C50.3029 17.0058 50.1106 16.8095 49.9222 16.5976L49.7926 17.2099C49.7298 17.4611 49.6278 17.6339 49.4865 17.7281C49.3451 17.8223 49.1567 17.8694 48.9212 17.8694H46.4953V0.240397H50.1459V6.95284ZM65.6486 5.46903C66.575 5.46903 67.4189 5.61427 68.1805 5.90476C68.942 6.19524 69.5936 6.61133 70.1353 7.15303C70.6849 7.69474 71.1088 8.35421 71.4071 9.13144C71.7133 9.90082 71.8664 10.7683 71.8664 11.734C71.8664 12.7075 71.7133 13.5868 71.4071 14.3719C71.1088 15.1491 70.6849 15.8125 70.1353 16.362C69.5936 16.9037 68.942 17.3238 68.1805 17.6221C67.4189 17.9126 66.575 18.0578 65.6486 18.0578C64.7143 18.0578 63.8625 17.9126 63.0931 17.6221C62.3316 17.3238 61.6721 16.9037 61.1147 16.362C60.5652 15.8125 60.1373 15.1491 59.8311 14.3719C59.5328 13.5868 59.3836 12.7075 59.3836 11.734C59.3836 10.7683 59.5328 9.90082 59.8311 9.13144C60.1373 8.35421 60.5652 7.69474 61.1147 7.15303C61.6721 6.61133 62.3316 6.19524 63.0931 5.90476C63.8625 5.61427 64.7143 5.46903 65.6486 5.46903ZM65.6486 15.3493C66.4886 15.3493 67.1049 15.0549 67.4974 14.4661C67.8978 13.8694 68.098 12.9666 68.098 11.7575C68.098 10.5485 67.8978 9.64959 67.4974 9.06078C67.1049 8.47197 66.4886 8.17756 65.6486 8.17756C64.785 8.17756 64.153 8.47197 63.7526 9.06078C63.3522 9.64959 63.152 10.5485 63.152 11.7575C63.152 12.9666 63.3522 13.8694 63.7526 14.4661C64.153 15.0549 64.785 15.3493 65.6486 15.3493ZM79.3338 5.46903C80.2602 5.46903 81.1042 5.61427 81.8657 5.90476C82.6272 6.19524 83.2788 6.61133 83.8206 7.15303C84.3701 7.69474 84.7941 8.35421 85.0924 9.13144C85.3986 9.90082 85.5517 10.7683 85.5517 11.734C85.5517 12.7075 85.3986 13.5868 85.0924 14.3719C84.7941 15.1491 84.3701 15.8125 83.8206 16.362C83.2788 16.9037 82.6272 17.3238 81.8657 17.6221C81.1042 17.9126 80.2602 18.0578 79.3338 18.0578C78.3996 18.0578 77.5478 17.9126 76.7784 17.6221C76.0168 17.3238 75.3574 16.9037 74.8 16.362C74.2504 15.8125 73.8225 15.1491 73.5164 14.3719C73.218 13.5868 73.0689 12.7075 73.0689 11.734C73.0689 10.7683 73.218 9.90082 73.5164 9.13144C73.8225 8.35421 74.2504 7.69474 74.8 7.15303C75.3574 6.61133 76.0168 6.19524 76.7784 5.90476C77.5478 5.61427 78.3996 5.46903 79.3338 5.46903ZM79.3338 15.3493C80.1739 15.3493 80.7901 15.0549 81.1827 14.4661C81.5831 13.8694 81.7833 12.9666 81.7833 11.7575C81.7833 10.5485 81.5831 9.64959 81.1827 9.06078C80.7901 8.47197 80.1739 8.17756 79.3338 8.17756C78.4702 8.17756 77.8382 8.47197 77.4378 9.06078C77.0375 9.64959 76.8373 10.5485 76.8373 11.7575C76.8373 12.9666 77.0375 13.8694 77.4378 14.4661C77.8382 15.0549 78.4702 15.3493 79.3338 15.3493ZM91.0407 0.240397V10.1206H91.5824C91.81 10.1206 91.9828 10.0892 92.1005 10.0264C92.2183 9.95577 92.336 9.84193 92.4538 9.68492L94.7619 6.24627C94.9033 6.04999 95.0642 5.90475 95.2448 5.81055C95.4253 5.70848 95.6569 5.65745 95.9396 5.65745H99.284L96.128 10.0029C95.8296 10.3954 95.4764 10.7173 95.0681 10.9685C95.2487 11.102 95.4136 11.259 95.5627 11.4396C95.7119 11.6123 95.8532 11.8086 95.9867 12.0284L99.4253 17.8694H96.128C95.8532 17.8694 95.6177 17.8262 95.4214 17.7398C95.2251 17.6456 95.0603 17.4847 94.9268 17.257L92.6187 12.9352C92.5088 12.7389 92.3949 12.6133 92.2772 12.5583C92.1594 12.4955 91.9828 12.4641 91.7472 12.4641H91.0407V17.8694H87.39V0.240397H91.0407Z" fill="#1777F2"/>
</svg>
