<svg width="34" height="34" viewBox="0 0 34 34" fill="none" xmlns="http://www.w3.org/2000/svg">
<g clip-path="url(#clip0_646_6292)">
<path d="M33.6686 17.3914C33.6686 16.2357 33.5749 15.0739 33.375 13.937H17.3401V20.4834H26.5225C26.1415 22.5947 24.9172 24.4625 23.1244 25.6493V29.897H28.6027C31.8196 26.9361 33.6686 22.5635 33.6686 17.3914Z" fill="#4285F4"/>
<path d="M17.3401 34.0012C21.925 34.0012 25.7917 32.4958 28.6089 29.8972L23.1306 25.6496C21.6065 26.6865 19.6388 27.2737 17.3463 27.2737C12.9113 27.2737 9.15083 24.2816 7.80157 20.2588H2.14844V24.6376C5.03435 30.3782 10.9124 34.0012 17.3401 34.0012Z" fill="#34A853"/>
<path d="M7.79535 20.2588C7.08324 18.1475 7.08324 15.8613 7.79535 13.7499V9.37109H2.14847C-0.262705 14.1747 -0.262705 19.8341 2.14847 24.6377L7.79535 20.2588Z" fill="#FBBC04"/>
<path d="M17.3401 6.72868C19.7637 6.69121 22.1062 7.6032 23.8615 9.27728L28.715 4.42371C25.6417 1.5378 21.5627 -0.0488268 17.3401 0.00114561C10.9124 0.00114561 5.03435 3.62415 2.14844 9.37098L7.79532 13.7498C9.13833 9.72079 12.905 6.72868 17.3401 6.72868Z" fill="#EA4335"/>
</g>
<defs>
<clipPath id="clip0_646_6292">
<rect width="34" height="34" fill="white"/>
</clipPath>
</defs>
</svg>
