<svg width="100" height="33" viewBox="0 0 100 33" fill="none" xmlns="http://www.w3.org/2000/svg">
<path d="M34.2557 9.11013C29.6677 9.11817 26.1441 12.6613 26.1568 17.2539C26.1694 21.8259 29.7205 25.3379 34.3282 25.3264C38.9105 25.3161 42.4524 21.7569 42.434 17.1815C42.4156 12.6061 38.8656 9.10093 34.2557 9.11013ZM36.0652 21.7385C34.3477 22.503 32.7233 22.1984 31.3127 20.9683C29.486 19.3726 29.1848 16.3078 30.6126 14.2546C31.0051 13.6793 31.5271 13.2041 32.1366 12.8671C32.7461 12.5301 33.4261 12.3407 34.1221 12.3142C34.818 12.2877 35.5105 12.4248 36.1439 12.7145C36.7772 13.0042 37.3338 13.4383 37.7689 13.9821C38.4851 14.8604 38.8576 15.9733 38.8564 17.6126C38.7886 19.2703 37.9839 20.8832 36.0652 21.7385Z" fill="#DB4437"/>
<path d="M51.9723 9.10426C47.3544 9.11115 43.8101 12.6542 43.8228 17.2664C43.832 21.8177 47.4015 25.3344 52.0045 25.3286C56.5696 25.3229 60.115 21.797 60.1196 17.263C60.123 12.6404 56.5845 9.09851 51.9723 9.10426ZM51.3837 22.081C49.6467 21.8867 48.1648 20.5635 47.6234 18.7299C46.9336 16.3893 47.9108 13.859 49.8961 12.8324C52.777 11.3379 56.1603 13.2428 56.5006 16.5456C56.5236 16.7756 56.5282 17.0055 56.5316 17.0699C56.5305 20.2405 54.2347 22.4006 51.3837 22.081Z" fill="#F4B400"/>
<path d="M88.6867 19.6634C92.2677 18.1805 95.851 16.6963 99.4999 15.1869C99.2194 14.5431 99.0021 13.9695 98.7285 13.4234C96.6684 9.33312 92.2378 7.88807 88.4085 10.1194C85.8966 11.584 84.7758 13.9223 84.6148 16.7573C84.2803 22.8892 90.1134 27.0451 95.751 24.6964C97.2317 24.0791 98.3951 23.0628 99.3263 21.7316L96.5672 19.9037C94.2979 23.2721 89.7857 22.5076 88.6867 19.6634ZM91.2963 12.3945C92.9172 11.9347 94.5922 12.5761 95.2716 13.9695L88.0832 16.9584C87.905 14.9098 89.3075 12.9578 91.2963 12.3945Z" fill="#DB4437"/>
<path d="M24.8529 11.5852H24.1976C20.8453 11.5852 17.4931 11.5852 14.1409 11.5852C13.9316 11.5852 13.7235 11.6117 13.5143 11.6255H13.3994C13.3672 11.6438 13.3085 11.6611 13.3085 11.6806C13.2936 12.736 13.2798 13.7925 13.2879 14.8489C13.2879 14.8984 13.4925 14.9455 13.6017 14.9938C13.7335 15.014 13.8663 15.0275 13.9995 15.034C16.4826 15.034 18.9665 15.034 21.4512 15.034C21.2764 17.2183 20.3361 18.968 18.5611 20.282C14.8743 23.0134 7.72492 22.5455 5.08544 16.5262C3.55531 13.0372 4.00136 9.66653 6.48335 6.73735C8.92971 3.84839 12.7487 2.84019 16.2251 4.1082C17.3885 4.5324 18.4381 5.2647 19.4693 5.81881L21.8903 3.55064C21.8903 3.55064 21.7156 3.42074 21.6478 3.35751C17.2287 -0.737376 10.4426 -0.981092 5.4809 2.78271C-0.479793 7.3087 -1.21094 15.8617 3.93928 21.2844C6.97193 24.4769 10.7472 25.7322 15.0904 25.2494C19.9073 24.7137 23.6596 21.3959 24.7172 16.8136C25.122 15.0987 25.1681 13.3188 24.8529 11.5852Z" fill="#4285F4"/>
<path d="M77.064 9.64004H73.7199C73.7015 10.0493 73.6854 10.4333 73.6647 10.8885L72.9588 10.3528L72.1541 9.81478C70.6412 8.97212 69.0421 8.91808 67.4212 9.37448C64.3299 10.2436 61.9433 13.0187 61.6237 16.1916C61.2685 19.706 62.6078 22.4558 65.6267 24.3044C68.0925 25.8138 71.4655 25.7667 73.5359 23.6146C73.5532 23.5974 73.6038 23.6146 73.6509 23.6146C73.6509 24.2814 73.7084 24.9504 73.6405 25.6057C73.4394 27.5336 72.4093 28.7821 70.7125 29.2431C68.9019 29.7351 67.0935 29.1465 65.9911 27.6842C65.7278 27.3393 65.5163 26.9496 65.2553 26.5346L62.2158 27.7992C63.9287 31.9078 68.4121 33.6116 72.4944 32.0527L74.3981 30.9525C74.404 30.954 74.4102 30.9543 74.4162 30.9533C74.4222 30.9523 74.428 30.95 74.433 30.9467C74.4381 30.9433 74.4424 30.9389 74.4457 30.9338C74.449 30.9287 74.4512 30.9229 74.4522 30.9169L74.5579 30.8192L74.6729 30.7042L75.0615 30.2984L75.0557 30.2846C75.3477 29.9133 75.6868 29.5696 75.9214 29.1649C76.7686 27.7037 77.0847 26.0989 77.0859 24.4239C77.0859 19.637 77.0859 14.8497 77.0859 10.0619C77.0893 9.93549 77.0744 9.80443 77.064 9.64004ZM73.5072 19.4542C72.7278 21.335 71.0436 22.3006 69.0674 22.0902C67.2487 21.8971 65.6646 20.3946 65.2542 18.4529C65.168 18.0448 65.1392 17.6229 65.1082 17.3516C65.176 15.4306 65.8186 13.9591 67.3499 12.9773C67.8028 12.6786 68.3106 12.473 68.8437 12.3724C69.3769 12.2717 69.9247 12.2782 70.4553 12.3912C70.9859 12.5043 71.4888 12.7218 71.9345 13.031C72.3803 13.3403 72.7602 13.7351 73.0519 14.1925C74.1268 15.8525 74.259 17.639 73.5072 19.4542Z" fill="#4285F4"/>
<path d="M79.4922 0.996216V24.8137H82.9985V0.996216H79.4922Z" fill="#0F9D58"/>
</svg>
