<svg width="156" height="88" viewBox="0 0 156 88" fill="none" xmlns="http://www.w3.org/2000/svg">
<mask id="mask0_2996_15873" style="mask-type:alpha" maskUnits="userSpaceOnUse" x="0" y="0" width="156" height="88">
<rect width="156" height="88" fill="#D9D9D9"/>
</mask>
<g mask="url(#mask0_2996_15873)">
<path d="M78.0033 78.7182L87.2366 26.7896C96.0376 26.7896 98.8136 27.7547 99.2145 31.6939C99.2145 31.6939 105.118 29.4925 108.096 25.0216C96.4762 19.6372 84.8008 19.3944 84.8008 19.3944L77.988 27.6923L78.0033 27.6912L71.1905 19.3931C71.1905 19.3931 59.5149 19.6362 47.8965 25.0206C50.8716 29.4915 56.7779 31.6928 56.7779 31.6928C57.1811 27.7534 59.9537 26.7883 68.6956 26.7821L78.0033 78.7182Z" fill="#E82127"/>
<path d="M78 16.9977C87.3931 16.9259 98.1445 18.4508 109.151 23.2478C110.622 20.6001 111 19.4299 111 19.4299C98.9686 14.6699 87.7013 13.0409 77.9987 13C68.2967 13.0409 57.0299 14.6701 45 19.4299C45 19.4299 45.5367 20.8713 46.8479 23.2478C57.8521 18.4508 68.6053 16.9259 77.9987 16.9977H78Z" fill="#E82127"/>
</g>
</svg>
