<svg width="126" height="33" viewBox="0 0 126 33" fill="none" xmlns="http://www.w3.org/2000/svg">
<path d="M19.5215 20.6505L23.2205 19.7167L24.766 24.4618L19.5215 20.6505ZM28.0343 14.5172H21.523L19.5215 8.40918L17.52 14.5172H11.0088L16.2786 18.3032L14.2771 24.4113L19.5469 20.6253L22.7898 18.3032L28.0343 14.5172Z" fill="#219653"/>
<path d="M36.427 9.10235V22.9355H33.5862V9.10235H36.427ZM40.6833 9.10235V11.335H29.3964V9.10235H40.6833ZM44.2082 14.8979V22.9355H41.4719V12.6557H44.0466L44.2082 14.8979ZM47.3054 12.5892L47.2579 15.1259C47.1249 15.1069 46.9634 15.091 46.7734 15.0784C46.5897 15.0594 46.4218 15.0499 46.2698 15.0499C45.8835 15.0499 45.5478 15.1005 45.2627 15.2019C44.9841 15.2969 44.7497 15.4394 44.5597 15.6294C44.376 15.8194 44.2367 16.0506 44.1416 16.323C44.053 16.5953 44.0023 16.9057 43.9896 17.2541L43.4386 17.083C43.4386 16.418 43.5051 15.8068 43.6381 15.2494C43.7711 14.6857 43.9643 14.1948 44.2177 13.7768C44.4773 13.3587 44.794 13.0357 45.1677 12.8077C45.5414 12.5797 45.969 12.4656 46.4503 12.4656C46.6024 12.4656 46.7575 12.4783 46.9159 12.5036C47.0742 12.5226 47.2041 12.5511 47.3054 12.5892ZM54.6781 20.4748V12.6557H57.4143V22.9355H54.8396L54.6781 20.4748ZM54.9821 18.3657L55.7897 18.3467C55.7897 19.0307 55.7105 19.6673 55.5521 20.2563C55.3938 20.839 55.1563 21.3457 54.8396 21.7764C54.5229 22.2008 54.1238 22.5333 53.6425 22.774C53.1611 23.0084 52.5942 23.1256 51.9418 23.1256C51.4414 23.1256 50.9791 23.0559 50.5547 22.9165C50.1367 22.7709 49.7756 22.546 49.4716 22.242C49.1739 21.9316 48.9396 21.5358 48.7685 21.0544C48.6039 20.5667 48.5215 19.9808 48.5215 19.2967V12.6557H51.2578V19.3157C51.2578 19.6198 51.2926 19.8763 51.3623 20.0853C51.4383 20.2943 51.5428 20.4653 51.6758 20.5983C51.8088 20.7314 51.964 20.8264 52.1413 20.8834C52.325 20.9404 52.5277 20.9689 52.7494 20.9689C53.3131 20.9689 53.7565 20.8549 54.0795 20.6268C54.4089 20.3988 54.6401 20.0885 54.7731 19.6958C54.9124 19.2967 54.9821 18.8534 54.9821 18.3657ZM65.0625 20.0948C65.0625 19.8985 65.0054 19.7211 64.8914 19.5628C64.7774 19.4044 64.5652 19.2587 64.2549 19.1257C63.9509 18.9864 63.5107 18.8597 62.9343 18.7457C62.4149 18.6317 61.9303 18.4892 61.4806 18.3181C61.0373 18.1408 60.6509 17.9286 60.3215 17.6816C59.9985 17.4346 59.7452 17.1432 59.5615 16.8075C59.3778 16.4655 59.286 16.076 59.286 15.6389C59.286 15.2082 59.3778 14.8028 59.5615 14.4228C59.7515 14.0428 60.0207 13.7071 60.369 13.4157C60.7237 13.118 61.1544 12.8868 61.6612 12.7222C62.1742 12.5511 62.7506 12.4656 63.3903 12.4656C64.2834 12.4656 65.0498 12.6082 65.6895 12.8932C66.3356 13.1782 66.8296 13.5709 67.1716 14.0713C67.52 14.5653 67.6942 15.129 67.6942 15.7624H64.9579C64.9579 15.4964 64.9009 15.2589 64.7869 15.0499C64.6793 14.8345 64.5082 14.6667 64.2739 14.5463C64.0459 14.4196 63.7482 14.3563 63.3808 14.3563C63.0768 14.3563 62.8139 14.4101 62.5922 14.5178C62.3706 14.6192 62.1995 14.7585 62.0792 14.9359C61.9652 15.1069 61.9082 15.2969 61.9082 15.5059C61.9082 15.6643 61.9398 15.8068 62.0032 15.9334C62.0729 16.0538 62.1837 16.1646 62.3357 16.266C62.4877 16.3673 62.6841 16.4623 62.9248 16.551C63.1718 16.6333 63.4758 16.7093 63.8368 16.779C64.5779 16.931 65.2398 17.1305 65.8225 17.3776C66.4052 17.6183 66.8676 17.9476 67.2096 18.3657C67.5517 18.7774 67.7227 19.3189 67.7227 19.9903C67.7227 20.4463 67.6213 20.8644 67.4187 21.2444C67.216 21.6244 66.9246 21.957 66.5446 22.242C66.1645 22.5207 65.7085 22.7392 65.1765 22.8975C64.6508 23.0496 64.0585 23.1256 63.3998 23.1256C62.4434 23.1256 61.6327 22.9545 60.9676 22.6125C60.3089 22.2705 59.8085 21.8366 59.4665 21.3109C59.1308 20.7789 58.9629 20.2341 58.9629 19.6768H61.5566C61.5693 20.0505 61.6643 20.3513 61.8417 20.5793C62.0254 20.8074 62.2565 20.972 62.5352 21.0734C62.8203 21.1747 63.1275 21.2254 63.4568 21.2254C63.8115 21.2254 64.106 21.1779 64.3404 21.0829C64.5747 20.9815 64.7521 20.8485 64.8724 20.6839C64.9991 20.5128 65.0625 20.3165 65.0625 20.0948ZM74.5348 12.6557V14.5938H68.5493V12.6557H74.5348ZM70.0314 10.1189H72.7676V19.8383C72.7676 20.136 72.8056 20.364 72.8816 20.5223C72.964 20.6807 73.0843 20.7915 73.2427 20.8549C73.401 20.9119 73.6005 20.9404 73.8412 20.9404C74.0122 20.9404 74.1642 20.934 74.2972 20.9214C74.4366 20.9024 74.5538 20.8834 74.6488 20.8644L74.6583 22.8785C74.4239 22.9545 74.1706 23.0147 73.8982 23.0591C73.6259 23.1034 73.325 23.1256 72.9956 23.1256C72.3939 23.1256 71.8682 23.0274 71.4185 22.831C70.9751 22.6284 70.6331 22.3053 70.3924 21.862C70.1517 21.4186 70.0314 20.8359 70.0314 20.1138V10.1189ZM78.8291 14.6318V26.8879H76.0929V12.6557H78.6296L78.8291 14.6318ZM85.3372 17.6816V17.8811C85.3372 18.6285 85.2485 19.3221 85.0712 19.9618C84.9002 20.6015 84.6468 21.1589 84.3111 21.6339C83.9754 22.1026 83.5574 22.47 83.057 22.736C82.563 22.9957 81.9929 23.1256 81.3469 23.1256C80.7198 23.1256 80.1751 22.9989 79.7127 22.7455C79.2503 22.4922 78.8608 22.1375 78.5441 21.6814C78.2338 21.2191 77.9836 20.6839 77.7936 20.0758C77.6035 19.4677 77.4579 18.8154 77.3565 18.1186V17.5961C77.4579 16.8487 77.6035 16.1646 77.7936 15.5439C77.9836 14.9169 78.2338 14.3753 78.5441 13.9193C78.8608 13.4569 79.2472 13.099 79.7032 12.8457C80.1656 12.5923 80.7071 12.4656 81.3279 12.4656C81.9802 12.4656 82.5535 12.5892 83.0475 12.8362C83.5479 13.0832 83.9659 13.4379 84.3016 13.9003C84.6436 14.3626 84.9002 14.9137 85.0712 15.5534C85.2485 16.1931 85.3372 16.9025 85.3372 17.6816ZM82.5915 17.8811V17.6816C82.5915 17.2446 82.5535 16.8424 82.4775 16.475C82.4078 16.1013 82.2938 15.7751 82.1354 15.4964C81.9834 15.2177 81.7807 15.0024 81.5274 14.8503C81.2804 14.692 80.9795 14.6128 80.6248 14.6128C80.2511 14.6128 79.9312 14.673 79.6652 14.7933C79.4055 14.9137 79.1933 15.0879 79.0287 15.3159C78.864 15.5439 78.7405 15.8163 78.6581 16.133C78.5758 16.4497 78.5251 16.8075 78.5061 17.2066V18.5272C78.5378 18.9959 78.6265 19.4171 78.7721 19.7908C78.9178 20.1581 79.1427 20.4495 79.4467 20.6649C79.7507 20.8802 80.1498 20.9879 80.6438 20.9879C81.0048 20.9879 81.3089 20.9087 81.5559 20.7504C81.8029 20.5857 82.0024 20.3608 82.1544 20.0758C82.3128 19.7908 82.4236 19.4614 82.487 19.0877C82.5566 18.714 82.5915 18.3118 82.5915 17.8811ZM89.9261 12.6557V22.9355H87.1804V12.6557H89.9261ZM87.0093 9.97643C87.0093 9.57739 87.1487 9.24803 87.4274 8.98834C87.7061 8.72865 88.0798 8.59881 88.5485 8.59881C89.0109 8.59881 89.3814 8.72865 89.6601 8.98834C89.9451 9.24803 90.0876 9.57739 90.0876 9.97643C90.0876 10.3755 89.9451 10.7048 89.6601 10.9645C89.3814 11.2242 89.0109 11.354 88.5485 11.354C88.0798 11.354 87.7061 11.2242 87.4274 10.9645C87.1487 10.7048 87.0093 10.3755 87.0093 9.97643ZM95.0755 8.34229V22.9355H92.3298V8.34229H95.0755ZM96.8997 17.9001V17.7006C96.8997 16.9469 97.0074 16.2533 97.2227 15.6199C97.4381 14.9802 97.7516 14.426 98.1633 13.9573C98.575 13.4886 99.0817 13.1244 99.6834 12.8647C100.285 12.5987 100.976 12.4656 101.755 12.4656C102.534 12.4656 103.227 12.5987 103.835 12.8647C104.443 13.1244 104.953 13.4886 105.365 13.9573C105.783 14.426 106.1 14.9802 106.315 15.6199C106.53 16.2533 106.638 16.9469 106.638 17.7006V17.9001C106.638 18.6475 106.53 19.3411 106.315 19.9808C106.1 20.6142 105.783 21.1684 105.365 21.6434C104.953 22.1121 104.447 22.4763 103.845 22.736C103.243 22.9957 102.553 23.1256 101.774 23.1256C100.995 23.1256 100.301 22.9957 99.6929 22.736C99.0912 22.4763 98.5814 22.1121 98.1633 21.6434C97.7516 21.1684 97.4381 20.6142 97.2227 19.9808C97.0074 19.3411 96.8997 18.6475 96.8997 17.9001ZM99.6359 17.7006V17.9001C99.6359 18.3308 99.6739 18.733 99.75 19.1067C99.826 19.4804 99.9463 19.8098 100.111 20.0948C100.282 20.3735 100.504 20.592 100.776 20.7504C101.048 20.9087 101.381 20.9879 101.774 20.9879C102.154 20.9879 102.48 20.9087 102.752 20.7504C103.025 20.592 103.243 20.3735 103.408 20.0948C103.572 19.8098 103.693 19.4804 103.769 19.1067C103.851 18.733 103.892 18.3308 103.892 17.9001V17.7006C103.892 17.2826 103.851 16.8899 103.769 16.5225C103.693 16.1488 103.569 15.8194 103.398 15.5344C103.234 15.243 103.015 15.015 102.743 14.8503C102.47 14.6857 102.141 14.6033 101.755 14.6033C101.368 14.6033 101.039 14.6857 100.767 14.8503C100.501 15.015 100.282 15.243 100.111 15.5344C99.9463 15.8194 99.826 16.1488 99.75 16.5225C99.6739 16.8899 99.6359 17.2826 99.6359 17.7006ZM113.355 12.6557V14.5938H107.37V12.6557H113.355ZM108.852 10.1189H111.588V19.8383C111.588 20.136 111.626 20.364 111.702 20.5223C111.784 20.6807 111.905 20.7915 112.063 20.8549C112.221 20.9119 112.421 20.9404 112.662 20.9404C112.833 20.9404 112.985 20.934 113.118 20.9214C113.257 20.9024 113.374 20.8834 113.469 20.8644L113.479 22.8785C113.244 22.9545 112.991 23.0147 112.719 23.0591C112.446 23.1034 112.145 23.1256 111.816 23.1256C111.214 23.1256 110.689 23.0274 110.239 22.831C109.795 22.6284 109.453 22.3053 109.213 21.862C108.972 21.4186 108.852 20.8359 108.852 20.1138V10.1189Z" fill="black"/>
</svg>
