<svg width="83" height="66" viewBox="0 0 83 66" fill="none" xmlns="http://www.w3.org/2000/svg">
<g clip-path="url(#clip0_83_623)">
<path d="M23.961 26.15H6.98102C3.97102 26.15 1.54102 28.59 1.54102 31.59V50.66C1.54102 53.67 3.98102 56.1 6.98102 56.1H10.441C10.811 56.1 11.101 56.4 11.101 56.76V63.86C11.101 64.45 11.811 64.75 12.231 64.33L20.271 56.29C20.391 56.17 20.561 56.1 20.741 56.1H30.561C33.441 56.1 35.791 53.87 35.991 51.04" stroke="#300000" stroke-width="2.5" stroke-linecap="round" stroke-linejoin="round"/>
<path d="M73.0209 1.25H36.9709C32.2609 1.25 28.4509 5.06 28.4509 9.77V38.04C28.4509 42.75 32.2609 46.56 36.9709 46.56H52.6509C52.9309 46.56 53.1909 46.67 53.3809 46.86L65.9709 59.45C66.6209 60.1 67.7409 59.64 67.7409 58.72V47.6C67.7409 47.03 68.2009 46.56 68.7809 46.56H73.0209C77.7309 46.56 81.5409 42.75 81.5409 38.04V9.77C81.5409 5.06 77.7309 1.25 73.0209 1.25V1.25Z" stroke="#300000" stroke-width="2.5" stroke-linecap="round" stroke-linejoin="round"/>
<path d="M21.011 10.69L20.051 9.72998" stroke="#300000" stroke-width="2.5" stroke-linecap="round" stroke-linejoin="round"/>
<path d="M15.8411 5.52006L14.8811 4.56006" stroke="#300000" stroke-width="2.5" stroke-linecap="round" stroke-linejoin="round"/>
<path d="M14.8811 10.69L15.8411 9.72998" stroke="#300000" stroke-width="2.5" stroke-linecap="round" stroke-linejoin="round"/>
<path d="M20.051 5.52006L21.011 4.56006" stroke="#300000" stroke-width="2.5" stroke-linecap="round" stroke-linejoin="round"/>
<path d="M8.01099 16L8.28099 15.74" stroke="#300000" stroke-width="2.5" stroke-linecap="round" stroke-linejoin="round"/>
<path d="M4.25098 19.77L4.52098 19.5" stroke="#300000" stroke-width="2.5" stroke-linecap="round" stroke-linejoin="round"/>
<path d="M8.01099 19.5L8.28099 19.77" stroke="#300000" stroke-width="2.5" stroke-linecap="round" stroke-linejoin="round"/>
<path d="M4.25098 15.74L4.52098 16" stroke="#300000" stroke-width="2.5" stroke-linecap="round" stroke-linejoin="round"/>
<path d="M9.01099 37.04C9.96099 36.25 10.981 35.86 12.101 35.86C13.061 35.86 13.821 36.11 14.371 36.6C14.921 37.09 15.191 37.76 15.191 38.59C15.191 39.24 15.011 39.88 14.641 40.52C14.281 41.16 13.591 41.96 12.591 42.93C11.731 43.77 9.17099 46.32 9.17099 46.32V46.38H15.621" stroke="#E11166" stroke-width="2.5" stroke-linecap="round" stroke-linejoin="round"/>
<path d="M24.5311 43.8H17.6111L23.1511 35.86V46.39" stroke="#E11166" stroke-width="2.5" stroke-linecap="round" stroke-linejoin="round"/>
<path d="M67.621 31.06C66.721 30.15 65.121 28.45 63.681 28.31C60.471 28 58.791 33.94 52.141 27.29C45.491 20.64 51.431 18.96 51.121 15.75C50.981 14.31 49.281 12.71 48.371 11.81C45.261 8.74 41.781 12.2 41.271 15.83C40.831 18.93 42.131 25.07 48.251 31.19C54.371 37.31 60.501 38.61 63.611 38.17C67.241 37.65 70.7009 34.17 67.6309 31.07L67.621 31.06Z" stroke="#E11166" stroke-width="2.5" stroke-linecap="round" stroke-linejoin="round"/>
<path d="M66.3911 21.79C66.3911 19.55 65.5411 17.31 63.8311 15.61C62.1211 13.91 59.8811 13.05 57.6511 13.05" stroke="#E11166" stroke-width="2.5" stroke-linecap="round" stroke-linejoin="round"/>
<path d="M60.301 21.37C60.191 20.84 59.921 20.33 59.511 19.92C59.091 19.5 58.571 19.24 58.031 19.13" stroke="#E11166" stroke-width="2.5" stroke-linecap="round" stroke-linejoin="round"/>
</g>
<defs>
<clipPath id="clip0_83_623">
<rect width="82.5" height="65.79" fill="white" transform="translate(0.291016)"/>
</clipPath>
</defs>
</svg>
