<svg width="112" height="58" viewBox="0 0 112 58" fill="none" xmlns="http://www.w3.org/2000/svg">
<path d="M110.282 56.4829L1.29194 56.5269C1.03129 56.5269 0.845107 56.4535 0.845107 56.3509L0.733398 1.7468C0.733398 1.64416 0.91958 1.57084 1.18023 1.57084L110.171 1.52686C110.431 1.52686 110.618 1.60017 110.618 1.70281L110.729 56.3069C110.767 56.4096 110.543 56.4829 110.282 56.4829Z" fill="#E30D0E"/>
<path d="M50.8984 22.9431H54.3848V24.0098H52.0432V25.0505H54.2287V26.1172H52.0432V28.1466H50.8984V22.9431Z" fill="white"/>
<path d="M54.7754 24.5823H55.8681V25.1547H55.8941C55.9982 24.9466 56.1543 24.7644 56.3104 24.6604C56.4665 24.5563 56.6747 24.5043 56.9088 24.5043C56.9608 24.5043 57.0389 24.5043 57.0909 24.5043C57.143 24.5043 57.221 24.5303 57.2731 24.5303V25.545C57.195 25.5189 57.117 25.4929 57.0389 25.4929C56.9608 25.4669 56.8828 25.4669 56.8047 25.4669C56.5966 25.4669 56.4145 25.4929 56.3104 25.545C56.1803 25.597 56.1023 25.6751 56.0242 25.8051C55.9722 25.9092 55.9202 26.0393 55.8941 26.1954C55.8681 26.3515 55.8681 26.5076 55.8681 26.6897V28.1727H54.7754V24.5823Z" fill="white"/>
<path d="M59.8216 27.7042C59.6915 27.8863 59.5094 28.0424 59.3273 28.1205C59.1191 28.1985 58.911 28.2505 58.6768 28.2505C58.5207 28.2505 58.3386 28.2245 58.1825 28.1725C58.0264 28.1205 57.8963 28.0424 57.7662 27.9644C57.6362 27.8603 57.5581 27.7562 57.48 27.6261C57.402 27.496 57.376 27.3399 57.376 27.1578C57.376 26.9497 57.402 26.7676 57.48 26.6375C57.5581 26.4814 57.6622 26.3773 57.7923 26.2732C57.9223 26.1692 58.0784 26.1171 58.2345 26.0651C58.3907 26.0131 58.5728 25.987 58.7549 25.961C58.937 25.935 59.1191 25.909 59.3013 25.909C59.4834 25.909 59.6395 25.909 59.7956 25.909C59.7956 25.7008 59.7175 25.5447 59.5875 25.4407C59.4574 25.3366 59.2752 25.2585 59.0931 25.2585C58.911 25.2585 58.7549 25.2846 58.5988 25.3626C58.4427 25.4407 58.3126 25.5447 58.2085 25.6748L57.6101 25.0764C57.8183 24.8943 58.0524 24.7382 58.3386 24.6341C58.6248 24.5301 58.911 24.478 59.1972 24.478C59.5094 24.478 59.7956 24.5301 60.0037 24.6081C60.2119 24.6862 60.368 24.8163 60.4981 24.9724C60.6281 25.1285 60.7062 25.3106 60.7582 25.5447C60.8103 25.7789 60.8363 26.0391 60.8363 26.3253V28.1465H59.8216V27.7042ZM59.5614 26.5854C59.4834 26.5854 59.3793 26.5854 59.2492 26.5854C59.1191 26.5854 59.0151 26.6114 58.885 26.6375C58.7809 26.6635 58.6768 26.7155 58.5988 26.7936C58.5207 26.8716 58.4687 26.9497 58.4687 27.0798C58.4687 27.2099 58.5207 27.3139 58.6508 27.366C58.7549 27.418 58.885 27.47 59.0151 27.47C59.1191 27.47 59.2232 27.444 59.3273 27.418C59.4313 27.392 59.5094 27.3399 59.5875 27.2879C59.6655 27.2359 59.7175 27.1578 59.7696 27.0798C59.8216 27.0017 59.8476 26.8976 59.8476 26.7936V26.5594L59.5614 26.5854Z" fill="white"/>
<path d="M61.5391 24.5561H62.6058V25.0504H62.6318C62.6578 24.9724 62.7098 24.9203 62.7879 24.8423C62.8399 24.7642 62.918 24.7122 63.0221 24.6601C63.1001 24.6081 63.2042 24.5561 63.3343 24.5301C63.4383 24.504 63.5684 24.478 63.6985 24.478C63.9587 24.478 64.1668 24.5301 64.375 24.6341C64.5571 24.7382 64.7132 24.8943 64.8172 25.1285C64.9473 24.8943 65.1034 24.7382 65.2856 24.6341C65.4677 24.5301 65.7018 24.478 65.962 24.478C66.1962 24.478 66.4043 24.5301 66.5604 24.6081C66.7165 24.6862 66.8466 24.7902 66.9507 24.9463C67.0547 25.0764 67.1068 25.2585 67.1588 25.4407C67.2108 25.6228 67.2108 25.8309 67.2108 26.0391V28.1465H66.1181V26.0651C66.1181 25.909 66.0921 25.7529 66.014 25.6228C65.936 25.4927 65.8059 25.4407 65.6238 25.4407C65.4937 25.4407 65.3896 25.4667 65.3116 25.4927C65.2335 25.5447 65.1555 25.5968 65.1034 25.6748C65.0514 25.7529 65.0254 25.8309 64.9994 25.935C64.9734 26.0391 64.9734 26.1431 64.9734 26.2472V28.1465H63.8806V26.2472C63.8806 26.1952 63.8806 26.1171 63.8806 26.0131C63.8806 25.909 63.8546 25.8309 63.8286 25.7529C63.8026 25.6748 63.7505 25.5968 63.6725 25.5447C63.5944 25.4927 63.5164 25.4667 63.3863 25.4667C63.2562 25.4667 63.1261 25.4927 63.0481 25.5447C62.97 25.5968 62.892 25.6748 62.8399 25.7529C62.7879 25.8309 62.7619 25.935 62.7359 26.0391C62.7098 26.1431 62.7098 26.2732 62.7098 26.3773V28.1465H61.6171L61.5391 24.5561Z" fill="white"/>
<path d="M71.2695 28.1205H70.2028V27.6261H70.1768C70.1248 27.7042 70.0987 27.7562 70.0207 27.8343C69.9687 27.9123 69.8906 27.9644 69.7865 28.0164C69.7085 28.0684 69.6044 28.1205 69.4743 28.1465C69.3703 28.1725 69.2402 28.1985 69.1101 28.1985C68.8239 28.1985 68.6158 28.1465 68.4336 28.0684C68.2515 27.9904 68.1214 27.8603 68.0174 27.7042C67.9133 27.5481 67.8613 27.366 67.8352 27.1578C67.8092 26.9497 67.7832 26.7155 67.7832 26.4814V24.5041H68.8759V26.2472C68.8759 26.3513 68.8759 26.4554 68.8759 26.5594C68.8759 26.6635 68.9019 26.7676 68.954 26.8716C68.98 26.9757 69.0581 27.0277 69.1361 27.1058C69.2142 27.1578 69.3182 27.1838 69.4743 27.1838C69.6044 27.1838 69.7345 27.1578 69.8126 27.1058C69.8906 27.0538 69.9687 26.9757 70.0207 26.8976C70.0727 26.8196 70.0987 26.7155 70.1248 26.6115C70.1508 26.5074 70.1508 26.3773 70.1508 26.2732V24.5041H71.2435L71.2695 28.1205ZM69.5524 22.917H71.0614L69.7865 23.9837H68.8239L69.5524 22.917Z" fill="white"/>
<path d="M72.0234 24.5561H73.1162V25.1285H73.1422C73.2463 24.9203 73.4024 24.7382 73.5585 24.6341C73.7146 24.5301 73.9227 24.478 74.1569 24.478C74.2089 24.478 74.2869 24.478 74.339 24.478C74.391 24.478 74.4691 24.504 74.5211 24.504V25.5187C74.4431 25.4927 74.365 25.4667 74.2869 25.4667C74.2089 25.4407 74.1308 25.4407 74.0528 25.4407C73.8446 25.4407 73.6625 25.4667 73.5585 25.5187C73.4284 25.5708 73.3503 25.6488 73.2723 25.7789C73.1942 25.883 73.1682 26.0131 73.1422 26.1692C73.1162 26.3253 73.1162 26.4814 73.1162 26.6635V28.1465H72.0234V24.5561Z" fill="white"/>
<path d="M76.994 25.5968C76.8379 25.3886 76.6297 25.2846 76.3435 25.2846C76.2395 25.2846 76.1614 25.3106 76.0834 25.3626C76.0053 25.4147 75.9533 25.4927 75.9533 25.5968C75.9533 25.6748 76.0053 25.7529 76.0834 25.8049C76.1614 25.8569 76.2915 25.883 76.4216 25.909C76.5517 25.935 76.7078 25.987 76.8639 26.0131C77.02 26.0391 77.1761 26.1171 77.3062 26.1952C77.4363 26.2732 77.5664 26.3773 77.6444 26.5074C77.7485 26.6375 77.7745 26.8196 77.7745 27.0537C77.7745 27.2879 77.7225 27.47 77.6184 27.6261C77.5143 27.7822 77.3842 27.8863 77.2281 27.9904C77.072 28.0944 76.8899 28.1465 76.7078 28.1725C76.4997 28.1985 76.3175 28.2245 76.1354 28.2245C75.8752 28.2245 75.6411 28.1985 75.3809 28.1205C75.1207 28.0424 74.9126 27.9123 74.7305 27.7302L75.4069 26.9757C75.511 27.1058 75.6151 27.2098 75.7451 27.2619C75.8752 27.3139 76.0053 27.366 76.1874 27.366C76.3175 27.366 76.4216 27.3399 76.5257 27.3139C76.6297 27.2879 76.6818 27.2099 76.6818 27.1058C76.6818 27.0017 76.6297 26.9497 76.5517 26.8976C76.4736 26.8456 76.3435 26.8196 76.2135 26.7936C76.0834 26.7676 75.9273 26.7155 75.7712 26.6895C75.6151 26.6635 75.459 26.5854 75.3289 26.5334C75.1988 26.4553 75.0687 26.3513 74.9906 26.2212C74.8866 26.0911 74.8606 25.909 74.8606 25.6748C74.8606 25.4667 74.9126 25.2846 74.9906 25.1285C75.0687 24.9724 75.1988 24.8423 75.3289 24.7642C75.459 24.6602 75.6411 24.5821 75.8232 24.5561C76.0053 24.504 76.1874 24.478 76.3696 24.478C76.6037 24.478 76.8379 24.504 77.072 24.5821C77.3062 24.6601 77.5143 24.7642 77.6704 24.9463L76.994 25.5968Z" fill="white"/>
<path d="M78.3467 22.5527H79.4394L79.4654 25.961L80.6622 24.5561H82.0411L80.6102 26.1691L82.0672 28.1204H80.6882L79.4654 26.3253V28.1204H78.3467V22.5527Z" fill="white"/>
<path d="M84.5404 27.6782C84.4103 27.8603 84.2282 28.0164 84.046 28.0945C83.8379 28.1725 83.6298 28.2245 83.3956 28.2245C83.2395 28.2245 83.0574 28.1985 82.9013 28.1465C82.7452 28.0945 82.6151 28.0164 82.485 27.9384C82.3549 27.8343 82.2768 27.7302 82.1988 27.6001C82.1207 27.47 82.0947 27.3139 82.0947 27.1318C82.0947 26.9237 82.1207 26.7416 82.1988 26.6115C82.2768 26.4554 82.3809 26.3513 82.511 26.2472C82.6411 26.1432 82.7972 26.0911 82.9533 26.0391C83.1094 25.9871 83.2915 25.961 83.4736 25.935C83.6558 25.909 83.8379 25.883 84.02 25.883C84.2021 25.883 84.3582 25.883 84.5143 25.883C84.5143 25.6748 84.4363 25.5187 84.3062 25.4147C84.1761 25.3106 83.994 25.2325 83.8119 25.2325C83.6297 25.2325 83.4736 25.2586 83.3175 25.3366C83.1614 25.4147 83.0314 25.5187 82.9273 25.6488L82.3289 25.0504C82.537 24.8683 82.7712 24.7122 83.0574 24.6081C83.3436 24.5041 83.6298 24.452 83.9159 24.452C84.2282 24.452 84.5143 24.5041 84.7225 24.5821C84.9306 24.6602 85.0867 24.7903 85.2168 24.9464C85.3469 25.1025 85.4249 25.2846 85.477 25.5187C85.529 25.7529 85.555 26.0131 85.555 26.2993V28.1205H84.5404V27.6782ZM84.2802 26.5594C84.2021 26.5594 84.0981 26.5594 83.968 26.5594C83.8379 26.5594 83.7338 26.5854 83.6037 26.6115C83.4997 26.6375 83.3956 26.6895 83.3175 26.7676C83.2395 26.8456 83.1875 26.9237 83.1875 27.0538C83.1875 27.1838 83.2395 27.2879 83.3696 27.34C83.4736 27.392 83.6037 27.444 83.7338 27.444C83.8379 27.444 83.942 27.418 84.046 27.392C84.1501 27.366 84.2282 27.3139 84.3062 27.2619C84.3843 27.2099 84.4363 27.1318 84.4883 27.0538C84.5404 26.9757 84.5664 26.8716 84.5664 26.7676V26.5334L84.2802 26.5594Z" fill="white"/>
<path d="M86.1514 24.5301H87.2441V25.1025H87.2701C87.4002 24.8943 87.5303 24.7122 87.6864 24.6081C87.8425 24.5041 88.0506 24.452 88.2848 24.452C88.3368 24.452 88.4149 24.452 88.4669 24.452C88.5189 24.452 88.597 24.478 88.649 24.478V25.4927C88.571 25.4667 88.4929 25.4407 88.4149 25.4407C88.3368 25.4147 88.2588 25.4147 88.1807 25.4147C87.9726 25.4147 87.7905 25.4407 87.6864 25.4927C87.5563 25.5448 87.4783 25.6228 87.4002 25.7529C87.3221 25.857 87.2961 25.9871 87.2701 26.1432C87.2441 26.2993 87.2441 26.4554 87.2441 26.6375V28.1205H86.1514V24.5301Z" fill="white"/>
<path d="M91.2777 27.6782C91.1476 27.8603 90.9655 28.0164 90.7833 28.0945C90.5752 28.1725 90.3671 28.2245 90.1329 28.2245C89.9768 28.2245 89.7947 28.1985 89.6386 28.1465C89.4825 28.0945 89.3524 28.0164 89.2223 27.9384C89.0922 27.8343 89.0142 27.7302 88.9361 27.6001C88.8581 27.47 88.832 27.3139 88.832 27.1318C88.832 26.9237 88.8581 26.7416 88.9361 26.6115C89.0142 26.4554 89.1182 26.3513 89.2483 26.2472C89.3784 26.1432 89.5345 26.0911 89.6906 26.0391C89.8467 25.9871 90.0288 25.961 90.211 25.935C90.3931 25.909 90.5752 25.883 90.7573 25.883C90.9394 25.883 91.0955 25.883 91.2516 25.883C91.2516 25.6748 91.1736 25.5187 91.0435 25.4147C90.9134 25.3106 90.7313 25.2325 90.5492 25.2325C90.3671 25.2325 90.211 25.2586 90.0548 25.3366C89.8987 25.4147 89.7687 25.5187 89.6646 25.6488L89.0662 25.0504C89.2743 24.8683 89.5085 24.7122 89.7947 24.6081C90.0809 24.5041 90.341 24.452 90.6532 24.452C90.9655 24.452 91.2516 24.5041 91.4598 24.5821C91.6679 24.6602 91.824 24.7903 91.9541 24.9464C92.0842 25.1025 92.1623 25.2846 92.2143 25.5187C92.2663 25.7529 92.2923 26.0131 92.2923 26.2993V28.1205H91.2777V27.6782ZM90.9915 26.5594C90.9134 26.5594 90.8094 26.5594 90.6793 26.5594C90.5492 26.5594 90.4451 26.5854 90.315 26.6115C90.211 26.6375 90.1069 26.6895 90.0288 26.7676C89.9508 26.8456 89.8987 26.9237 89.8987 27.0538C89.8987 27.1838 89.9508 27.2879 90.0809 27.34C90.1849 27.392 90.315 27.444 90.4451 27.444C90.5492 27.444 90.6532 27.418 90.7573 27.392C90.8614 27.366 90.9394 27.3139 91.0175 27.2619C91.0955 27.2099 91.1476 27.1318 91.1996 27.0538C91.2516 26.9757 91.2777 26.8716 91.2777 26.7676V26.5334L90.9915 26.5594Z" fill="white"/>
<path d="M92.8384 24.5301H93.9051V25.0244H93.9311C93.9571 24.9464 94.0092 24.8943 94.0872 24.8163C94.1392 24.7382 94.2173 24.6862 94.3214 24.6342C94.3994 24.5821 94.5035 24.5301 94.6336 24.5041C94.7376 24.478 94.8677 24.452 94.9978 24.452C95.284 24.452 95.4921 24.5041 95.6743 24.5821C95.8564 24.6602 95.9865 24.7903 96.0645 24.9464C96.1686 25.1025 96.2206 25.2846 96.2467 25.4927C96.2727 25.7009 96.2987 25.935 96.2987 26.1692V28.1465H95.206V26.4033C95.206 26.2993 95.206 26.1952 95.206 26.0911C95.206 25.987 95.1799 25.883 95.1539 25.7789C95.1279 25.6748 95.0499 25.6228 94.9718 25.5448C94.8937 25.4927 94.7897 25.4667 94.6336 25.4667C94.5035 25.4667 94.3734 25.4927 94.2953 25.5448C94.2173 25.5968 94.1392 25.6748 94.0872 25.7529C94.0352 25.8309 94.0092 25.935 93.9831 26.0391C93.9571 26.1432 93.9571 26.2472 93.9571 26.3773V28.1465H92.8644L92.8384 24.5301Z" fill="white"/>
<path d="M100.592 28.0946H99.577V27.6263H99.551C99.499 27.6783 99.4469 27.7563 99.3689 27.8084C99.2908 27.8864 99.2128 27.9385 99.1087 27.9905C99.0046 28.0425 98.9006 28.0946 98.7965 28.1206C98.6924 28.1466 98.5624 28.1726 98.4323 28.1726C98.1721 28.1726 97.9379 28.1206 97.7038 28.0425C97.4956 27.9645 97.3135 27.8344 97.1574 27.6523C97.0013 27.4962 96.8712 27.288 96.7932 27.0799C96.7151 26.8457 96.6631 26.6116 96.6631 26.3254C96.6631 26.0652 96.6891 25.8311 96.7672 25.5969C96.8452 25.3627 96.9493 25.1546 97.0794 24.9985C97.2094 24.8164 97.3916 24.6863 97.5997 24.5822C97.8078 24.4782 98.016 24.4261 98.2762 24.4261C98.5103 24.4261 98.7185 24.4521 98.9266 24.5302C99.1347 24.6082 99.2908 24.7123 99.4209 24.8944H99.4469V22.5269H100.54L100.592 28.0946ZM99.577 26.3254C99.577 26.0652 99.499 25.8311 99.3429 25.675C99.1868 25.5189 98.9786 25.4148 98.6924 25.4148C98.4063 25.4148 98.1981 25.4928 98.042 25.675C97.8859 25.8311 97.8078 26.0652 97.8078 26.3254C97.8078 26.5856 97.8859 26.8197 98.042 26.9758C98.1981 27.1319 98.4063 27.236 98.6924 27.236C98.9786 27.236 99.1868 27.1579 99.3429 26.9758C99.499 26.8197 99.577 26.5856 99.577 26.3254Z" fill="white"/>
<path d="M101.138 23.4114C101.138 23.2293 101.19 23.0732 101.32 22.9691C101.45 22.839 101.606 22.787 101.763 22.787C101.945 22.787 102.101 22.839 102.205 22.9691C102.335 23.0992 102.387 23.2553 102.387 23.4114C102.387 23.5935 102.335 23.7496 102.205 23.8537C102.075 23.9838 101.919 24.0358 101.763 24.0358C101.58 24.0358 101.424 23.9838 101.32 23.8537C101.216 23.7236 101.138 23.5935 101.138 23.4114ZM101.242 24.5301H102.335V28.0945H101.242V24.5301Z" fill="white"/>
<path d="M51.1064 33.168H50.3779V32.2834H51.1064V31.659C51.1064 31.4508 51.1324 31.2687 51.1585 31.1126C51.1845 30.9305 51.2625 30.7744 51.3666 30.6443C51.4707 30.5142 51.6007 30.4101 51.7829 30.3321C51.965 30.254 52.1991 30.228 52.5114 30.228C52.6154 30.228 52.7455 30.228 52.8496 30.254C52.9536 30.254 53.0577 30.2801 53.1618 30.3061L53.1098 31.2427C53.0577 31.2167 52.9797 31.1907 52.9276 31.1907C52.8756 31.1646 52.8236 31.1646 52.7455 31.1646C52.5634 31.1646 52.4333 31.2167 52.3552 31.2687C52.2772 31.3468 52.2252 31.5029 52.2252 31.737V32.3094H53.0317V33.194H52.2252V35.8998H51.1324L51.1064 33.168Z" fill="white"/>
<path d="M55.711 36.446C55.6329 36.6281 55.5549 36.8102 55.5028 36.9663C55.4248 37.1224 55.3467 37.2265 55.2427 37.3306C55.1386 37.4346 55.0085 37.5127 54.8524 37.5647C54.6963 37.6168 54.4882 37.6428 54.202 37.6428C53.9158 37.6428 53.6556 37.5907 53.3694 37.5127L53.5255 36.6021C53.6816 36.6801 53.8637 36.7062 54.0459 36.7062C54.176 36.7062 54.28 36.6801 54.3581 36.6541C54.4361 36.6281 54.4882 36.5761 54.5662 36.524C54.6183 36.472 54.6703 36.42 54.6963 36.3419C54.7223 36.2639 54.7744 36.1858 54.8004 36.0817L54.8784 35.8736L53.3174 32.2832H54.5142L55.4248 34.6508H55.4508L56.2313 32.2832H57.3761L55.711 36.446Z" fill="white"/>
<path d="M57.6641 32.2833H58.7568V32.8556H58.7828C58.9129 32.6475 59.043 32.4654 59.1991 32.3613C59.3552 32.2572 59.5633 32.2052 59.7975 32.2052C59.8495 32.2052 59.9276 32.2052 59.9796 32.2052C60.0316 32.2052 60.1097 32.2312 60.1617 32.2312V33.2459C60.0837 33.2199 60.0056 33.1939 59.9276 33.1939C59.8495 33.1678 59.7715 33.1678 59.6934 33.1678C59.4853 33.1678 59.3032 33.1939 59.1991 33.2459C59.069 33.2979 58.9909 33.376 58.9129 33.5061C58.8348 33.6101 58.8088 33.7402 58.7828 33.8963C58.7568 34.0524 58.7568 34.2085 58.7568 34.3907V35.8737H57.6641V32.2833Z" fill="white"/>
<path d="M60.499 31.1386C60.499 30.9565 60.5511 30.8004 60.6811 30.6963C60.8112 30.5662 60.9673 30.5142 61.1234 30.5142C61.3056 30.5142 61.4617 30.5662 61.5657 30.6963C61.6958 30.8264 61.7479 30.9825 61.7479 31.1386C61.7479 31.3207 61.6958 31.4768 61.5657 31.5809C61.4356 31.711 61.2795 31.763 61.1234 31.763C60.9413 31.763 60.7852 31.711 60.6811 31.5809C60.5511 31.4768 60.499 31.3207 60.499 31.1386ZM60.5771 32.2833H61.6698V35.8477H60.5771V32.2833Z" fill="white"/>
<path d="M62.1904 32.2833H63.2832V32.8556H63.3092C63.4132 32.6475 63.5693 32.4654 63.7255 32.3613C63.8816 32.2572 64.0897 32.2052 64.3239 32.2052C64.3759 32.2052 64.4539 32.2052 64.506 32.2052C64.558 32.2052 64.6361 32.2312 64.6881 32.2312V33.2459C64.61 33.2199 64.532 33.1939 64.4539 33.1939C64.3759 33.1678 64.2978 33.1678 64.2198 33.1678C64.0116 33.1678 63.8295 33.1939 63.7255 33.2459C63.5954 33.2979 63.5173 33.376 63.4393 33.5061C63.3612 33.6101 63.3352 33.7402 63.3092 33.8963C63.2832 34.0524 63.2832 34.2085 63.2832 34.3907V35.8737H62.1904V32.2833Z" fill="white"/>
<path d="M67.7575 33.1419H66.7948V34.3387C66.7948 34.4427 66.7948 34.5208 66.8209 34.5988C66.8209 34.6769 66.8469 34.7549 66.8989 34.807C66.9249 34.859 66.977 34.911 67.055 34.9371C67.1331 34.9631 67.2111 34.9891 67.3412 34.9891C67.3932 34.9891 67.4713 34.9891 67.5754 34.9631C67.6794 34.9631 67.7315 34.911 67.7835 34.885V35.7956C67.6534 35.8477 67.5233 35.8737 67.3932 35.8737C67.2632 35.8997 67.1331 35.8997 67.003 35.8997C66.8209 35.8997 66.6387 35.8737 66.4826 35.8477C66.3265 35.8216 66.1964 35.7436 66.0664 35.6655C65.9363 35.5875 65.8582 35.4574 65.7802 35.3273C65.7021 35.1972 65.6761 35.0151 65.6761 34.833V33.1419H64.9736V32.2573H65.6761L65.7021 31.1906H66.7948L66.7688 32.2573H67.7315L67.7575 33.1419Z" fill="white"/>
<path d="M68.3296 32.7517C68.5377 32.5696 68.7719 32.4135 69.0581 32.3094C69.3443 32.2054 69.6044 32.1533 69.9166 32.1533C70.1248 32.1533 70.3329 32.1793 70.5411 32.2574C70.7492 32.3354 70.9313 32.4395 71.0874 32.5956C71.2435 32.4655 71.3996 32.3354 71.6078 32.2834C71.8159 32.2054 72.0501 32.1793 72.2842 32.1793C72.5444 32.1793 72.7786 32.2314 72.9867 32.3094C73.1948 32.3875 73.377 32.5176 73.507 32.6997C73.6631 32.8558 73.7672 33.0639 73.8453 33.2981C73.9233 33.5322 73.9754 33.7924 73.9754 34.0786V34.4168H71.4257C71.4777 34.625 71.5557 34.8071 71.7118 34.9112C71.8679 35.0412 72.0501 35.0933 72.2582 35.0933C72.4403 35.0933 72.5964 35.0412 72.7265 34.9632C72.8566 34.8851 72.9607 34.7811 73.0647 34.651L73.8453 35.2234C73.6631 35.4575 73.455 35.6136 73.1688 35.7437C72.8826 35.8738 72.6224 35.9258 72.3363 35.9258C72.0501 35.9258 71.7639 35.8738 71.5297 35.7958C71.2695 35.7177 71.0874 35.5616 70.9053 35.3274C70.7492 35.5356 70.5411 35.6917 70.2809 35.7697C70.0207 35.8478 69.7345 35.8998 69.4223 35.8998C69.2662 35.8998 69.0841 35.8738 68.954 35.8218C68.7979 35.7697 68.6678 35.7177 68.5377 35.6136C68.4076 35.5096 68.3296 35.4055 68.2515 35.2754C68.1735 35.1453 68.1475 34.9892 68.1475 34.8071C68.1475 34.625 68.1735 34.4428 68.2515 34.3128C68.3296 34.1827 68.4337 34.0786 68.5377 33.9745C68.6678 33.8965 68.7979 33.8184 68.954 33.7664C69.1101 33.7144 69.2662 33.6883 69.4223 33.6623C69.5784 33.6363 69.7605 33.6103 69.9166 33.6103C70.0727 33.6103 70.2289 33.6103 70.3589 33.6103H70.489C70.489 33.4022 70.437 33.22 70.3329 33.0899C70.2289 32.9599 70.0727 32.8818 69.8646 32.8818C69.6825 32.8818 69.5264 32.9078 69.3703 32.9859C69.2142 33.0639 69.0841 33.168 68.98 33.2981L68.3296 32.7517ZM69.1621 34.8071C69.1621 34.8851 69.1882 34.9632 69.2142 34.9892C69.2402 35.0412 69.2922 35.0673 69.3443 35.0933C69.3963 35.1193 69.4483 35.1453 69.5264 35.1453C69.6044 35.1453 69.6565 35.1453 69.7085 35.1453C69.9687 35.1453 70.1508 35.0673 70.2809 34.9372C70.385 34.8071 70.437 34.599 70.437 34.3648H70.3069C70.2289 34.3648 70.1248 34.3648 69.9947 34.3648C69.8646 34.3648 69.7345 34.3908 69.6044 34.4168C69.4743 34.4428 69.3703 34.4949 69.2922 34.5469C69.1882 34.625 69.1621 34.729 69.1621 34.8071ZM72.8306 33.6363C72.8306 33.4542 72.7786 33.2981 72.6485 33.168C72.5184 33.0379 72.3623 32.9599 72.1541 32.9599C72.0241 32.9599 71.92 32.9859 71.8419 33.0119C71.7379 33.0639 71.6598 33.0899 71.6078 33.168C71.5297 33.22 71.4777 33.2981 71.4517 33.3761C71.4256 33.4542 71.3996 33.5322 71.3996 33.6363H72.8306Z" fill="white"/>
<path d="M74.445 30.28H75.5377L75.5117 33.6623L76.7345 32.2574H78.0874L76.6825 33.8704L78.1394 35.8217L76.7345 35.8477L75.5377 34.0265H75.5117V35.8477H74.4189L74.445 30.28Z" fill="white"/>
<path d="M78.3994 31.1386C78.3994 30.9565 78.4514 30.8004 78.5815 30.6963C78.7116 30.5662 78.8677 30.5142 79.0238 30.5142C79.206 30.5142 79.3621 30.5662 79.4661 30.6963C79.5962 30.8264 79.6482 30.9825 79.6482 31.1386C79.6482 31.3207 79.5442 31.4768 79.4401 31.5809C79.31 31.711 79.1539 31.763 78.9978 31.763C78.8157 31.763 78.6596 31.711 78.5555 31.5809C78.4254 31.4508 78.3994 31.3207 78.3994 31.1386ZM78.4775 32.2573H79.5702V35.8217H78.4775V32.2573Z" fill="white"/>
<path d="M28.4244 9.54724C17.8249 9.54724 9.23438 18.1569 9.23438 28.7756C9.23438 39.3751 17.8441 47.9656 28.4627 47.9656C39.0622 47.9656 47.6527 39.3559 47.6527 28.7373C47.6527 18.1187 39.0431 9.54724 28.4244 9.54724Z" fill="white"/>
<path d="M28.463 41.5179C27.4298 41.4988 26.6263 40.6569 26.6263 39.6238C26.6454 38.5906 27.4872 37.787 28.5204 37.787C29.5536 37.8062 30.3763 38.648 30.3571 39.6812C30.338 40.7143 29.4962 41.537 28.463 41.5179ZM24.9809 36.0842C24.3877 35.7781 24.1582 35.0702 24.4643 34.4962C24.7704 33.9031 25.4783 33.6735 26.0523 33.9797C26.6454 34.2666 26.875 34.9937 26.5689 35.5677C26.2819 36.1416 25.574 36.3712 24.9809 36.0842ZM25.4209 39.4325C24.9617 40.3508 23.852 40.7143 22.9337 40.2552C22.0153 39.796 21.6518 38.6863 22.111 37.7679C22.5701 36.8496 23.6798 36.486 24.5982 36.9452C25.5166 37.4044 25.8801 38.5141 25.4209 39.4325ZM21.0969 37.06C20.2742 37.6914 19.1071 37.5383 18.4949 36.7156C17.8635 35.9121 18.0166 34.745 18.8201 34.1136C19.6428 33.4822 20.8099 33.6353 21.4222 34.4388C22.0536 35.2615 21.9005 36.4286 21.0969 37.06ZM16.0076 31.6072C15.7972 30.5932 16.4286 29.6174 17.4426 29.4069C18.4566 29.1965 19.4324 29.8279 19.6428 30.8419C19.8533 31.8559 19.2219 32.8317 18.2079 33.0421C17.213 33.2526 16.2372 32.6212 16.0076 31.6072ZM16.0076 25.9248C16.2564 24.9299 17.2513 24.3177 18.2462 24.5664C19.2411 24.8151 19.8533 25.81 19.6046 26.8049C19.3559 27.7998 18.361 28.412 17.3469 28.1633C16.3712 27.9337 15.7589 26.9197 16.0076 25.9248ZM18.4758 20.8164C19.1263 20.0319 20.2934 19.9171 21.0969 20.5677C21.8814 21.2182 21.9962 22.3853 21.3457 23.1888C20.6951 23.9733 19.528 24.0881 18.7245 23.4376C17.94 22.7679 17.8252 21.6008 18.4758 20.8164ZM24.0434 25.1786C23.6224 25.6761 22.8763 25.7526 22.3788 25.3317C21.8814 24.9108 21.8048 24.1646 22.2258 23.6671C22.6467 23.1697 23.3928 23.0932 23.8903 23.5141C24.3877 23.9159 24.4451 24.662 24.0434 25.1786ZM22.3788 32.1429C22.8954 31.7411 23.6416 31.8368 24.0434 32.3725C24.4451 32.8891 24.3495 33.6353 23.8138 34.0371C23.2972 34.4388 22.551 34.3432 22.1492 33.8075C21.7666 33.2909 21.8622 32.5447 22.3788 32.1429ZM20.6186 26.9197C20.7717 26.2883 21.4222 25.9057 22.0536 26.0587C22.6849 26.2118 23.0676 26.8623 22.9145 27.4937C22.7615 28.1251 22.111 28.5077 21.4796 28.3546C20.8482 28.2016 20.4655 27.5511 20.6186 26.9197ZM21.537 29.1391C22.1875 29.0052 22.7997 29.4261 22.9337 30.0575C23.0676 30.708 22.6467 31.3202 22.0153 31.4541C21.3648 31.5881 20.7525 31.1672 20.6186 30.5358C20.4655 29.9044 20.8865 29.273 21.537 29.1391ZM22.9145 17.2577C23.852 16.8177 24.9426 17.2386 25.3826 18.1569C25.8036 19.0944 25.4018 20.185 24.4834 20.6251C23.5459 21.0651 22.4553 20.6442 22.0153 19.7258C21.5752 18.8075 21.977 17.6978 22.9145 17.2577ZM26.6263 22.0026C26.8941 22.5957 26.6263 23.3036 26.0332 23.5715C25.44 23.8393 24.7321 23.5715 24.4643 22.9784C24.1964 22.3853 24.4643 21.6774 25.0574 21.4095C25.6505 21.1416 26.3584 21.4095 26.6263 22.0026ZM27.3724 21.773C27.3916 21.1225 27.9273 20.6059 28.5778 20.6059C29.2283 20.6251 29.7449 21.1608 29.7449 21.8113C29.7258 22.4618 29.19 22.9784 28.5395 22.9784C27.889 22.9784 27.3724 22.4427 27.3724 21.773ZM29.7258 35.7399C29.7066 36.3904 29.1709 36.9069 28.5204 36.9069C27.8699 36.8878 27.3533 36.3521 27.3533 35.7016C27.3724 35.0511 27.9082 34.5345 28.5587 34.5345C29.2283 34.5536 29.7449 35.0893 29.7258 35.7399ZM28.4439 15.995C29.477 16.0141 30.2806 16.8559 30.2806 17.8891C30.2615 18.9223 29.4196 19.7258 28.3865 19.7258C27.3533 19.7067 26.5497 18.8649 26.5497 17.8317C26.588 16.7985 27.4298 15.9758 28.4439 15.995Z" fill="#E30D0E"/>
<path d="M26.8164 30.5932L28.921 28.699C29.1315 28.5077 29.3993 28.2781 29.3993 27.9337C29.3993 27.5702 29.0932 27.3406 28.7297 27.3406C28.3088 27.3406 28.06 27.6467 28.0218 28.0294L26.8738 27.9529C26.9503 26.8432 27.7156 26.2883 28.7871 26.2883C29.782 26.2883 30.5473 26.824 30.5473 27.9146C30.5473 28.6034 30.2412 29.0052 29.8394 29.3687L28.194 30.7845H30.6047V31.7985H26.8164V30.5932Z" fill="#E30D0E"/>
<path d="M33.2453 26.3075C34.8524 26.3075 35.2542 27.819 35.2542 29.1009C35.2542 30.3828 34.8524 31.8942 33.2453 31.8942C31.6381 31.8942 31.2363 30.3828 31.2363 29.1009C31.2363 27.819 31.6381 26.3075 33.2453 26.3075ZM33.2453 30.8419C34.068 30.8419 34.1062 29.6557 34.1062 29.1009C34.1062 28.546 34.068 27.3598 33.2453 27.3598C32.4226 27.3598 32.3843 28.546 32.3843 29.1009C32.3843 29.6557 32.4226 30.8419 33.2453 30.8419Z" fill="#E30D0E"/>
<path d="M35.8857 30.5932L37.9903 28.699C38.2008 28.5077 38.4687 28.2781 38.4687 27.9337C38.4687 27.5702 38.1625 27.3406 37.799 27.3406C37.3781 27.3406 37.1294 27.6467 37.0911 28.0294L35.9431 27.9529C36.0197 26.8432 36.785 26.2883 37.8564 26.2883C38.8513 26.2883 39.6166 26.824 39.6166 27.9146C39.6166 28.6034 39.3105 29.0052 38.9087 29.3687L37.2633 30.7845H39.674V31.7985H35.8857V30.5932Z" fill="#E30D0E"/>
<path d="M42.2372 27.685L41.1466 28.6416L40.4961 27.8954L42.2563 26.4031H43.3277V31.8176H42.218V27.685H42.2372Z" fill="#E30D0E"/>
<rect x="2.2334" y="3.02686" width="107" height="52" stroke="white"/>
</svg>
