<svg width="20" height="20" viewBox="0 0 20 20" fill="none" xmlns="http://www.w3.org/2000/svg">
<path d="M10 20C15.5158 20 20 15.5158 20 10C20 4.48421 15.5158 -1.96011e-07 10 -4.37114e-07C4.48421 -6.78217e-07 -1.96011e-07 4.48421 -4.37114e-07 10C-6.78217e-07 15.5158 4.48421 20 10 20ZM4.61052 9.22105L7.95789 5.87368C8.16842 5.66316 8.44214 5.55789 8.73681 5.55789C9.03156 5.55789 9.30519 5.66316 9.51572 5.87368C9.93677 6.29474 9.93677 6.98951 9.51572 7.4316L8.04203 8.90528L14.6315 8.90528C15.2421 8.90528 15.7262 9.38953 15.7262 9.99998C15.7262 10.6105 15.242 11.0947 14.6315 11.0947L8.02098 11.0947L9.49467 12.5684C9.91572 12.9894 9.91572 13.6842 9.49467 14.1263C9.07361 14.5473 8.37884 14.5473 7.93675 14.1263L4.61044 10.7789C4.16835 10.3368 4.16835 9.66316 4.61044 9.22107L4.61052 9.22105Z" fill="black"/>
</svg>
