<svg width="21" height="21" viewBox="0 0 21 21" fill="none" xmlns="http://www.w3.org/2000/svg">
<path d="M15.4847 4.0983C15.7822 4.0983 16.073 4.18633 16.3203 4.35124C16.5677 4.51616 16.7605 4.75057 16.8744 5.02482C16.9882 5.29907 17.018 5.60084 16.9599 5.89198C16.9019 6.18313 16.7586 6.45056 16.5483 6.66046C16.3379 6.87036 16.0699 7.0133 15.7781 7.07121C15.4863 7.12913 15.1839 7.0994 14.9091 6.98581C14.6342 6.87221 14.3993 6.67984 14.234 6.43302C14.0687 6.1862 13.9805 5.89602 13.9805 5.59918C13.9805 5.20112 14.139 4.81937 14.4211 4.5379C14.7031 4.25643 15.0857 4.0983 15.4847 4.0983V4.0983ZM1.82676 8.81105L10.2602 0.386133C10.3539 0.293398 10.465 0.22003 10.5872 0.170236C10.7094 0.120442 10.8402 0.0952027 10.9721 0.095964H19.9972C20.2632 0.095964 20.5182 0.201382 20.7063 0.389028C20.8943 0.576674 21 0.831177 21 1.09655V10.1018C21.0007 10.2335 20.9755 10.364 20.9255 10.4859C20.8756 10.6078 20.8021 10.7187 20.7092 10.8122L12.2657 19.2271C11.7017 19.7893 10.9371 20.105 10.1398 20.105C9.34262 20.105 8.578 19.7893 8.01394 19.2271L1.82676 13.1036C1.2634 12.5407 0.946962 11.7778 0.946962 10.9823C0.946962 10.1869 1.2634 9.42391 1.82676 8.86108V8.81105ZM3.24069 11.6327L9.43789 17.8063C9.62577 17.9927 9.87993 18.0973 10.1449 18.0973C10.4098 18.0973 10.6639 17.9927 10.8518 17.8063L18.9944 9.69157V2.09713H11.3833L3.24069 10.2219C3.14775 10.3154 3.07422 10.4263 3.02432 10.5482C2.97441 10.6701 2.94912 10.8006 2.94988 10.9323C2.95099 11.1948 3.05543 11.4463 3.24069 11.6327V11.6327Z" fill="#E11166"/>
</svg>
