<svg width="22" height="17" viewBox="0 0 22 17" fill="none" xmlns="http://www.w3.org/2000/svg">
<path d="M19.8236 0.00047376C19.2737 0.0189025 18.7526 0.25212 18.3713 0.6503C14.3246 4.72421 11.2339 8.12695 7.47841 11.9776L3.47757 8.58205C3.04886 8.21785 2.49345 8.04015 1.93396 8.08797C1.37464 8.1358 0.857033 8.40543 0.495801 8.83698C0.134357 9.26875 -0.0410218 9.82711 0.00811721 10.389C0.0572562 10.9509 0.326976 11.4699 0.757642 11.8319L6.25032 16.5008C6.65457 16.8429 7.17154 17.0201 7.69938 16.998C8.22746 16.976 8.72801 16.756 9.10238 16.3813C13.6529 11.8002 16.8923 8.14136 21.3555 3.64819C21.7668 3.24889 21.9994 2.6995 22 2.12516C22.0009 1.5506 21.7698 1.00058 21.3597 0.600179C20.9495 0.199786 20.3952 -0.016825 19.8236 0.00047376Z" fill="white"/>
</svg>
