<svg width="26" height="26" viewBox="0 0 26 26" fill="none" xmlns="http://www.w3.org/2000/svg">
<path fill-rule="evenodd" clip-rule="evenodd" d="M0 13C0 5.8203 5.8203 0 13 0C20.1762 0.00835766 25.9916 5.82376 26 13C26 20.1797 20.1797 26 13 26C5.8203 26 0 20.1797 0 13ZM13.0888 18.9464L20.5043 8.88328C20.7549 8.573 20.8148 8.15005 20.6602 7.78237C20.5055 7.41468 20.1612 7.16175 19.7641 7.12399C19.367 7.08623 18.9813 7.26975 18.7601 7.6017L12.0142 16.7569L7.5985 13.2242C7.13122 12.8503 6.44928 12.9259 6.07534 13.3932C5.70139 13.8605 5.77706 14.5424 6.24434 14.9164L11.5397 19.15C11.7712 19.331 12.0656 19.4113 12.357 19.373C12.6483 19.3347 12.912 19.181 13.0888 18.9464Z" fill="white"/>
</svg>
