<svg width="30" height="30" viewBox="0 0 30 30" fill="none" xmlns="http://www.w3.org/2000/svg">
<path fill-rule="evenodd" clip-rule="evenodd" d="M0 15C0 6.71573 6.71573 0 15 0C23.2803 0.00964345 29.9904 6.71973 30 15C30 23.2843 23.2843 30 15 30C6.71573 30 0 23.2843 0 15ZM15.1025 21.8612L23.6588 10.25C23.948 9.89198 24.0171 9.40397 23.8386 8.97971C23.6602 8.55546 23.263 8.26361 22.8048 8.22005C22.3466 8.17648 21.9015 8.38824 21.6463 8.77125L13.8625 19.335L8.7675 15.2587C8.22833 14.8273 7.44147 14.9146 7.01 15.4537C6.57853 15.9929 6.66583 16.7798 7.205 17.2112L13.315 22.0962C13.5821 22.305 13.9219 22.3978 14.258 22.3536C14.5942 22.3094 14.8984 22.132 15.1025 21.8612Z" fill="#E11166"/>
</svg>
