<svg width="18" height="19" viewBox="0 0 18 19" fill="none" xmlns="http://www.w3.org/2000/svg">
<path d="M9 3.88672V9.38672H13.125M17.25 9.38672C17.25 10.4701 17.0366 11.5429 16.622 12.5439C16.2074 13.5448 15.5997 14.4543 14.8336 15.2203C14.0675 15.9864 13.1581 16.5941 12.1571 17.0087C11.1562 17.4233 10.0834 17.6367 9 17.6367C7.91659 17.6367 6.8438 17.4233 5.84286 17.0087C4.84193 16.5941 3.93245 15.9864 3.16637 15.2203C2.40029 14.4543 1.7926 13.5448 1.37799 12.5439C0.963392 11.5429 0.75 10.4701 0.75 9.38672C0.75 7.19868 1.61919 5.10026 3.16637 3.55309C4.71354 2.00591 6.81196 1.13672 9 1.13672C11.188 1.13672 13.2865 2.00591 14.8336 3.55309C16.3808 5.10026 17.25 7.19868 17.25 9.38672Z" stroke="#E11166" stroke-width="1.375" stroke-linecap="round" stroke-linejoin="round"/>
</svg>
