<svg width="26" height="26" viewBox="0 0 26 26" fill="none" xmlns="http://www.w3.org/2000/svg">
<path d="M13 0C5.82104 0 0 5.82012 0 13C0 20.1799 5.82104 26 13 26C20.179 26 26 20.1799 26 13C26 5.82012 20.179 0 13 0ZM17.5895 15.8386C18.0733 16.3221 18.0733 17.1063 17.5895 17.5891C17.3484 17.8319 17.0309 17.9523 16.715 17.9523C16.3975 17.9523 16.0812 17.8319 15.839 17.5891L13 14.7505L10.1614 17.5893C9.92 17.8321 9.60285 17.9525 9.28622 17.9525C8.96959 17.9525 8.65207 17.8321 8.411 17.5893C7.92715 17.1063 7.92715 16.3222 8.411 15.8388L11.2496 13L8.41077 10.1614C7.92692 9.67813 7.92692 8.89341 8.41077 8.41091C8.89328 7.92706 9.67816 7.92706 10.1613 8.41091L13.0001 11.2495L15.8387 8.41091C16.3217 7.92706 17.1064 7.92706 17.5892 8.41091C18.073 8.89369 18.073 9.67804 17.5892 10.1614L14.7506 13L17.5895 15.8386Z" fill="white"/>
</svg>
