<svg width="23" height="21" viewBox="0 0 23 21" fill="none" xmlns="http://www.w3.org/2000/svg">
<path d="M19.8552 11.4137V8.99006C19.8552 6.63119 18.9254 4.36894 17.2705 2.70097C15.6156 1.033 13.371 0.0959473 11.0306 0.0959473C8.69023 0.0959473 6.44568 1.033 4.79077 2.70097C3.13585 4.36894 2.20613 6.63119 2.20613 8.99006V11.4137C1.56244 11.6431 1.00489 12.0675 0.609926 12.6288C0.214963 13.1901 0.00191879 13.8608 0 14.5489V16.7724C0 17.657 0.348646 18.5053 0.96924 19.1308C1.58983 19.7563 2.43154 20.1077 3.30919 20.1077H6.61838C6.91093 20.1077 7.1915 19.9906 7.39837 19.7821C7.60523 19.5736 7.72145 19.2908 7.72145 18.9959V12.3253C7.72145 12.0305 7.60523 11.7477 7.39837 11.5392C7.1915 11.3307 6.91093 11.2136 6.61838 11.2136H4.41226V8.99006C4.41226 7.22091 5.10955 5.52422 6.35074 4.27324C7.59192 3.02227 9.27534 2.31947 11.0306 2.31947C12.7859 2.31947 14.4694 3.02227 15.7105 4.27324C16.9517 5.52422 17.649 7.22091 17.649 8.99006V11.2136H15.4429C15.1503 11.2136 14.8698 11.3307 14.6629 11.5392C14.456 11.7477 14.3398 12.0305 14.3398 12.3253V18.9959C14.3398 19.2908 14.456 19.5736 14.6629 19.7821C14.8698 19.9906 15.1503 20.1077 15.4429 20.1077H18.7521C19.6297 20.1077 20.4714 19.7563 21.092 19.1308C21.7126 18.5053 22.0613 17.657 22.0613 16.7724V14.5489C22.0594 13.8608 21.8463 13.1901 21.4514 12.6288C21.0564 12.0675 20.4988 11.6431 19.8552 11.4137ZM5.51532 13.4371V17.8842H3.30919C3.01664 17.8842 2.73607 17.767 2.52921 17.5585C2.32234 17.35 2.20613 17.0673 2.20613 16.7724V14.5489C2.20613 14.254 2.32234 13.9712 2.52921 13.7627C2.73607 13.5542 3.01664 13.4371 3.30919 13.4371H5.51532ZM19.8552 16.7724C19.8552 17.0673 19.7389 17.35 19.5321 17.5585C19.3252 17.767 19.0446 17.8842 18.7521 17.8842H16.546V13.4371H18.7521C19.0446 13.4371 19.3252 13.5542 19.5321 13.7627C19.7389 13.9712 19.8552 14.254 19.8552 14.5489V16.7724Z" fill="#E11166"/>
</svg>
