<svg width="25" height="19" viewBox="0 0 25 19" fill="none" xmlns="http://www.w3.org/2000/svg">
<path d="M23.4688 3.59375V15.4062C23.4688 16.0776 23.2021 16.7214 22.7274 17.1961C22.2527 17.6708 21.6088 17.9375 20.9375 17.9375H4.0625C3.39117 17.9375 2.74734 17.6708 2.27264 17.1961C1.79793 16.7214 1.53125 16.0776 1.53125 15.4062V3.59375M23.4688 3.59375C23.4688 2.92242 23.2021 2.27859 22.7274 1.80389C22.2527 1.32918 21.6088 1.0625 20.9375 1.0625H4.0625C3.39117 1.0625 2.74734 1.32918 2.27264 1.80389C1.79793 2.27859 1.53125 2.92242 1.53125 3.59375M23.4688 3.59375V3.86713C23.4688 4.29929 23.3582 4.72427 23.1475 5.10158C22.9368 5.4789 22.633 5.79598 22.265 6.02263L13.8275 11.2145C13.4284 11.4604 12.9688 11.5905 12.5 11.5905C12.0312 11.5905 11.5716 11.4604 11.1725 11.2145L2.735 6.02375C2.36704 5.7971 2.06323 5.48002 1.85252 5.10271C1.6418 4.72539 1.5312 4.30041 1.53125 3.86825V3.59375" stroke="#E11166" stroke-width="1.5" stroke-linecap="round" stroke-linejoin="round"/>
</svg>
