<svg width="22" height="22" viewBox="0 0 22 22" fill="none" xmlns="http://www.w3.org/2000/svg">
<path d="M11.0111 0C13.1874 0.00214847 15.3141 0.649895 17.1223 1.86119C18.9303 3.07247 20.3385 4.79286 21.1686 6.80475C21.9986 8.81645 22.2132 11.0295 21.7852 13.1633C21.3572 15.2971 20.3059 17.256 18.7641 18.7921C17.2225 20.3282 15.2597 21.3725 13.1244 21.7929C10.989 22.2132 8.77707 21.9907 6.76811 21.1534C4.75934 20.3161 3.0439 18.9017 1.83923 17.0893C0.634457 15.2768 -0.00546481 13.1476 3.51573e-05 10.9715C0.00762622 8.05722 1.17136 5.26488 3.23585 3.20789C5.30036 1.15091 8.09672 -0.00280498 11.011 0.000128333L11.0111 0ZM10.1707 8.35995H8.20832H8.20825C8.06552 8.36124 7.92351 8.38122 7.78587 8.41932C7.70387 8.43651 7.6291 8.47833 7.57166 8.53935C7.51423 8.60029 7.47684 8.67749 7.46467 8.76035C7.44218 8.84973 7.45185 8.94411 7.4921 9.02705C7.53235 9.10991 7.60052 9.17601 7.68467 9.21353C7.89607 9.31243 8.12317 9.37352 8.3557 9.39393C8.96728 9.4225 9.21372 9.69091 9.12134 10.3201C8.94975 11.4971 8.71872 12.6653 8.5207 13.8401C8.3865 14.6321 8.27429 15.4263 8.14451 16.2183C7.9707 17.2853 8.96514 18.2863 9.7549 18.4183L9.75482 18.4184C10.2227 18.4839 10.6948 18.5141 11.1673 18.5085C11.6681 18.5079 12.1636 18.405 12.6233 18.2059C13.0829 18.007 13.497 17.7162 13.8403 17.3514C13.9662 17.2353 14.0608 17.0892 14.1153 16.9268C14.1418 16.7848 14.1083 16.6383 14.0228 16.5219C13.9195 16.4573 13.7922 16.4435 13.6774 16.4846C13.497 16.5439 13.3364 16.6672 13.1604 16.7442C12.9548 16.8401 12.7394 16.9139 12.5181 16.9642C12.3395 17.008 12.1508 16.9712 12.0017 16.8637C11.8527 16.7561 11.7584 16.5885 11.7436 16.4054C11.7066 16.2007 11.6999 15.9916 11.7239 15.785C11.7986 15.2746 11.9043 14.7685 11.9966 14.2626C12.2474 12.8824 12.5019 11.5016 12.7601 10.12C12.8305 9.74159 12.9493 9.36977 12.8701 8.97159C12.8577 8.79471 12.7748 8.63021 12.6399 8.51519C12.505 8.4001 12.3294 8.34417 12.1528 8.36H10.1707L10.1707 8.35995ZM11.3675 3.46718H11.3674C10.8356 3.44384 10.3165 3.63375 9.92528 3.99476C9.53405 4.3557 9.30309 4.85792 9.28369 5.38988C9.26429 5.92191 9.45793 6.4396 9.82181 6.82818C10.1857 7.21675 10.6896 7.44406 11.2216 7.45959C11.7537 7.47513 12.27 7.27762 12.6559 6.91095C13.0418 6.54429 13.2654 6.03876 13.277 5.50653C13.2919 4.98396 13.0994 4.47672 12.7417 4.09544C12.3839 3.71424 11.8899 3.48995 11.3674 3.47154L11.3675 3.46718Z" fill="#FDEEF4"/>
</svg>
