<svg width="50" height="50" viewBox="0 0 50 50" fill="none" xmlns="http://www.w3.org/2000/svg">
<circle cx="25" cy="25" r="25" fill="#E11166"/>
<path d="M36.4523 14.4733C36.278 14.3323 36.0743 14.2321 35.8562 14.1802C35.6381 14.1283 35.4111 14.1259 35.192 14.1732C33.5886 14.5092 31.9334 14.5135 30.3284 14.1858C28.7233 13.8581 27.2023 13.2053 25.859 12.2676C25.6079 12.0934 25.3095 12 25.0038 12C24.6981 12 24.3997 12.0934 24.1485 12.2676C22.8052 13.2053 21.2842 13.8581 19.6791 14.1858C18.0741 14.5135 16.4189 14.5092 14.8156 14.1732C14.5964 14.1259 14.3694 14.1283 14.1513 14.1802C13.9332 14.2321 13.7295 14.3323 13.5552 14.4733C13.3811 14.6145 13.2409 14.793 13.1448 14.9955C13.0487 15.198 12.9992 15.4195 13 15.6437V26.8222C12.9987 28.9735 13.5113 31.094 14.4953 33.007C15.4792 34.9201 16.906 36.5705 18.6568 37.8206L24.1335 41.7218C24.3876 41.9028 24.6918 42 25.0038 42C25.3157 42 25.6199 41.9028 25.874 41.7218L31.3508 37.8206C33.1015 36.5705 34.5283 34.9201 35.5123 33.007C36.4962 31.094 37.0089 28.9735 37.0075 26.8222V15.6437C37.0083 15.4195 36.9588 15.198 36.8627 14.9955C36.7667 14.793 36.6264 14.6145 36.4523 14.4733ZM34.0066 26.8222C34.0077 28.4948 33.6094 30.1436 32.8447 31.6312C32.08 33.1188 30.9711 34.4023 29.6102 35.3749L25.0038 38.6609L20.3973 35.3749C19.0365 34.4023 17.9275 33.1188 17.1628 31.6312C16.3981 30.1436 15.9998 28.4948 16.0009 26.8222V17.3692C19.1466 17.6384 22.297 16.9086 25.0038 15.2836C27.7106 16.9086 30.861 17.6384 34.0066 17.3692V26.8222Z" fill="white"/>
<path d="M30.95 22.7291C30.8675 22.646 30.7694 22.58 30.6614 22.535C30.5533 22.49 30.4374 22.4668 30.3203 22.4668C30.2032 22.4668 30.0873 22.49 29.9792 22.535C29.8711 22.58 29.7731 22.646 29.6906 22.7291L23.0834 29.3452L20.3075 26.5604C20.2219 26.4777 20.1208 26.4127 20.0101 26.3691C19.8994 26.3254 19.7811 26.304 19.6621 26.3061C19.5431 26.3082 19.4257 26.3336 19.3165 26.3811C19.2074 26.4285 19.1086 26.497 19.0259 26.5826C18.9433 26.6682 18.8782 26.7693 18.8346 26.88C18.791 26.9907 18.7696 27.109 18.7716 27.228C18.7737 27.347 18.7992 27.4644 18.8466 27.5735C18.894 27.6827 18.9625 27.7814 19.0481 27.8641L22.4537 31.2697C22.5362 31.3529 22.6343 31.4188 22.7423 31.4639C22.8504 31.5089 22.9663 31.5321 23.0834 31.5321C23.2005 31.5321 23.3164 31.5089 23.4245 31.4639C23.5325 31.4188 23.6306 31.3529 23.7131 31.2697L30.95 24.0328C31.04 23.9498 31.1118 23.849 31.161 23.7368C31.2101 23.6246 31.2355 23.5035 31.2355 23.381C31.2355 23.2585 31.2101 23.1374 31.161 23.0252C31.1118 22.913 31.04 22.8122 30.95 22.7291Z" fill="white"/>
</svg>
