<svg width="15" height="16" viewBox="0 0 15 16" fill="none" xmlns="http://www.w3.org/2000/svg">
<path d="M3.5 7.91357C1.56051 7.91357 0 6.35307 0 4.41357C0 2.47408 1.56051 0.913574 3.5 0.913574C5.43949 0.913574 7 2.47408 7 4.41357C7.00007 6.35307 5.43957 7.91357 3.5 7.91357Z" fill="#300000"/>
<path d="M11.5 7.91357C9.56051 7.91357 8 6.35307 8 4.41357C8 2.47408 9.56051 0.913574 11.5 0.913574C13.4395 0.913574 15 2.47408 15 4.41357C15 6.35307 13.4395 7.91357 11.5 7.91357Z" fill="#300000"/>
<path d="M3.5 16C1.56051 16 0 14.4395 0 12.5C0 10.5605 1.56051 9 3.5 9C5.43949 9 7 10.5605 7 12.5C7.00007 14.4172 5.43957 16 3.5 16V16Z" fill="#300000"/>
<path d="M11.5 16C9.56051 16 8 14.4395 8 12.5C8 10.5605 9.56051 9 11.5 9C13.4395 9 15 10.5605 15 12.5C15 14.4172 13.4395 16 11.5 16Z" fill="#300000"/>
</svg>
