<svg width="16" height="16" viewBox="0 0 16 16" fill="none" xmlns="http://www.w3.org/2000/svg">
<path d="M7.75 0C3.47023 0 0 3.46969 0 7.75C0 12.0303 3.47023 15.5 7.75 15.5C12.0298 15.5 15.5 12.0303 15.5 7.75C15.5 3.46969 12.0298 0 7.75 0ZM10.486 9.44222C10.7745 9.73051 10.7745 10.198 10.486 10.4858C10.3423 10.6305 10.153 10.7023 9.96473 10.7023C9.77544 10.7023 9.58684 10.6305 9.44249 10.4858L7.75 8.79358L6.05778 10.4859C5.91385 10.6307 5.72478 10.7025 5.53602 10.7025C5.34726 10.7025 5.15796 10.6307 5.01425 10.4859C4.7258 10.198 4.7258 9.73053 5.01425 9.44235L6.70647 7.75L5.01411 6.05778C4.72566 5.76966 4.72566 5.30184 5.01411 5.0142C5.30176 4.72575 5.76967 4.72575 6.0577 5.0142L7.75005 6.70641L9.44227 5.0142C9.73025 4.72575 10.198 4.72575 10.4859 5.0142C10.7743 5.30201 10.7743 5.7696 10.4859 6.05778L8.79364 7.75L10.486 9.44222Z" fill="black"/>
</svg>
