<svg width="15" height="27" viewBox="0 0 15 27" fill="none" xmlns="http://www.w3.org/2000/svg">
<path d="M5.8125 1.6875H3.28125C2.60992 1.6875 1.96609 1.95418 1.49139 2.42889C1.01668 2.90359 0.75 3.54742 0.75 4.21875V22.7812C0.75 23.4526 1.01668 24.0964 1.49139 24.5711C1.96609 25.0458 2.60992 25.3125 3.28125 25.3125H11.7188C12.3901 25.3125 13.0339 25.0458 13.5086 24.5711C13.9833 24.0964 14.25 23.4526 14.25 22.7812V4.21875C14.25 3.54742 13.9833 2.90359 13.5086 2.42889C13.0339 1.95418 12.3901 1.6875 11.7188 1.6875H9.1875M5.8125 1.6875V3.375H9.1875V1.6875M5.8125 1.6875H9.1875M5.8125 22.7812H9.1875" stroke="#E11166" stroke-width="1.5" stroke-linecap="round" stroke-linejoin="round"/>
</svg>
