<svg width="23" height="23" viewBox="0 0 23 23" fill="none" xmlns="http://www.w3.org/2000/svg">
<path d="M15.0418 14.1037H9.84736C9.9641 13.7828 10.0251 13.4444 10.0279 13.1031V12.1025H12.5348C12.8008 12.1025 13.0558 11.9971 13.2439 11.8094C13.432 11.6218 13.5376 11.3673 13.5376 11.1019C13.5376 10.8365 13.432 10.582 13.2439 10.3944C13.0558 10.2068 12.8008 10.1013 12.5348 10.1013H10.0279V9.10074C10.0256 8.67186 10.1651 8.25419 10.4247 7.91235C10.6843 7.57051 11.0495 7.32353 11.4639 7.20962C11.8783 7.09571 12.3188 7.12122 12.7172 7.28219C13.1156 7.44317 13.4498 7.73064 13.668 8.10016C13.8009 8.33103 14.0204 8.49974 14.278 8.56917C14.5357 8.6386 14.8104 8.60306 15.0418 8.47037C15.2732 8.33769 15.4422 8.11872 15.5118 7.86165C15.5814 7.60457 15.5458 7.33044 15.4128 7.09957C14.9532 6.38021 14.2752 5.82621 13.4778 5.51841C12.6804 5.21061 11.8052 5.16511 10.9801 5.38854C10.1549 5.61197 9.4229 6.09265 8.89082 6.76045C8.35874 7.42825 8.05443 8.24822 8.02229 9.10074V10.1013H7.0195C6.75355 10.1013 6.49848 10.2068 6.31043 10.3944C6.12237 10.582 6.01672 10.8365 6.01672 11.1019C6.01672 11.3673 6.12237 11.6218 6.31043 11.8094C6.49848 11.9971 6.75355 12.1025 7.0195 12.1025H8.02229V13.1031C8.02229 13.3685 7.91664 13.623 7.72858 13.8106C7.54052 13.9983 7.28546 14.1037 7.0195 14.1037C6.75355 14.1037 6.49848 14.2091 6.31043 14.3967C6.12237 14.5844 6.01672 14.8389 6.01672 15.1043C6.01672 15.3696 6.12237 15.6241 6.31043 15.8118C6.49848 15.9994 6.75355 16.1049 7.0195 16.1049H15.0418C15.3077 16.1049 15.5628 15.9994 15.7509 15.8118C15.9389 15.6241 16.0446 15.3696 16.0446 15.1043C16.0446 14.8389 15.9389 14.5844 15.7509 14.3967C15.5628 14.2091 15.3077 14.1037 15.0418 14.1037ZM11.0306 0.095459C8.84899 0.095459 6.71633 0.740976 4.90235 1.95038C3.08837 3.15979 1.67455 4.87876 0.839662 6.88993C0.00477944 8.9011 -0.213664 11.1141 0.211956 13.2492C0.637575 15.3842 1.68814 17.3454 3.2308 18.8847C4.77347 20.4239 6.73894 21.4722 8.87867 21.8969C11.0184 22.3216 13.2363 22.1036 15.2519 21.2706C17.2675 20.4375 18.9902 19.0268 20.2023 17.2168C21.4143 15.4068 22.0613 13.2788 22.0613 11.1019C22.0613 8.18282 20.8991 5.38329 18.8305 3.31918C16.7618 1.25507 13.9561 0.095459 11.0306 0.095459V0.095459ZM11.0306 20.1072C9.24565 20.1072 7.50075 19.5791 6.01658 18.5895C4.53242 17.6 3.37565 16.1936 2.69257 14.5481C2.00948 12.9026 1.83076 11.0919 2.17899 9.34507C2.52722 7.59822 3.38678 5.99363 4.64896 4.73422C5.91113 3.47481 7.51925 2.61714 9.26994 2.26967C11.0206 1.9222 12.8353 2.10053 14.4844 2.78212C16.1335 3.46371 17.543 4.61794 18.5347 6.09885C19.5264 7.57976 20.0557 9.32084 20.0557 11.1019C20.0557 13.4903 19.1049 15.7808 17.4123 17.4696C15.7198 19.1584 13.4242 20.1072 11.0306 20.1072V20.1072Z" fill="#E11166"/>
</svg>
