<svg width="19" height="23" viewBox="0 0 19 23" fill="none" xmlns="http://www.w3.org/2000/svg">
<path d="M17.6328 2.41028C17.5017 2.30681 17.3485 2.23332 17.1845 2.19522C17.0206 2.15711 16.8499 2.15536 16.6851 2.19008C15.4796 2.43664 14.2352 2.43979 13.0284 2.19932C11.8216 1.95884 10.6781 1.47985 9.66812 0.791827C9.47928 0.663971 9.25492 0.595459 9.02509 0.595459C8.79525 0.595459 8.57089 0.663971 8.38205 0.791827C7.37209 1.47985 6.22852 1.95884 5.02175 2.19932C3.81497 2.43979 2.57053 2.43664 1.36505 2.19008C1.20027 2.15536 1.02962 2.15711 0.865625 2.19522C0.701634 2.23332 0.548478 2.30681 0.417416 2.41028C0.286529 2.51391 0.181096 2.64483 0.108863 2.79345C0.0366299 2.94206 -0.000566538 3.10457 6.5223e-06 3.26906V11.4714C-0.00099643 13.05 0.384444 14.6059 1.12423 16.0097C1.86402 17.4134 2.93674 18.6244 4.25307 19.5417L8.37077 22.4043C8.56183 22.537 8.79054 22.6084 9.02509 22.6084C9.25963 22.6084 9.48834 22.537 9.6794 22.4043L13.7971 19.5417C15.1134 18.6244 16.1862 17.4134 16.9259 16.0097C17.6657 14.6059 18.0512 13.05 18.0502 11.4714V3.26906C18.0507 3.10457 18.0135 2.94206 17.9413 2.79345C17.8691 2.64483 17.7636 2.51391 17.6328 2.41028ZM15.7939 11.4714C15.7948 12.6988 15.4953 13.9086 14.9203 15.0001C14.3454 16.0917 13.5116 17.0335 12.4885 17.7471L9.02509 20.1583L5.56171 17.7471C4.53853 17.0335 3.70478 16.0917 3.12985 15.0001C2.55491 13.9086 2.25541 12.6988 2.25628 11.4714V4.5352C4.62133 4.73275 6.98998 4.19722 9.02509 3.00482C11.0602 4.19722 13.4288 4.73275 15.7939 4.5352V11.4714ZM10.7624 8.95017L7.72773 11.9228L6.72369 10.932C6.51126 10.7246 6.22314 10.6082 5.92271 10.6082C5.62229 10.6082 5.33417 10.7246 5.12174 10.932C4.90931 11.1393 4.78996 11.4205 4.78996 11.7137C4.78996 12.0069 4.90931 12.288 5.12174 12.4954L6.92675 14.2569C7.03163 14.3601 7.1564 14.442 7.29388 14.4979C7.43135 14.5538 7.5788 14.5826 7.72773 14.5826C7.87666 14.5826 8.02411 14.5538 8.16158 14.4979C8.29906 14.442 8.42383 14.3601 8.52871 14.2569L12.4095 10.5026C12.6219 10.2952 12.7413 10.0141 12.7413 9.72086C12.7413 9.42767 12.6219 9.14648 12.4095 8.93916C12.1971 8.73184 11.9089 8.61537 11.6085 8.61537C11.3081 8.61537 11.02 8.73184 10.8075 8.93916L10.7624 8.95017Z" fill="#E11166"/>
</svg>
