<svg width="21" height="21" viewBox="0 0 21 21" fill="none" xmlns="http://www.w3.org/2000/svg">
<path d="M14.1193 11.3113C15.1073 10.54 15.8284 9.48222 16.1824 8.28522C16.5363 7.08823 16.5055 5.81152 16.0943 4.63271C15.683 3.4539 14.9116 2.43161 13.8876 1.70807C12.8635 0.984522 11.6377 0.595703 10.3806 0.595703C9.12349 0.595703 7.89764 0.984522 6.87359 1.70807C5.84955 2.43161 5.07822 3.4539 4.66693 4.63271C4.25564 5.81152 4.22484 7.08823 4.5788 8.28522C4.93277 9.48222 5.65391 10.54 6.64188 11.3113C4.94896 11.9844 3.47183 13.1007 2.36796 14.5413C1.26409 15.9818 0.574861 17.6927 0.373754 19.4914C0.359197 19.6227 0.370849 19.7556 0.408043 19.8825C0.445237 20.0093 0.507247 20.1277 0.59053 20.2307C0.758729 20.4389 1.00337 20.5722 1.27064 20.6014C1.53791 20.6306 1.80591 20.5532 2.01569 20.3863C2.22546 20.2194 2.35983 19.9766 2.38923 19.7114C2.61051 17.7566 3.54983 15.9512 5.02771 14.6401C6.50559 13.3291 8.41842 12.6044 10.4007 12.6044C12.3831 12.6044 14.2959 13.3291 15.7738 14.6401C17.2517 15.9512 18.191 17.7566 18.4123 19.7114C18.4397 19.9571 18.5578 20.1841 18.7439 20.3484C18.93 20.5128 19.1709 20.6029 19.42 20.6014H19.5309C19.795 20.5713 20.0365 20.4387 20.2026 20.2327C20.3687 20.0266 20.446 19.7638 20.4177 19.5014C20.2156 17.6976 19.5227 15.9824 18.4131 14.5396C17.3036 13.0968 15.8193 11.9808 14.1193 11.3113V11.3113ZM10.3806 10.6013C9.58334 10.6013 8.804 10.3667 8.14112 9.92718C7.47823 9.48765 6.96157 8.86293 6.65648 8.13201C6.35138 7.4011 6.27156 6.59683 6.42709 5.82089C6.58263 5.04496 6.96654 4.33222 7.53028 3.77281C8.09402 3.21339 8.81226 2.83242 9.59419 2.67808C10.3761 2.52374 11.1866 2.60295 11.9232 2.90571C12.6597 3.20846 13.2893 3.72115 13.7322 4.37896C14.1751 5.03676 14.4115 5.81013 14.4115 6.60126C14.4115 7.66214 13.9869 8.67957 13.2309 9.42972C12.475 10.1799 11.4497 10.6013 10.3806 10.6013Z" fill="#E11166"/>
</svg>
