<svg width="24" height="24" viewBox="0 0 24 24" fill="none" xmlns="http://www.w3.org/2000/svg">
<path d="M23.6689 9.19995C23.04 6.57882 21.5469 4.24588 19.4302 2.5769C17.3135 0.907927 14.6965 0.000171104 12.001 0C11.867 0 11.734 0.00600977 11.601 0.0100098V9.19995H23.6689Z" fill="#ED4C5C"/>
<path d="M6 1.60889C4.59017 2.42409 3.3607 3.51734 2.38635 4.82227C1.412 6.12719 0.713003 7.61662 0.331909 9.19995H6V1.60889Z" fill="#ED4C5C"/>
<path d="M0.329956 14.8C0.71105 16.3834 1.41005 17.8726 2.3844 19.1775C3.35875 20.4824 4.58809 21.5757 5.99792 22.3909V14.8H0.329956Z" fill="#ED4C5C"/>
<path d="M11.601 23.99C11.734 23.99 11.867 24 12.001 24C14.6965 23.9998 17.3135 23.0921 19.4302 21.4231C21.5469 19.7541 23.04 17.4212 23.6689 14.8H11.601V23.99Z" fill="#ED4C5C"/>
<path d="M23.6689 9.19995H11.6009V0.0100098C9.63074 0.0725962 7.70679 0.622402 6.00094 1.61011V9.20093H0.331872C-0.110461 11.0414 -0.110461 12.9606 0.331872 14.801H5.99996V22.3921C7.7058 23.3798 9.62976 23.9294 11.5999 23.9919V14.802H23.6689C24.1109 12.9615 24.1109 11.0424 23.6689 9.2019V9.19995Z" fill="white"/>
</svg>
