<svg width="24" height="24" viewBox="0 0 24 24" fill="none" xmlns="http://www.w3.org/2000/svg">
<path d="M11.9999 6.95354e-08C9.51818 -0.000267024 7.09737 0.768928 5.07095 2.20166C3.04453 3.63439 1.51219 5.66018 0.684937 8H23.3139C22.4867 5.66034 20.9545 3.63462 18.9283 2.2019C16.9021 0.769186 14.4815 -6.02122e-05 11.9999 6.95354e-08Z" fill="#14272C"/>
<path d="M11.9999 24C14.4815 24.0001 16.9021 23.2306 18.9283 21.7979C20.9545 20.3651 22.4867 18.3397 23.3139 16H0.684937C1.51219 18.3398 3.04453 20.3656 5.07095 21.7983C7.09737 23.2311 9.51818 24.0003 11.9999 24Z" fill="#FFE62E"/>
<path d="M0.684958 8.00195C-0.228482 10.5904 -0.228482 13.4135 0.684958 16.002H23.314C24.229 13.4138 24.229 10.5901 23.314 8.00195H0.684958Z" fill="#ED4C5C"/>
</svg>
