<svg width="23" height="17" viewBox="0 0 23 17" fill="none" xmlns="http://www.w3.org/2000/svg">
<g clip-path="url(#clip0_338_726)">
<g clip-path="url(#clip1_338_726)">
<rect x="0.0283203" y="0.300903" width="22" height="16" rx="2" fill="white"/>
<path fill-rule="evenodd" clip-rule="evenodd" d="M0.0283203 0.300903H9.45689V7.76757H0.0283203V0.300903Z" fill="#1A47B8"/>
<path fill-rule="evenodd" clip-rule="evenodd" d="M9.45689 0.300903V1.36757H22.0283V0.300903H9.45689ZM9.45689 2.43424V3.5009H22.0283V2.43424H9.45689ZM9.45689 4.56757V5.63424H22.0283V4.56757H9.45689ZM9.45689 6.7009V7.76757H22.0283V6.7009H9.45689ZM0.0283203 8.83424V9.9009H22.0283V8.83424H0.0283203ZM0.0283203 10.9676V12.0342H22.0283V10.9676H0.0283203ZM0.0283203 13.1009V14.1676H22.0283V13.1009H0.0283203ZM0.0283203 15.2342V16.3009H22.0283V15.2342H0.0283203Z" fill="#F93939"/>
<path fill-rule="evenodd" clip-rule="evenodd" d="M1.07593 1.36755V2.43422H2.12355V1.36755H1.07593ZM3.17117 1.36755V2.43422H4.21879V1.36755H3.17117ZM5.2664 1.36755V2.43422H6.31402V1.36755H5.2664ZM7.36164 1.36755V2.43422H8.40926V1.36755H7.36164ZM6.31402 2.43422V3.50089H7.36164V2.43422H6.31402ZM4.21879 2.43422V3.50089H5.2664V2.43422H4.21879ZM2.12355 2.43422V3.50089H3.17117V2.43422H2.12355ZM1.07593 3.50089V4.56755H2.12355V3.50089H1.07593ZM3.17117 3.50089V4.56755H4.21879V3.50089H3.17117ZM5.2664 3.50089V4.56755H6.31402V3.50089H5.2664ZM7.36164 3.50089V4.56755H8.40926V3.50089H7.36164ZM1.07593 5.63422V6.70089H2.12355V5.63422H1.07593ZM3.17117 5.63422V6.70089H4.21879V5.63422H3.17117ZM5.2664 5.63422V6.70089H6.31402V5.63422H5.2664ZM7.36164 5.63422V6.70089H8.40926V5.63422H7.36164ZM6.31402 4.56755V5.63422H7.36164V4.56755H6.31402ZM4.21879 4.56755V5.63422H5.2664V4.56755H4.21879ZM2.12355 4.56755V5.63422H3.17117V4.56755H2.12355Z" fill="white"/>
</g>
</g>
<defs>
<clipPath id="clip0_338_726">
<rect width="22" height="16" fill="white" transform="translate(0.0283203 0.300903)"/>
</clipPath>
<clipPath id="clip1_338_726">
<rect x="0.0283203" y="0.300903" width="22" height="16" rx="2" fill="white"/>
</clipPath>
</defs>
</svg>
