<svg width="24" height="24" viewBox="0 0 24 24" fill="none" xmlns="http://www.w3.org/2000/svg">
<path d="M6.95353e-08 11.9988C-0.000267024 14.4805 0.768928 16.9016 2.20166 18.928C3.63439 20.9544 5.66018 22.4867 8 23.314V0.684814C5.66034 1.51201 3.63468 3.04433 2.20197 5.07056C0.769247 7.09678 -6.02122e-05 9.5172 6.95353e-08 11.9988Z" fill="#428BC1"/>
<path d="M24 11.9988C24.0001 9.5172 23.2308 7.09678 21.798 5.07056C20.3653 3.04433 18.3397 1.51201 16 0.684814V23.314C18.3398 22.4867 20.3656 20.9544 21.7983 18.928C23.2311 16.9016 24.0003 14.4805 24 11.9988Z" fill="#ED4C5C"/>
<path d="M8 23.3149C10.5883 24.2289 13.4117 24.2289 16 23.3149V0.683797C13.4116 -0.229885 10.5884 -0.229885 8 0.683797V23.3149Z" fill="white"/>
</svg>
