<svg width="24" height="24" viewBox="0 0 24 24" fill="none" xmlns="http://www.w3.org/2000/svg">
<path d="M6.95354e-08 11.9998C-6.02122e-05 14.4813 0.769216 16.902 2.20193 18.9282C3.63465 20.9544 5.66034 22.4868 8 23.314V0.684814C5.66018 1.51207 3.63439 3.04438 2.20166 5.0708C0.768928 7.09722 -0.000267024 9.518 6.95354e-08 11.9998Z" fill="#75A843"/>
<path d="M24 12.0649C24.0003 9.58319 23.2311 7.16241 21.7983 5.13599C20.3656 3.10957 18.3398 1.57725 16 0.75V23.3792C18.3397 22.552 20.3653 21.0196 21.798 18.9934C23.2308 16.9672 24.0001 14.5465 24 12.0649Z" fill="#ED4C5C"/>
<path d="M8 23.3139C10.5883 24.2283 13.4117 24.2283 16 23.3139V0.68502C13.4115 -0.22834 10.5885 -0.22834 8 0.68502V23.3139Z" fill="white"/>
</svg>
