<svg width="21" height="22" viewBox="0 0 21 22" fill="none" xmlns="http://www.w3.org/2000/svg">
<g clip-path="url(#clip0_4238_13039)">
<path d="M21 11C21 5.20101 16.299 0.5 10.5 0.5C4.70101 0.5 0 5.20101 0 11C0 16.2408 3.83968 20.5847 8.85938 21.3724V14.0352H6.19336V11H8.85938V8.68672C8.85938 6.05516 10.427 4.60156 12.8254 4.60156C13.9738 4.60156 15.1758 4.80664 15.1758 4.80664V7.39062H13.8518C12.5475 7.39062 12.1406 8.20007 12.1406 9.03125V11H15.0527L14.5872 14.0352H12.1406V21.3724C17.1603 20.5847 21 16.2408 21 11Z" fill="#E11166"/>
</g>
<defs>
<clipPath id="clip0_4238_13039">
<rect width="21" height="21" fill="white" transform="translate(0 0.5)"/>
</clipPath>
</defs>
</svg>
