<svg width="22" height="22" viewBox="0 0 22 22" fill="none" xmlns="http://www.w3.org/2000/svg">
<g clip-path="url(#clip0_537_3423)">
<path d="M21.5 11C21.5 5.20101 16.799 0.5 11 0.5C5.20101 0.5 0.5 5.20101 0.5 11C0.5 16.2408 4.33968 20.5847 9.35938 21.3724V14.0352H6.69336V11H9.35938V8.68672C9.35938 6.05516 10.927 4.60156 13.3254 4.60156C14.4738 4.60156 15.6758 4.80664 15.6758 4.80664V7.39062H14.3518C13.0475 7.39062 12.6406 8.20007 12.6406 9.03125V11H15.5527L15.0872 14.0352H12.6406V21.3724C17.6603 20.5847 21.5 16.2408 21.5 11Z" fill="#E11166"/>
</g>
<defs>
<clipPath id="clip0_537_3423">
<rect width="21" height="21" fill="white" transform="translate(0.5 0.5)"/>
</clipPath>
</defs>
</svg>
