<svg width="20" height="20" viewBox="0 0 20 20" fill="none" xmlns="http://www.w3.org/2000/svg">
<g clip-path="url(#clip0_4238_13044)">
<path fill-rule="evenodd" clip-rule="evenodd" d="M14.0361 5.45649C13.0035 4.47174 11.6256 3.93527 10.1999 3.95732C7.5911 3.95732 5.37541 5.71736 4.5854 8.08736C4.16651 9.32932 4.16651 10.6742 4.5854 11.9162H4.58906C5.38274 14.2825 7.59476 16.0426 10.2036 16.0426C11.5503 16.0426 12.7064 15.6981 13.6025 15.0897V15.0872C14.6571 14.3891 15.3773 13.2904 15.6014 12.0485H10.2V8.19766H19.6323C19.7498 8.86641 19.805 9.54986 19.805 10.2296C19.805 13.2712 18.718 15.8427 16.8267 17.5843L16.8286 17.5858C15.1715 19.1144 12.897 20 10.1999 20C6.41894 20 2.96129 17.8688 1.26369 14.492C-0.154633 11.6663 -0.154629 8.33727 1.2637 5.51163C2.9613 2.13114 6.41894 -5.85336e-05 10.1999 -5.85336e-05C12.6839 -0.0294541 15.0833 0.903855 16.8911 2.60145L14.0361 5.45649Z" fill="#E11166"/>
</g>
<defs>
<clipPath id="clip0_4238_13044">
<rect width="20" height="20" fill="white"/>
</clipPath>
</defs>
</svg>
