<svg width="20" height="20" viewBox="0 0 20 20" fill="none" xmlns="http://www.w3.org/2000/svg">
<g clip-path="url(#clip0_778_1552)">
<path fill-rule="evenodd" clip-rule="evenodd" d="M14.0363 5.45625C13.0038 4.4715 11.6259 3.93503 10.2002 3.95707C7.59134 3.95707 5.37566 5.71712 4.58564 8.08712C4.16676 9.32908 4.16676 10.674 4.58564 11.9159H4.58931C5.38299 14.2823 7.59501 16.0423 10.2039 16.0423C11.5505 16.0423 12.7067 15.6979 13.6027 15.0895V15.087C14.6573 14.3889 15.3775 13.2902 15.6016 12.0482H10.2002V8.19742H19.6325C19.7501 8.86617 19.8052 9.54961 19.8052 10.2294C19.8052 13.2709 18.7182 15.8424 16.8269 17.5841L16.8289 17.5856C15.1717 19.1142 12.8972 19.9997 10.2002 19.9997C6.41918 19.9997 2.96153 17.8685 1.26394 14.4917C-0.154389 11.6661 -0.154385 8.33703 1.26395 5.51139C2.96154 2.1309 6.41918 -0.000302674 10.2002 -0.000302674C12.6841 -0.0296982 15.0835 0.903611 16.8913 2.6012L14.0363 5.45625Z" fill="white"/>
</g>
<defs>
<clipPath id="clip0_778_1552">
<rect width="20" height="20" fill="white"/>
</clipPath>
</defs>
</svg>
