<svg width="21" height="20" viewBox="0 0 21 20" fill="none" xmlns="http://www.w3.org/2000/svg">
<g clip-path="url(#clip0_537_3425)">
<path fill-rule="evenodd" clip-rule="evenodd" d="M14.5363 5.45625C13.5038 4.4715 12.1259 3.93503 10.7002 3.95707C8.09134 3.95707 5.87566 5.71712 5.08564 8.08712C4.66676 9.32908 4.66676 10.674 5.08564 11.9159H5.08931C5.88299 14.2823 8.09501 16.0423 10.7039 16.0423C12.0505 16.0423 13.2067 15.6979 14.1027 15.0895V15.087C15.1573 14.3889 15.8775 13.2902 16.1016 12.0482H10.7002V8.19742H20.1325C20.2501 8.86617 20.3052 9.54961 20.3052 10.2294C20.3052 13.2709 19.2182 15.8424 17.3269 17.5841L17.3289 17.5856C15.6717 19.1142 13.3972 19.9997 10.7002 19.9997C6.91918 19.9997 3.46153 17.8685 1.76394 14.4917C0.345611 11.6661 0.345615 8.33703 1.76395 5.51139C3.46154 2.1309 6.91918 -0.000302674 10.7002 -0.000302674C13.1841 -0.0296982 15.5835 0.903611 17.3913 2.6012L14.5363 5.45625Z" fill="#E11166"/>
</g>
<defs>
<clipPath id="clip0_537_3425">
<rect width="20" height="20" fill="white" transform="translate(0.5)"/>
</clipPath>
</defs>
</svg>
