<svg width="21" height="21" viewBox="0 0 21 21" fill="none" xmlns="http://www.w3.org/2000/svg">
<path fill-rule="evenodd" clip-rule="evenodd" d="M14.5361 5.84345C13.5035 4.8587 12.1256 4.32223 10.6999 4.34428C8.0911 4.34428 5.87541 6.10432 5.0854 8.47432C4.66651 9.71628 4.66651 11.0612 5.0854 12.3031H5.08906C5.88274 14.6695 8.09476 16.4295 10.7036 16.4295C12.0503 16.4295 13.2064 16.0851 14.1025 15.4767V15.4742C15.1571 14.7761 15.8773 13.6774 16.1014 12.4354H10.7V8.58463H20.1323C20.2498 9.25337 20.305 9.93682 20.305 10.6166C20.305 13.6581 19.218 16.2296 17.3267 17.9713L17.3286 17.9728C15.6715 19.5014 13.397 20.3869 10.6999 20.3869C6.91894 20.3869 3.46129 18.2557 1.76369 14.8789C0.345367 12.0533 0.345371 8.72423 1.7637 5.89859C3.4613 2.51811 6.91894 0.386904 10.6999 0.386904C13.1839 0.357509 15.5833 1.29082 17.3911 2.98841L14.5361 5.84345Z" fill="#F6BD00"/>
</svg>
