<svg width="23" height="22" viewBox="0 0 23 22" fill="none" xmlns="http://www.w3.org/2000/svg">
<g clip-path="url(#clip0_537_3418)">
<path d="M11.5 1.98086C14.4391 1.98086 14.7871 1.99375 15.943 2.04531C17.0172 2.09258 17.5973 2.27305 17.984 2.42344C18.4953 2.62109 18.8648 2.86172 19.2473 3.24414C19.634 3.63086 19.8703 3.99609 20.068 4.50742C20.2184 4.89414 20.3988 5.47852 20.4461 6.54844C20.4977 7.70859 20.5105 8.05664 20.5105 10.9914C20.5105 13.9305 20.4977 14.2785 20.4461 15.4344C20.3988 16.5086 20.2184 17.0887 20.068 17.4754C19.8703 17.9867 19.6297 18.3563 19.2473 18.7387C18.8605 19.1254 18.4953 19.3617 17.984 19.5594C17.5973 19.7098 17.0129 19.8902 15.943 19.9375C14.7828 19.9891 14.4348 20.002 11.5 20.002C8.56094 20.002 8.21289 19.9891 7.05703 19.9375C5.98281 19.8902 5.40273 19.7098 5.01602 19.5594C4.50469 19.3617 4.13516 19.1211 3.75273 18.7387C3.36602 18.352 3.12969 17.9867 2.93203 17.4754C2.78164 17.0887 2.60117 16.5043 2.55391 15.4344C2.50234 14.2742 2.48945 13.9262 2.48945 10.9914C2.48945 8.05234 2.50234 7.7043 2.55391 6.54844C2.60117 5.47422 2.78164 4.89414 2.93203 4.50742C3.12969 3.99609 3.37031 3.62656 3.75273 3.24414C4.13945 2.85742 4.50469 2.62109 5.01602 2.42344C5.40273 2.27305 5.98711 2.09258 7.05703 2.04531C8.21289 1.99375 8.56094 1.98086 11.5 1.98086ZM11.5 0C8.51367 0 8.13984 0.0128906 6.9668 0.0644531C5.79805 0.116016 4.99453 0.305078 4.29844 0.575781C3.57227 0.859375 2.95781 1.2332 2.34766 1.84766C1.7332 2.45781 1.35938 3.07227 1.07578 3.79414C0.805078 4.49453 0.616016 5.29375 0.564453 6.4625C0.512891 7.63984 0.5 8.01367 0.5 11C0.5 13.9863 0.512891 14.3602 0.564453 15.5332C0.616016 16.702 0.805078 17.5055 1.07578 18.2016C1.35938 18.9277 1.7332 19.5422 2.34766 20.1523C2.95781 20.7625 3.57227 21.1406 4.29414 21.4199C4.99453 21.6906 5.79375 21.8797 6.9625 21.9312C8.13555 21.9828 8.50937 21.9957 11.4957 21.9957C14.482 21.9957 14.8559 21.9828 16.0289 21.9312C17.1977 21.8797 18.0012 21.6906 18.6973 21.4199C19.4191 21.1406 20.0336 20.7625 20.6437 20.1523C21.2539 19.5422 21.632 18.9277 21.9113 18.2059C22.182 17.5055 22.3711 16.7063 22.4227 15.5375C22.4742 14.3645 22.4871 13.9906 22.4871 11.0043C22.4871 8.01797 22.4742 7.64414 22.4227 6.47109C22.3711 5.30234 22.182 4.49883 21.9113 3.80273C21.6406 3.07227 21.2668 2.45781 20.6523 1.84766C20.0422 1.2375 19.4277 0.859375 18.7059 0.580078C18.0055 0.309375 17.2062 0.120313 16.0375 0.06875C14.8602 0.0128906 14.4863 0 11.5 0Z" fill="#E11166"/>
<path d="M11.5 5.34961C8.38047 5.34961 5.84961 7.88047 5.84961 11C5.84961 14.1195 8.38047 16.6504 11.5 16.6504C14.6195 16.6504 17.1504 14.1195 17.1504 11C17.1504 7.88047 14.6195 5.34961 11.5 5.34961ZM11.5 14.6652C9.47617 14.6652 7.83477 13.0238 7.83477 11C7.83477 8.97617 9.47617 7.33477 11.5 7.33477C13.5238 7.33477 15.1652 8.97617 15.1652 11C15.1652 13.0238 13.5238 14.6652 11.5 14.6652Z" fill="#E11166"/>
<path d="M18.693 5.12578C18.693 5.85625 18.1 6.44493 17.3738 6.44493C16.6434 6.44493 16.0547 5.85196 16.0547 5.12578C16.0547 4.39531 16.6477 3.80664 17.3738 3.80664C18.1 3.80664 18.693 4.39961 18.693 5.12578Z" fill="#E11166"/>
</g>
<defs>
<clipPath id="clip0_537_3418">
<rect width="22" height="22" fill="white" transform="translate(0.5)"/>
</clipPath>
</defs>
</svg>
