<svg width="23" height="23" viewBox="0 0 23 23" fill="none" xmlns="http://www.w3.org/2000/svg">
<path d="M11.5 2.36758C14.4391 2.36758 14.7871 2.38047 15.943 2.43203C17.0172 2.4793 17.5973 2.65977 17.984 2.81016C18.4953 3.00781 18.8648 3.24844 19.2473 3.63086C19.634 4.01758 19.8703 4.38281 20.068 4.89414C20.2184 5.28086 20.3988 5.86523 20.4461 6.93516C20.4977 8.09531 20.5105 8.44336 20.5105 11.3781C20.5105 14.3172 20.4977 14.6652 20.4461 15.8211C20.3988 16.8953 20.2184 17.4754 20.068 17.8621C19.8703 18.3734 19.6297 18.743 19.2473 19.1254C18.8605 19.5121 18.4953 19.7484 17.984 19.9461C17.5973 20.0965 17.0129 20.277 15.943 20.3242C14.7828 20.3758 14.4348 20.3887 11.5 20.3887C8.56094 20.3887 8.21289 20.3758 7.05703 20.3242C5.98281 20.277 5.40273 20.0965 5.01602 19.9461C4.50469 19.7484 4.13516 19.5078 3.75273 19.1254C3.36602 18.7387 3.12969 18.3734 2.93203 17.8621C2.78164 17.4754 2.60117 16.891 2.55391 15.8211C2.50234 14.6609 2.48945 14.3129 2.48945 11.3781C2.48945 8.43906 2.50234 8.09102 2.55391 6.93516C2.60117 5.86094 2.78164 5.28086 2.93203 4.89414C3.12969 4.38281 3.37031 4.01328 3.75273 3.63086C4.13945 3.24414 4.50469 3.00781 5.01602 2.81016C5.40273 2.65977 5.98711 2.4793 7.05703 2.43203C8.21289 2.38047 8.56094 2.36758 11.5 2.36758ZM11.5 0.386719C8.51367 0.386719 8.13984 0.399609 6.9668 0.451172C5.79805 0.502734 4.99453 0.691797 4.29844 0.9625C3.57227 1.24609 2.95781 1.61992 2.34766 2.23438C1.7332 2.84453 1.35938 3.45898 1.07578 4.18086C0.805078 4.88125 0.616016 5.68047 0.564453 6.84922C0.512891 8.02656 0.5 8.40039 0.5 11.3867C0.5 14.373 0.512891 14.7469 0.564453 15.9199C0.616016 17.0887 0.805078 17.8922 1.07578 18.5883C1.35938 19.3145 1.7332 19.9289 2.34766 20.5391C2.95781 21.1492 3.57227 21.5273 4.29414 21.8066C4.99453 22.0773 5.79375 22.2664 6.9625 22.318C8.13555 22.3695 8.50937 22.3824 11.4957 22.3824C14.482 22.3824 14.8559 22.3695 16.0289 22.318C17.1977 22.2664 18.0012 22.0773 18.6973 21.8066C19.4191 21.5273 20.0336 21.1492 20.6437 20.5391C21.2539 19.9289 21.632 19.3145 21.9113 18.5926C22.182 17.8922 22.3711 17.093 22.4227 15.9242C22.4742 14.7512 22.4871 14.3773 22.4871 11.391C22.4871 8.40469 22.4742 8.03086 22.4227 6.85781C22.3711 5.68906 22.182 4.88555 21.9113 4.18945C21.6406 3.45898 21.2668 2.84453 20.6523 2.23438C20.0422 1.62422 19.4277 1.24609 18.7059 0.966797C18.0055 0.696094 17.2062 0.507031 16.0375 0.455469C14.8602 0.399609 14.4863 0.386719 11.5 0.386719Z" fill="#F6BD00"/>
<path d="M11.5 5.73633C8.38047 5.73633 5.84961 8.26719 5.84961 11.3867C5.84961 14.5063 8.38047 17.0371 11.5 17.0371C14.6195 17.0371 17.1504 14.5063 17.1504 11.3867C17.1504 8.26719 14.6195 5.73633 11.5 5.73633ZM11.5 15.052C9.47617 15.052 7.83477 13.4105 7.83477 11.3867C7.83477 9.36289 9.47617 7.72148 11.5 7.72148C13.5238 7.72148 15.1652 9.36289 15.1652 11.3867C15.1652 13.4105 13.5238 15.052 11.5 15.052Z" fill="#F6BD00"/>
<path d="M18.693 5.51299C18.693 6.24346 18.1 6.83213 17.3738 6.83213C16.6434 6.83213 16.0547 6.23916 16.0547 5.51299C16.0547 4.78252 16.6477 4.19385 17.3738 4.19385C18.1 4.19385 18.693 4.78682 18.693 5.51299Z" fill="#F6BD00"/>
</svg>
