<svg width="20" height="18" viewBox="0 0 20 18" fill="none" xmlns="http://www.w3.org/2000/svg">
<path d="M0 4.9182L0.945537 6.07003C0.945537 6.07003 2.72487 4.497 3.14607 5.54569C3.56726 6.59438 6.39526 15.5082 6.39526 15.5082C6.39526 15.5082 7.23766 17.9236 9.12014 17.9236C10.8307 17.9236 12.249 16.3334 13.3493 15.216C16.3148 12.216 19.3921 8.51124 19.9594 4.17896C20.2173 2.21052 19.246 0.138939 17.054 0.0787685C15.928 0.0443853 14.7676 0.388217 13.8478 1.02431C12.5756 1.90967 11.8536 3.32798 11.5355 4.81505C11.5355 4.81505 13.2117 3.66321 14.0541 5.02135C14.5613 5.84654 14.2088 6.90383 13.8134 7.70323C13.4352 8.46826 13.0054 9.21609 12.5412 9.93814C12.2146 10.4453 11.7075 11.3135 11.0112 11.3135C10.1688 11.3135 9.87656 9.25907 9.75622 8.70035C9.30924 6.73191 9.32644 4.68611 8.73333 2.75206C8.3809 1.59163 7.61587 -0.204893 6.08582 0.190514C2.83661 1.0329 0 4.9182 0 4.9182Z" fill="white"/>
</svg>
